<?xml version="1.0" encoding="utf-8"?>
<!-- Generator: Adobe Illustrator 16.0.4, SVG Export Plug-In . SVG Version: 6.00 Build 0)  -->
<!DOCTYPE svg PUBLIC "-//W3C//DTD SVG 1.1//EN" "http://www.w3.org/Graphics/SVG/1.1/DTD/svg11.dtd">
<svg version="1.1" id="Layer_1" xmlns="http://www.w3.org/2000/svg" xmlns:xlink="http://www.w3.org/1999/xlink" x="0px" y="0px"
	 width="132px" height="116px" viewBox="578 0 132 116" enable-background="new 578 0 132 116" xml:space="preserve">
<g opacity="0.08">
	<path fill="#FFFFFF" d="M592.526,69.661c1.515-0.404,2.424-2.02,2.02-3.536c-0.403-1.515-2.02-2.424-3.535-2.02
		c-1.515,0.404-2.424,2.02-2.02,3.536C589.394,69.156,591.01,70.065,592.526,69.661z"/>
	<path fill="#FFFFFF" d="M582.727,43.701c3.536,13.334,5.455,15.657,6.869,15.253c1.414-0.404,1.919-3.333-1.616-16.667
		c-2.828-10.505-11.717-37.273-15.253-47.678c-0.101-0.404-0.707-0.202-0.605,0.202C574.242,5.519,579.899,33.196,582.727,43.701z"
		/>
	<path fill="#FFFFFF" d="M598.687,91.076l8.081-62.627c0-0.202-0.201-0.404-0.403-0.303l-7.879,2.121
		c-0.202,0-0.304,0.101-0.304,0.303l-4.849,29.799c0,0.101,0,0.202,0.102,0.303c1.616,1.212,2.929,3.333,3.636,5.859
		c1.111,4.041-0.706,13.536-1.01,15.455c0,0.102-0.202,0.202-0.303,0.102c-1.212-1.415-7.576-8.788-8.586-12.829
		c-0.707-2.626-0.606-5.152,0.201-6.97c0-0.101,0-0.202,0-0.303L568.182,38.55c-0.102-0.101-0.202-0.101-0.304-0.101l-7.879,2.121
		c-0.202,0.101-0.303,0.303-0.202,0.505l38.284,50.203C598.283,91.48,598.586,91.379,598.687,91.076z"/>
	<path fill="#FFFFFF" d="M582.929,20.064c6.263-0.404,12.122,3.131,14.95,8.687c0.101,0.303,0.505,0.404,0.707,0.202l13.435-8.586
		l10.707,11.818c0.202,0.202,0.606,0.202,0.809,0c4.242-4.646,10.707-6.465,16.667-4.546c0.202,0.101,0.505,0,0.605-0.202l3.03-4.04
		c0-0.101,0.102-0.101,0.102-0.202l2.021-17.677c0.101-0.606-0.707-0.808-1.011-0.202l-6.061,14.647
		c-0.202,0.505-0.909,0.404-1.011-0.102l-2.02-15.657c-0.102-0.606-0.909-0.606-1.01,0l-2.021,15.657
		c-0.101,0.505-0.809,0.606-1.011,0.102l-6.061-14.647c-0.201-0.606-1.11-0.303-1.01,0.303l2.121,15.657
		c0.102,0.505-0.606,0.808-0.909,0.404l-9.596-12.526c-0.404-0.505-1.111,0-0.909,0.505l6.061,14.546
		c0.202,0.505-0.404,0.909-0.808,0.606l-7.071-5.455l2.323-1.515c0.505-0.303,0.102-1.111-0.505-0.909l-3.232,1.313l-2.627-2.02
		c-0.505-0.404-1.11,0.303-0.707,0.707l1.818,2.02l-8.182,3.333c-0.505,0.202-0.909-0.404-0.606-0.808l9.697-12.525
		c0.404-0.505-0.202-1.111-0.707-0.707l-12.525,9.596c-0.404,0.303-1.01-0.101-0.808-0.606l6.061-14.545
		c0.202-0.505-0.505-1.01-0.909-0.505l-9.597,12.525c-0.303,0.404-1.01,0.101-0.908-0.404l2.121-15.657
		c0.101-0.606-0.809-0.909-1.011-0.303l-6.061,14.647c-0.202,0.505-0.909,0.404-1.01-0.101l-2.021-15.657
		c-0.101-0.606-0.909-0.606-1.01,0.101l-2.728,17.576c0,0,0,0.101,0,0.202l1.919,4.646
		C582.526,19.963,582.727,20.064,582.929,20.064z"/>
	<path fill="#FFFFFF" d="M610.102,135.218c-1.516,0.404-2.425,2.021-2.021,3.536s1.919,2.424,3.535,2.02
		c1.516-0.404,2.425-2.02,2.021-3.535C613.233,135.723,611.616,134.814,610.102,135.218z"/>
	<path fill="#FFFFFF" d="M619.9,161.178c-3.535-13.334-5.455-15.657-6.869-15.253s-1.919,3.333,1.616,16.667
		c2.728,10.505,11.718,37.273,15.253,47.678c0.102,0.404,0.707,0.202,0.606-0.202C628.385,199.26,622.728,171.582,619.9,161.178z"/>
	<path fill="#FFFFFF" d="M615.253,142.895l19.192,23.435c0.101,0.101,0.202,0.101,0.303,0.101l7.879-2.122
		c0.202-0.101,0.304-0.303,0.202-0.505l-38.183-50.203c-0.202-0.203-0.505-0.102-0.605,0.202l-8.081,62.627
		c0,0.202,0.202,0.404,0.403,0.303l7.879-2.121c0.102,0,0.202-0.101,0.202-0.303l4.849-29.799c0-0.101,0-0.202-0.101-0.303
		c-1.616-1.212-2.93-3.333-3.637-5.859c-1.111-4.04,0.707-13.536,1.011-15.455c0-0.101,0.201-0.202,0.303-0.101
		c1.212,1.414,7.575,8.788,8.586,12.829c0.707,2.626,0.606,5.151-0.202,6.969C615.253,142.693,615.253,142.794,615.253,142.895z"/>
	<path fill="#FFFFFF" d="M619.597,184.815c-6.263,0.404-12.122-3.131-14.95-8.687c-0.101-0.303-0.404-0.404-0.707-0.202
		l-13.435,8.586l-10.809-11.818c-0.202-0.202-0.605-0.202-0.808,0c-4.242,4.646-10.707,6.465-16.667,4.545
		c-0.202-0.101-0.505,0-0.606,0.202l-3.03,4.041c0,0.101-0.101,0.101-0.101,0.203l-1.92,17.677c0,0.606,0.809,0.808,1.011,0.202
		l6.061-14.647c0.202-0.505,0.909-0.404,1.01,0.101l2.021,15.657c0.102,0.606,0.909,0.606,1.01,0l2.021-15.657
		c0.101-0.505,0.808-0.606,1.01-0.101l6.062,14.647c0.202,0.606,1.11,0.303,1.01-0.303l-2.121-15.657
		c-0.102-0.505,0.606-0.808,0.909-0.404l9.596,12.525c0.404,0.505,1.111,0,0.909-0.505l-6.061-14.546
		c-0.202-0.505,0.404-0.909,0.809-0.606l7.07,5.455l-2.323,1.515c-0.505,0.303-0.102,1.111,0.505,0.909l3.232-1.313l2.627,2.02
		c0.505,0.404,1.11-0.303,0.706-0.707l-1.817-2.021l8.182-3.333c0.505-0.202,0.909,0.404,0.605,0.808l-9.596,12.525
		c-0.404,0.505,0.202,1.111,0.707,0.707l12.525-9.596c0.404-0.303,1.011,0.101,0.809,0.606l-6.061,14.545
		c-0.202,0.505,0.505,1.01,0.908,0.505l9.597-12.526c0.303-0.404,1.01-0.101,0.909,0.404l-2.121,15.657
		c-0.102,0.606,0.808,0.909,1.01,0.303l6.061-14.647c0.202-0.505,0.909-0.404,1.011,0.101l2.02,15.657
		c0,0.606,0.909,0.606,0.909-0.101l2.728-17.576c0,0,0-0.101,0-0.202l-1.919-4.646C620,184.916,619.799,184.815,619.597,184.815z"/>
	<path fill="#FFFFFF" d="M566.566,114.713c1.515-0.404,2.424-2.02,2.02-3.535c-0.403-1.515-2.02-2.424-3.535-2.021
		c-1.516,0.505-2.425,2.021-2.021,3.536S565.05,115.117,566.566,114.713z"/>
	<path fill="#FFFFFF" d="M557.878,114.107c-0.403-1.414-3.333-1.919-16.667,1.616c-10.505,2.828-37.374,11.717-47.678,15.252
		c-0.403,0.101-0.202,0.707,0.202,0.606c10.809-2.121,38.485-7.777,48.89-10.606C555.959,117.44,558.282,115.521,557.878,114.107z"
		/>
	<path fill="#FFFFFF" d="M560.808,116.43l-23.435,19.192c-0.102,0.101-0.102,0.202-0.102,0.303l2.121,7.879
		c0.102,0.202,0.303,0.303,0.506,0.202l50.202-38.284c0.202-0.202,0.102-0.505-0.202-0.606l-62.627-8.081
		c-0.202,0-0.404,0.202-0.303,0.404l2.121,7.879c0.101,0.202,0.202,0.303,0.303,0.303l29.799,4.849c0.101,0,0.202,0,0.303-0.101
		c1.212-1.616,3.334-2.929,5.858-3.636c4.041-1.111,13.536,0.707,15.455,1.01c0.102,0,0.202,0.202,0.102,0.303
		c-1.414,1.212-8.788,7.576-12.829,8.586c-2.626,0.707-5.151,0.606-6.97-0.202C561.01,116.43,560.908,116.43,560.808,116.43z"/>
	<path fill="#FFFFFF" d="M496.261,120.47l17.576,2.727c0,0,0.101,0,0.202,0l4.646-1.919c0.202-0.101,0.303-0.303,0.303-0.505
		c-0.404-6.263,3.132-12.121,8.688-14.95c0.303-0.101,0.403-0.404,0.201-0.707l-8.687-13.435l11.818-10.707
		c0.202-0.202,0.202-0.606,0-0.808c-4.646-4.243-6.465-10.708-4.546-16.667c0.102-0.202,0-0.505-0.202-0.606l-4.04-3.03
		c-0.102,0-0.102-0.101-0.202-0.101l-17.677-1.919c-0.506-0.203-0.809,0.707-0.202,0.909l14.646,6.061
		c0.505,0.202,0.404,0.909-0.101,1.01l-15.657,2.02c-0.606,0.101-0.606,0.909,0,1.01l15.657,2.02
		c0.505,0.101,0.605,0.808,0.101,1.01l-14.646,6.061c-0.606,0.202-0.304,1.111,0.303,1.01l15.657-2.121
		c0.505-0.101,0.808,0.606,0.403,0.909l-12.525,9.596c-0.505,0.404,0,1.111,0.505,0.909l14.546-6.061
		c0.505-0.202,0.909,0.404,0.606,0.808l-5.455,7.071l-1.516-2.223c-0.303-0.505-1.11-0.101-0.908,0.505l1.312,3.131l-2.02,2.626
		c-0.404,0.505,0.303,1.111,0.707,0.707l2.02-1.818l3.435,8.081c0.202,0.505-0.404,0.909-0.808,0.606l-12.526-9.596
		c-0.505-0.404-1.11,0.202-0.707,0.707l9.597,12.526c0.303,0.404-0.102,1.01-0.606,0.808l-14.546-6.061
		c-0.505-0.202-1.01,0.505-0.505,0.909l12.525,9.596c0.404,0.303,0.102,1.01-0.403,0.909l-15.657-2.121
		c-0.606-0.101-0.909,0.808-0.303,1.01l14.646,6.061c0.505,0.202,0.404,0.909-0.101,1.01l-15.657,2.021
		C495.554,119.561,495.554,120.47,496.261,120.47z"/>
	<path fill="#FFFFFF" d="M636.062,90.167c-1.516,0.404-2.425,2.02-2.021,3.535s2.021,2.424,3.536,2.021
		c1.515-0.404,2.424-2.021,2.02-3.536S637.576,89.762,636.062,90.167z"/>
	<path fill="#FFFFFF" d="M708.891,73.298c-10.808,2.121-38.485,7.777-48.89,10.606c-13.333,3.536-15.656,5.455-15.253,6.869
		c0.404,1.414,3.334,1.919,16.667-1.616c10.505-2.829,37.273-11.718,47.678-15.253C709.497,73.803,709.295,73.197,708.891,73.298z"
		/>
	<path fill="#FFFFFF" d="M641.718,88.449l23.436-19.192c0.101-0.101,0.101-0.202,0.101-0.303l-2.121-7.879
		c-0.102-0.202-0.303-0.303-0.505-0.202l-50.203,38.284c-0.202,0.202-0.102,0.505,0.202,0.606l62.627,8.081
		c0.202,0,0.404-0.202,0.303-0.404l-2.121-7.879c0-0.202-0.101-0.303-0.202-0.303l-29.899-4.849c-0.101,0-0.202,0-0.303,0.101
		c-1.212,1.616-3.333,2.929-5.858,3.636c-4.041,1.111-13.536-0.707-15.455-1.01c-0.102,0-0.202-0.202-0.102-0.303
		c1.415-1.212,8.788-7.576,12.829-8.586c2.626-0.707,5.151-0.606,6.97,0.203C641.516,88.449,641.617,88.449,641.718,88.449z"/>
	<path fill="#FFFFFF" d="M706.265,84.611l-17.576-2.728c0,0-0.101,0-0.202,0l-4.646,1.919c-0.202,0.101-0.303,0.303-0.303,0.505
		c0.404,6.263-3.132,12.121-8.688,14.95c-0.303,0.101-0.403,0.404-0.201,0.707l8.687,13.333l-11.718,10.707
		c-0.202,0.202-0.202,0.606,0,0.808c4.646,4.243,6.465,10.708,4.546,16.667c-0.102,0.202,0,0.505,0.202,0.606l4.04,3.03
		c0.102,0,0.102,0.101,0.202,0.101l17.678,1.919c0.505,0.102,0.707-0.808,0.202-1.01l-14.647-6.061
		c-0.505-0.202-0.403-0.909,0.102-1.01l15.657-2.02c0.605-0.101,0.605-0.909,0-1.01l-15.657-2.02
		c-0.505-0.101-0.606-0.808-0.102-1.01l14.647-6.061c0.606-0.202,0.303-1.111-0.303-1.01l-15.657,2.121
		c-0.505,0.101-0.809-0.606-0.404-0.909l12.525-9.596c0.505-0.404,0-1.111-0.505-0.909l-14.546,6.061
		c-0.505,0.202-0.909-0.404-0.606-0.808l5.354-6.97l1.515,2.323c0.304,0.505,1.111,0.101,0.909-0.505l-1.312-3.233l2.121-2.727
		c0.403-0.505-0.304-1.111-0.707-0.707l-2.121,1.919l-3.334-8.182c-0.202-0.505,0.404-0.909,0.809-0.606l12.525,9.596
		c0.505,0.404,1.11-0.202,0.707-0.707l-9.597-12.526c-0.303-0.404,0.102-1.01,0.606-0.808l14.546,6.061
		c0.505,0.202,1.01-0.505,0.505-0.909l-12.525-9.596c-0.404-0.303-0.102-1.01,0.404-0.909l15.656,2.121
		c0.606,0.101,0.909-0.808,0.304-1.01l-14.647-6.061c-0.505-0.202-0.403-0.909,0.102-1.01l15.657-2.021
		C707.073,85.318,707.073,84.409,706.265,84.611z"/>
	<path fill="#FFFFFF" d="M585.354,135.824c0.808-1.415,0.404-3.132-1.011-3.939c-1.414-0.809-3.131-0.404-3.939,1.01
		c-0.808,1.313-0.303,3.132,1.011,3.939C582.828,137.642,584.545,137.239,585.354,135.824z"/>
	<path fill="#FFFFFF" d="M578.787,141.38c-1.312-0.707-3.737,0.909-10.605,12.93c-5.455,9.495-18.082,34.748-22.93,44.546
		c-0.202,0.404,0.303,0.707,0.605,0.303c6.061-9.091,21.617-32.728,27.071-42.122C579.798,145.016,580.101,142.087,578.787,141.38z"
		/>
	<path fill="#FFFFFF" d="M579.798,171.28l7.07,4.041c0.202,0.101,0.404,0,0.505-0.202l8.385-62.526c0-0.303-0.304-0.505-0.506-0.303
		l-50,38.688c-0.202,0.101-0.202,0.404,0,0.505l7.07,4.041c0.102,0.101,0.303,0.101,0.404,0l24.546-17.677
		c0.101-0.101,0.101-0.202,0.101-0.303c-0.303-1.919,0.202-4.445,1.616-6.768c2.121-3.637,10.102-9.091,11.616-10.202
		c0.102-0.101,0.304,0,0.304,0.101c-0.102,1.919-0.909,11.616-3.03,15.152c-1.313,2.323-3.232,4.041-5.051,4.748
		c-0.102,0-0.202,0.101-0.202,0.303l-3.03,30.102C579.596,171.077,579.596,171.178,579.798,171.28z"/>
	<path fill="#FFFFFF" d="M554.04,178.754l2.02-4.646c0.102-0.202,0.102-0.404-0.101-0.606c-4.748-4.142-6.364-10.708-4.445-16.667
		c0.102-0.303-0.101-0.606-0.403-0.707l-15.455-3.333l0.808-15.858c0-0.303-0.201-0.606-0.505-0.505
		c-6.263,0.303-12.121-2.929-14.949-8.586c-0.102-0.202-0.304-0.303-0.606-0.303l-4.95,0.707c-0.101,0-0.101,0-0.201,0.101
		l-13.839,11.111c-0.707,0.303-0.303,1.01,0.303,0.808l14.546-6.061c0.505-0.202,0.909,0.404,0.606,0.808l-9.597,12.525
		c-0.404,0.505,0.202,1.111,0.707,0.707l12.525-9.596c0.404-0.303,1.011,0.102,0.809,0.606l-6.061,14.545
		c-0.202,0.606,0.505,1.01,0.909,0.505l9.596-12.525c0.303-0.404,1.01-0.101,0.909,0.404l-2.121,15.657
		c-0.102,0.606,0.707,0.808,1.01,0.303l6.061-14.647c0.202-0.505,0.909-0.404,1.011,0.101l1.11,8.788l-2.727-0.606
		c-0.606-0.101-0.909,0.808-0.304,1.01l3.334,1.313l0.403,3.435c0.102,0.606,1.011,0.606,1.011,0l0.101-2.728l8.183,3.333
		c0.505,0.202,0.403,0.909-0.102,1.01l-15.656,2.021c-0.606,0.101-0.606,0.909,0,1.01l15.656,2.02
		c0.505,0.101,0.606,0.808,0.102,1.01l-14.647,6.061c-0.505,0.303-0.303,1.111,0.304,1.01l15.656-2.122
		c0.506-0.101,0.809,0.606,0.404,0.909l-12.525,9.596c-0.505,0.404-0.101,1.111,0.505,0.909l14.546-6.061
		c0.505-0.203,0.909,0.404,0.606,0.808l-9.597,12.525c-0.403,0.505,0.202,1.111,0.606,0.606l14.344-10.505
		C553.939,178.855,554.04,178.855,554.04,178.754z"/>
	<path fill="#FFFFFF" d="M617.274,69.055c-0.809,1.414-0.404,3.131,1.01,3.939c1.414,0.809,3.132,0.404,3.939-1.01
		c0.707-1.313,0.303-3.131-1.01-3.939C619.799,67.237,618.081,67.641,617.274,69.055z"/>
	<path fill="#FFFFFF" d="M623.839,63.499c1.313,0.708,3.737-0.909,10.606-12.929c5.354-9.394,18.081-34.748,22.93-44.546
		c0.202-0.404-0.303-0.707-0.606-0.303c-6.061,9.091-21.616,32.728-27.071,42.122C622.829,59.863,622.526,62.793,623.839,63.499z"/>
	<path fill="#FFFFFF" d="M622.829,33.6l-7.071-4.041c-0.202-0.101-0.404,0-0.505,0.202l-8.384,62.425
		c0,0.303,0.303,0.505,0.505,0.303l50.001-38.485c0.202-0.101,0.202-0.404,0-0.505l-7.071-4.041
		c-0.202-0.202-0.303-0.202-0.403-0.101l-24.546,17.677c-0.102,0.101-0.102,0.202-0.102,0.303c0.303,1.919-0.202,4.444-1.616,6.768
		c-2.121,3.637-10.102,9.091-11.616,10.203c-0.101,0.101-0.303,0-0.303-0.102c0.101-1.919,0.909-11.616,3.03-15.151
		c1.313-2.323,3.232-4.041,5.051-4.748c0.101,0,0.202-0.101,0.202-0.303l3.03-30.102C623.031,33.802,623.031,33.701,622.829,33.6z"
		/>
	<path fill="#FFFFFF" d="M648.487,26.024l-2.021,4.646c-0.101,0.202-0.101,0.404,0.101,0.606c4.748,4.142,6.364,10.708,4.445,16.667
		c-0.102,0.303,0.101,0.606,0.404,0.707l15.555,3.333l-0.808,15.96c0,0.303,0.202,0.606,0.505,0.505
		c6.263-0.303,12.122,2.929,14.95,8.586c0.101,0.202,0.303,0.303,0.606,0.303l4.949-0.707c0.101,0,0.101,0,0.202-0.101
		l13.839-11.111c0.707-0.303,0.202-1.01-0.303-0.808l-14.546,6.061c-0.506,0.202-0.909-0.404-0.606-0.808l9.596-12.526
		c0.404-0.505-0.201-1.111-0.707-0.707l-12.525,9.596c-0.404,0.303-1.01-0.101-0.808-0.606l6.061-14.545
		c0.202-0.606-0.505-1.01-0.909-0.505l-9.596,12.526c-0.304,0.404-1.011,0.101-0.909-0.404l2.121-15.657
		c0.101-0.606-0.707-0.808-1.011-0.303l-6.061,14.647c-0.202,0.505-0.909,0.404-1.01-0.101l-1.111-8.889l2.626,0.606
		c0.606,0.101,0.909-0.808,0.304-1.01l-3.232-1.313l-0.404-3.333c-0.101-0.606-1.01-0.606-1.01,0l-0.102,2.727l-8.182-3.333
		c-0.506-0.202-0.404-0.909,0.101-1.01l15.657-2.021c0.605-0.101,0.605-0.909,0-1.01l-15.657-2.02
		c-0.505-0.102-0.606-0.808-0.101-1.01l14.646-6.061c0.505-0.303,0.303-1.111-0.303-1.01l-15.657,2.121
		c-0.505,0.101-0.809-0.606-0.404-0.909l12.525-9.596c0.505-0.404,0.102-1.111-0.505-0.909l-14.546,6.061
		c-0.505,0.202-0.909-0.404-0.605-0.808l9.596-12.526c0.303-0.505-0.303-1.111-0.707-0.707l-14.344,10.505
		C648.587,25.923,648.487,25.923,648.487,26.024z"/>
	<path fill="#FFFFFF" d="M630.708,119.359c-0.809,1.414-0.404,3.131,1.01,3.939c1.415,0.808,3.132,0.303,3.939-1.01
		c0.809-1.414,0.404-3.131-1.01-3.939C633.234,117.541,631.516,117.946,630.708,119.359z"/>
	<path fill="#FFFFFF" d="M655.961,130.774c-12.021-6.869-14.95-7.172-15.657-5.859s0.909,3.738,12.93,10.606
		c9.395,5.455,34.647,18.081,44.546,22.93c0.404,0.202,0.707-0.303,0.304-0.606C688.991,151.784,665.355,136.228,655.961,130.774z"
		/>
	<path fill="#FFFFFF" d="M639.395,120.976c0,0.101,0.102,0.202,0.303,0.202l30.102,3.03c0.102,0,0.202,0,0.304-0.202l4.04-7.071
		c0.102-0.202,0-0.404-0.202-0.505l-62.526-8.384c-0.303,0-0.505,0.303-0.303,0.505l38.587,50.001c0.101,0.202,0.403,0.202,0.505,0
		l4.04-7.071c0.202-0.202,0.202-0.303,0.102-0.404l-17.677-24.546c-0.102-0.101-0.203-0.101-0.304-0.101
		c-1.919,0.303-4.444-0.202-6.768-1.616c-3.637-2.121-9.091-10.101-10.202-11.616c-0.102-0.101,0-0.303,0.101-0.303
		c1.92,0.101,11.616,0.909,15.152,3.03C636.971,117.238,638.688,119.157,639.395,120.976z"/>
	<path fill="#FFFFFF" d="M677.78,149.764c-0.102,0-0.102-0.101-0.202-0.101l-4.646-2.02c-0.202-0.101-0.404-0.101-0.606,0.101
		c-4.142,4.748-10.707,6.364-16.667,4.444c-0.303-0.101-0.605,0.101-0.706,0.404l-3.334,15.556l-15.858-0.808
		c-0.304,0-0.606,0.202-0.506,0.505c0.304,6.263-2.929,12.122-8.586,14.95c-0.202,0.101-0.303,0.303-0.303,0.606l0.707,4.95
		c0,0.101,0,0.101,0.101,0.202l11.111,13.838c0.304,0.606,1.111,0.202,0.809-0.303l-6.061-14.546
		c-0.202-0.505,0.404-0.909,0.808-0.606l12.526,9.596c0.505,0.404,1.11-0.202,0.707-0.707l-9.597-12.526
		c-0.303-0.404,0.102-1.01,0.606-0.808l14.545,6.061c0.606,0.202,1.011-0.505,0.506-0.909l-12.526-9.596
		c-0.403-0.303-0.101-1.01,0.404-0.909l15.657,2.122c0.606,0.101,0.808-0.707,0.303-1.01l-14.646-6.061
		c-0.505-0.202-0.404-0.909,0.102-1.01l8.787-1.112l-0.605,2.626c-0.102,0.606,0.808,0.909,1.01,0.303l1.312-3.232l3.435-0.404
		c0.606-0.101,0.606-1.01,0-1.01l-2.828-0.101l3.435-8.283c0.202-0.505,0.909-0.404,1.01,0.101l2.021,15.657
		c0.101,0.606,0.909,0.606,1.01,0l2.021-15.657c0.101-0.505,0.808-0.606,1.01-0.101l6.062,14.647c0.303,0.505,1.11,0.303,1.01-0.303
		l-2.121-15.657c-0.102-0.505,0.606-0.808,0.909-0.404l9.596,12.525c0.404,0.505,1.111,0.101,0.909-0.505l-6.061-14.546
		c-0.202-0.505,0.404-0.909,0.808-0.606l12.526,9.596c0.505,0.404,1.11-0.202,0.605-0.606L677.78,149.764z"/>
	<path fill="#FFFFFF" d="M571.919,85.52c0.808-1.414,0.403-3.131-1.011-3.939s-3.131-0.303-3.939,1.01
		c-0.808,1.414-0.403,3.131,1.011,3.939S571.111,86.934,571.919,85.52z"/>
	<path fill="#FFFFFF" d="M546.666,74.106c12.021,6.869,14.949,7.172,15.657,5.859c0.706-1.313-0.91-3.737-12.93-10.606
		c-9.395-5.455-34.647-18.081-44.547-22.93c-0.404-0.202-0.707,0.303-0.303,0.606C513.635,53.095,537.272,68.651,546.666,74.106z"/>
	<path fill="#FFFFFF" d="M563.131,83.904c0-0.101-0.102-0.202-0.303-0.202l-30.102-3.03c-0.102,0-0.202,0-0.304,0.202l-4.04,7.071
		c-0.102,0.202,0,0.404,0.202,0.505l62.526,8.384c0.303,0,0.505-0.303,0.303-0.505l-38.587-50.001c-0.101-0.202-0.404-0.202-0.505,0
		l-4.041,7.071c-0.101,0.202-0.101,0.303-0.101,0.404l17.677,24.546c0.102,0.101,0.202,0.101,0.303,0.101
		c1.92-0.303,4.445,0.202,6.769,1.616c3.637,2.121,9.091,10.101,10.202,11.616c0.101,0.101,0,0.303-0.102,0.303
		c-1.919-0.101-11.616-0.909-15.151-3.03C565.555,87.641,563.838,85.722,563.131,83.904z"/>
	<path fill="#FFFFFF" d="M524.746,55.115c0.101,0,0.101,0.102,0.202,0.102l4.646,2.02c0.202,0.101,0.403,0.101,0.606-0.102
		c4.141-4.747,10.707-6.364,16.667-4.444c0.303,0.101,0.605-0.101,0.706-0.404l3.334-15.556l15.858,0.808
		c0.304,0,0.606-0.202,0.506-0.505c-0.304-6.263,2.929-12.122,8.586-14.95c0.202-0.101,0.303-0.303,0.303-0.606l-0.707-4.95
		c0-0.101,0-0.101-0.102-0.202L564.241,2.488c-0.202-0.606-1.01-0.202-0.808,0.303l6.061,14.546
		c0.202,0.505-0.404,0.909-0.808,0.606L556.16,8.347c-0.505-0.404-1.11,0.202-0.707,0.707l9.597,12.525
		c0.303,0.404-0.102,1.011-0.606,0.809l-14.546-6.061c-0.605-0.203-1.01,0.505-0.505,0.909l12.525,9.596
		c0.404,0.303,0.102,1.01-0.403,0.909l-15.657-2.121c-0.606-0.101-0.809,0.707-0.303,1.01l14.646,6.061
		c0.505,0.202,0.404,0.909-0.102,1.01l-8.787,1.111l0.605-2.626c0.102-0.606-0.808-0.909-1.01-0.303l-1.313,3.232l-3.435,0.404
		c-0.605,0.101-0.605,1.01,0,1.01l2.829,0.101l-3.435,8.283c-0.202,0.505-0.909,0.404-1.011-0.101l-2.02-15.657
		c-0.102-0.606-0.909-0.606-1.011,0l-2.02,15.657c-0.102,0.505-0.809,0.606-1.011,0.101l-6.061-14.647
		c-0.303-0.505-1.111-0.303-1.01,0.303l2.121,15.657c0.101,0.505-0.606,0.808-0.909,0.404l-9.596-12.525
		c-0.404-0.505-1.111-0.101-0.909,0.505l6.061,14.545c0.202,0.505-0.404,0.909-0.809,0.606l-12.525-9.596
		c-0.404-0.404-1.01,0.202-0.707,0.707L524.746,55.115z"/>
</g>
</svg>
