<?xml version="1.0" encoding="UTF-8"?>
<svg width="216px" height="320px" viewBox="0 0 216 320" version="1.1" xmlns="http://www.w3.org/2000/svg" xmlns:xlink="http://www.w3.org/1999/xlink">
    <!-- Generator: Sketch 40.1 (33804) - http://www.bohemiancoding.com/sketch -->
    <title>logo-phone</title>
    <desc>Created with Sketch.</desc>
    <defs></defs>
    <g id="Page-1" stroke="none" stroke-width="1" fill="none" fill-rule="evenodd">
        <g id="logo-phone">
            <g id="PV-LogoTypo-gold_x2F_gold">
                <g id="Group">
                    <path d="M113.060006,218.79958 C113.060006,221.872354 110.619862,224.312498 107.547088,224.312498 C104.474314,224.312498 102.03417,221.872354 102.03417,218.79958 C102.03417,215.726806 104.474314,213.286662 107.547088,213.286662 C110.619862,213.196286 113.060006,215.726806 113.060006,218.79958" id="Shape" fill="#D12A2F"></path>
                    <path d="M108.179718,73.8369503 C108.089342,73.0235689 106.914458,73.0235689 106.914458,73.8369503 C105.468447,95.0752408 102.305297,149.842917 102.305297,170.810081 C102.305297,197.651665 104.655065,202.80308 107.547088,202.80308 C110.43911,202.80308 112.788879,197.651665 112.788879,170.810081 C112.788879,149.752542 109.625729,95.0752408 108.179718,73.8369503" id="Shape" fill="#D12A2F"></path>
                    <path d="M137.732573,153.819448 L113.60226,207.321865 C113.511884,207.502617 113.511884,207.773744 113.692636,207.954495 C116.042404,210.936893 117.578791,215.546054 117.578791,220.787845 C117.578791,228.831283 109.535353,245.821915 107.908591,249.165816 C107.818215,249.436943 107.456712,249.436943 107.366337,249.165816 C105.739574,245.821915 97.6961362,228.831283 97.6961362,220.787845 C97.6961362,215.546054 99.2325232,210.936893 101.582291,207.954495 C101.763043,207.773744 101.763043,207.502617 101.672667,207.321865 L77.5423542,153.819448 C77.4519785,153.638697 77.1808513,153.457946 77.0000999,153.457946 L61.0036003,153.457946 C60.5517218,153.457946 60.2805947,153.909824 60.4613461,154.271327 L107.004834,267.512084 C107.185585,268.054338 107.908591,268.054338 108.179718,267.512084 L154.723205,154.271327 C154.903957,153.819448 154.63283,153.457946 154.180951,153.457946 L138.274827,153.457946 C138.0037,153.457946 137.822949,153.638697 137.732573,153.819448" id="Shape" fill="#8D734A"></path>
                    <path d="M86.6703003,84.5916591 L90.737207,114.957896 C90.9179584,115.952028 89.5623228,116.494283 88.9296929,115.680901 L70.4026735,91.2794612 C69.6796679,90.3757041 68.2336566,91.1890855 68.6855352,92.2735939 L80.4343767,120.561189 C80.7958795,121.464946 79.7113711,122.368703 78.8979897,121.736073 L54.677301,103.028303 C53.773544,102.305297 52.5986598,103.480181 53.2312897,104.474314 L71.9390605,128.695003 C72.5716904,129.508384 71.6679334,130.592892 70.7641763,130.23139 L42.4765809,118.482548 C41.3920725,118.03067 40.5786912,119.476681 41.4824482,120.199687 L65.7935126,138.817082 C66.606894,139.449711 66.0646397,140.714971 65.070507,140.624596 L38.0481714,137.009567 C36.8732873,136.828816 36.4214088,138.545954 37.5962929,138.907457 L75.5540887,151.198553 C76.0963429,151.379304 76.7289728,151.017802 76.8193485,150.475547 C79.3498682,138.545954 88.4778144,129.237257 100.407407,126.797113 C100.859286,126.706737 101.220789,126.345234 101.220789,125.893356 L102.395673,116.223156 C102.395673,116.042404 102.395673,115.952028 102.305297,115.771277 L88.5681901,84.0494049 C88.1163115,82.9648964 86.4895489,83.4167749 86.6703003,84.5916591" id="Shape" fill="#8D734A"></path>
                    <path d="M128.423876,84.5916591 L124.356969,114.957896 C124.176217,115.952028 125.531853,116.494283 126.164483,115.680901 L144.781878,91.3698369 C145.504884,90.4660798 146.950895,91.2794612 146.499016,92.3639696 L134.750175,120.651565 C134.388672,121.555322 135.473181,122.459079 136.286562,121.826449 L160.507251,103.118678 C161.411008,102.395673 162.585892,103.570557 161.953262,104.56469 L143.245491,128.785378 C142.612861,129.59876 143.516618,130.683268 144.420375,130.321765 L172.707971,118.572924 C173.792479,118.121045 174.60586,119.567057 173.702103,120.290062 L149.391039,138.907457 C148.577658,139.540087 149.119912,140.805347 150.114045,140.714971 L177.13638,137.099943 C178.311264,136.919192 178.763143,138.63633 177.588259,138.997833 L139.630463,151.288929 C139.088209,151.46968 138.455579,151.108177 138.365203,150.565923 C135.834683,138.63633 126.706737,129.327633 114.777144,126.887489 C114.325266,126.797113 113.963763,126.43561 113.963763,125.983732 L112.788879,116.313531 C112.788879,116.13278 112.788879,116.042404 112.879254,115.861653 L126.525986,84.0494049 C126.977864,82.9648964 128.604627,83.4167749 128.423876,84.5916591" id="Shape" fill="#8D734A"></path>
                    <path d="M213.557789,52.9601626 C213.557789,54.0446711 213.10591,55.2195552 212.111778,55.2195552 C211.388772,55.2195552 211.208021,54.4061739 211.208021,53.2312897 L211.208021,43.8322165 C211.208021,39.2230556 206.869987,38.0481714 202.712704,38.0481714 C199.459179,38.0481714 196.928659,39.3134313 196.024902,41.0305697 C195.753775,41.4824482 195.573024,42.0247024 195.573024,42.5669567 C195.573024,44.284095 196.928659,45.6397306 198.645798,45.6397306 C200.362936,45.6397306 201.718572,44.284095 201.718572,42.5669567 C201.718572,40.940194 200.543687,39.6749341 199.007301,39.4941827 C199.63993,38.9519285 201.357069,38.7711771 202.441577,38.7711771 C205.514351,38.7711771 205.875854,40.307564 205.875854,42.7477081 L205.875854,46.1819848 L201.899323,46.5434876 C198.193919,46.8146147 194.217388,47.8087475 194.217388,52.0564056 C194.217388,55.581058 197.380538,57.0270693 200.543687,57.0270693 C202.17045,57.0270693 204.972097,56.3944394 205.96623,54.4965496 C206.689235,56.213688 208.225622,57.0270693 210.033136,57.0270693 C212.654032,57.0270693 214.37117,55.4003066 214.37117,53.0505383 L213.557789,53.0505383 L213.557789,52.9601626 Z M205.785478,51.6045271 C205.695103,53.773544 204.520218,55.6714338 202.531953,55.6714338 C199.730306,55.6714338 199.63993,53.140914 199.63993,51.0622728 C199.63993,48.8932559 199.911058,47.4472447 202.531953,47.1761176 L205.785478,46.8146147 L205.785478,51.6045271 L205.785478,51.6045271 Z" id="Shape" fill="#8D734A"></path>
                    <path d="M153.006067,52.9601626 C153.006067,54.0446711 152.554189,55.2195552 151.560056,55.2195552 C150.83705,55.2195552 150.656299,54.4061739 150.656299,53.2312897 L150.656299,43.8322165 C150.656299,39.2230556 146.318265,38.0481714 142.160983,38.0481714 C138.907457,38.0481714 136.376938,39.3134313 135.473181,41.0305697 C135.202053,41.4824482 135.021302,42.0247024 135.021302,42.5669567 C135.021302,44.284095 136.376938,45.6397306 138.094076,45.6397306 C139.811214,45.6397306 141.16685,44.284095 141.16685,42.5669567 C141.16685,40.940194 139.991966,39.6749341 138.455579,39.4941827 C139.088209,38.9519285 140.805347,38.7711771 141.889856,38.7711771 C144.962629,38.7711771 145.324132,40.307564 145.324132,42.7477081 L145.324132,46.1819848 L141.347601,46.5434876 C137.642197,46.8146147 133.665666,47.8087475 133.665666,52.0564056 C133.665666,55.581058 136.828816,57.0270693 139.991966,57.0270693 C141.618728,57.0270693 144.420375,56.3944394 145.414508,54.4965496 C146.137514,56.213688 147.673901,57.0270693 149.481415,57.0270693 C152.10231,57.0270693 153.819448,55.4003066 153.819448,53.0505383 L153.006067,53.0505383 L153.006067,52.9601626 Z M145.324132,51.6045271 C145.233757,53.773544 144.058872,55.6714338 142.070607,55.6714338 C139.26896,55.6714338 139.178584,53.140914 139.178584,51.0622728 C139.178584,48.8932559 139.449711,47.4472447 142.070607,47.1761176 L145.324132,46.8146147 L145.324132,51.6045271 L145.324132,51.6045271 Z" id="Shape" fill="#8D734A"></path>
                    <path d="M112.879254,52.9601626 C112.879254,54.0446711 112.427376,55.2195552 111.433243,55.2195552 C110.710238,55.2195552 110.529486,54.4061739 110.529486,53.2312897 L110.529486,43.8322165 C110.529486,39.2230556 106.191452,38.0481714 102.03417,38.0481714 C98.7806446,38.0481714 96.2501249,39.3134313 95.3463679,41.0305697 C95.0752408,41.4824482 94.8944894,42.0247024 94.8944894,42.5669567 C94.8944894,44.284095 96.2501249,45.6397306 97.9672633,45.6397306 C99.6844017,45.6397306 101.040037,44.284095 101.040037,42.5669567 C101.040037,40.940194 99.8651531,39.6749341 98.2383904,39.4941827 C98.8710203,38.9519285 100.588159,38.7711771 101.672667,38.7711771 C104.745441,38.7711771 105.106944,40.307564 105.106944,42.7477081 L105.106944,46.1819848 L101.130413,46.5434876 C97.4250091,46.8146147 93.4484781,47.8087475 93.4484781,52.0564056 C93.4484781,55.581058 96.6116277,57.0270693 99.7747774,57.0270693 C101.40154,57.0270693 104.203187,56.3944394 105.19732,54.4965496 C105.920325,56.213688 107.456712,57.0270693 109.264226,57.0270693 C111.885122,57.0270693 113.60226,55.4003066 113.60226,53.0505383 L112.879254,53.0505383 L112.879254,52.9601626 Z M105.19732,51.6045271 C105.106944,53.773544 103.93206,55.6714338 102.03417,55.6714338 C99.2325232,55.6714338 99.1421474,53.140914 99.1421474,51.0622728 C99.1421474,48.8932559 99.4132746,47.4472447 102.03417,47.1761176 L105.19732,46.8146147 L105.19732,51.6045271 L105.19732,51.6045271 Z" id="Shape" fill="#8D734A"></path>
                    <polygon id="Shape" fill="#8D734A" points="21.4190419 27.9260926 21.4190419 28.6490982 25.4859486 28.6490982 18.0751408 48.8932559 10.4835817 28.6490982 14.4601127 28.6490982 14.4601127 27.9260926 0.813381337 27.9260926 0.813381337 28.6490982 3.70540387 28.6490982 14.369737 57.117445 15.9964996 57.117445 26.6608327 28.6490982 29.1913524 28.6490982 29.1913524 27.9260926"></polygon>
                    <path d="M26.7512084,55.6714338 L26.7512084,55.6714338 L26.7512084,39.3134313 L23.9495616,39.3134313 L23.9495616,38.5904257 L26.8415841,38.5904257 C28.4683468,38.5904257 31.5411207,38.5904257 32.3545021,37.5059172 L32.3545021,55.6714338 L35.1561489,55.6714338 L35.1561489,56.3944394 L26.7512084,56.3944394 L26.7512084,55.6714338 L26.7512084,55.6714338 Z" id="Shape" fill="#8D734A"></path>
                    <path d="M29.5528553,29.3721038 C31.3603693,29.3721038 32.8063806,30.8181151 32.8063806,32.6256292 C32.8063806,34.4331433 31.3603693,35.8791545 29.5528553,35.8791545 C27.7453412,35.8791545 26.2993299,34.4331433 26.2993299,32.6256292 C26.2993299,30.8181151 27.7453412,29.3721038 29.5528553,29.3721038" id="Shape" fill="#8D734A"></path>
                    <path d="M49.7066373,55.6714338 L49.7066373,55.6714338 L49.7066373,28.5587225 L46.9049905,28.5587225 L46.9049905,27.8357169 L49.4355102,27.8357169 C52.3275327,27.8357169 54.4965496,27.8357169 55.3099309,26.6608327 L55.3099309,41.843951 L55.4003066,41.843951 C56.4848151,39.4941827 59.1960862,38.0481714 61.9073573,38.0481714 C65.7935126,38.0481714 67.6010267,39.9460612 67.6010267,44.284095 L67.6010267,55.581058 L70.4026735,55.581058 L70.4026735,56.3040637 L61.997733,56.3040637 L61.997733,55.581058 L61.997733,42.9284595 C61.997733,40.1268126 60.8228489,39.5845584 59.6479647,39.5845584 C57.3885721,39.5845584 55.3099309,42.5669567 55.3099309,44.6455978 L55.3099309,55.7618095 L57.6596992,55.7618095 L57.6596992,56.4848151 L49.7066373,56.4848151 L49.7066373,55.6714338 L49.7066373,55.6714338 Z" id="Shape" fill="#8D734A"></path>
                    <path d="M87.1221788,38.5904257 L87.1221788,39.3134313 L84.6820348,39.3134313 L89.3815714,50.3392672 L92.0928425,44.1033436 C92.4543453,43.2899623 92.9965996,41.7535753 92.9965996,40.7594426 C92.9965996,39.8556855 92.4543453,39.3134313 90.8275827,39.3134313 L90.1949527,39.3134313 L90.1949527,38.5904257 L96.521252,38.5904257 L96.521252,39.3134313 L96.1597492,39.3134313 C95.4367436,39.3134313 94.8041136,39.9460612 94.2618594,41.1209454 L87.3029302,56.9366936 L86.2184218,56.9366936 L81.3381337,45.1878521 L76.1867186,56.9366936 L75.1022101,56.9366936 L67.8721538,39.3134313 L66.1550154,39.3134313 L66.1550154,38.5904257 L76.0059672,38.5904257 L76.0059672,39.3134313 L73.5658232,39.3134313 L78.1749841,50.5200186 L80.8862552,44.284095 L78.8979897,39.3134313 L77.1808513,39.3134313 L77.1808513,38.5904257 L87.1221788,38.5904257 L87.1221788,38.5904257 Z" id="Shape" fill="#8D734A"></path>
                    <path d="M114.054139,55.6714338 L114.054139,55.6714338 L114.054139,39.3134313 L111.252492,39.3134313 L111.252492,38.5904257 L114.144514,38.5904257 C115.771277,38.5904257 118.844051,38.5904257 119.657432,37.5059172 L119.657432,41.843951 L119.747808,41.843951 C120.832316,39.4941827 123.543588,38.0481714 126.254859,38.0481714 C130.141014,38.0481714 131.948528,39.9460612 131.948528,44.284095 L131.948528,55.581058 L134.750175,55.581058 L134.750175,56.3040637 L126.345234,56.3040637 L126.345234,55.581058 L126.345234,42.9284595 C126.345234,40.1268126 125.17035,39.5845584 123.995466,39.5845584 C121.736073,39.5845584 119.657432,42.5669567 119.657432,44.6455978 L119.657432,55.7618095 L122.007201,55.7618095 L122.007201,56.4848151 L114.054139,56.4848151 L114.054139,55.6714338 L114.054139,55.6714338 Z" id="Shape" fill="#8D734A"></path>
                    <path d="M154.180951,55.6714338 L154.180951,55.6714338 L154.180951,39.3134313 L151.379304,39.3134313 L151.379304,38.5904257 L154.271327,38.5904257 C155.89809,38.5904257 158.970864,38.5904257 159.784245,37.5059172 L159.784245,41.843951 L159.874621,41.843951 C160.959129,39.4941827 163.6704,38.0481714 166.381671,38.0481714 C170.267827,38.0481714 172.075341,39.9460612 172.075341,44.284095 L172.075341,55.581058 L174.876988,55.581058 L174.876988,56.3040637 L166.472047,56.3040637 L166.472047,55.581058 L166.472047,42.9284595 C166.472047,40.1268126 165.297163,39.5845584 164.122279,39.5845584 C161.862886,39.5845584 159.784245,42.5669567 159.784245,44.6455978 L159.784245,55.7618095 L162.134013,55.7618095 L162.134013,56.4848151 L154.180951,56.4848151 L154.180951,55.6714338 L154.180951,55.6714338 Z" id="Shape" fill="#8D734A"></path>
                    <path d="M183.733807,27.9260926 L186.896956,27.9260926 C189.788979,27.9260926 191.957996,27.9260926 192.771377,26.6608327 L192.771377,55.6714338 L195.573024,55.6714338 L195.573024,56.3944394 L192.771377,56.3944394 L187.077708,56.3944394 L187.077708,53.9542954 L186.987332,53.9542954 C185.993199,55.7618095 184.547188,56.9366936 181.835917,56.9366936 C177.76901,56.9366936 173.250225,53.5024169 173.250225,47.8991232 C173.250225,42.7477081 176.413374,38.1385471 181.926292,38.1385471 C184.456812,38.1385471 185.993199,39.3134313 186.987332,41.3016968 L187.077708,41.3016968 L187.077708,28.6490982 L183.733807,28.6490982 L183.733807,27.9260926 L183.733807,27.9260926 Z M187.077708,44.0129679 C187.077708,41.7535753 185.450945,39.1326799 182.739674,39.1326799 C180.118778,39.1326799 179.486148,41.3920725 179.486148,44.1937193 L179.486148,50.0681401 C179.486148,54.2254225 180.480281,56.0329366 182.920425,56.0329366 C185.631696,56.0329366 187.168083,53.5024169 187.168083,51.1526485 L187.168083,44.0129679 L187.077708,44.0129679 Z" id="Shape" fill="#8D734A"></path>
                    <path d="M40.7594426,44.3744707 C38.50005,44.0129679 37.0540387,43.6514651 37.0540387,41.9343267 C37.0540387,40.0364369 38.6808014,38.8615528 40.940194,38.8615528 C44.0129679,38.8615528 45.6397306,41.2113211 46.6338633,43.9225922 L47.2664933,43.9225922 L46.9953662,38.1385471 L46.3627362,38.1385471 C46.3627362,38.5904257 45.9108577,39.0423042 45.0974764,39.0423042 C43.8322165,39.0423042 42.7477081,38.1385471 40.8498183,38.1385471 C36.7829116,38.1385471 34.7946461,41.5728239 34.7946461,44.1937193 C34.7946461,49.4355102 38.7711771,49.8873887 41.843951,50.2488915 C44.7359736,50.6103943 46.0012334,50.8815214 46.0012334,52.7794112 C46.0012334,54.9484281 44.1937193,56.3040637 42.0247024,56.3040637 C38.9519285,56.3040637 36.4214088,53.140914 35.6984031,50.2488915 L34.9753975,50.2488915 L34.9753975,56.5751908 L35.9695302,56.5751908 C36.2406574,56.213688 36.7829116,56.1233123 37.3251658,56.1233123 C38.4096743,56.1233123 39.6749341,57.117445 41.9343267,57.117445 C45.820482,57.117445 48.4413774,53.773544 48.4413774,50.4296429 C48.5317531,45.3686035 45.0974764,45.0071007 40.7594426,44.3744707" id="Shape" fill="#8D734A"></path>
                    <path d="M114.144514,21.690169 L114.144514,21.690169 L114.144514,1.53638697 L112.065873,1.53638697 L112.065873,0.994132746 L113.963763,0.994132746 C116.13278,0.994132746 117.759543,0.994132746 118.301797,0.0903757041 L118.301797,11.3873387 L118.392172,11.3873387 C119.205554,9.67020034 121.193819,8.58569189 123.182085,8.58569189 C126.074107,8.58569189 127.429743,10.0317032 127.429743,13.2852285 L127.429743,21.690169 L129.508384,21.690169 L129.508384,22.2324232 L123.27246,22.2324232 L123.27246,21.690169 L123.27246,12.2007201 C123.27246,10.1220789 122.368703,9.76057605 121.464946,9.76057605 C119.747808,9.76057605 118.301797,11.9295929 118.301797,13.4659799 L118.301797,21.690169 L120.109311,21.690169 L120.109311,22.2324232 L114.144514,22.2324232 L114.144514,21.690169 L114.144514,21.690169 Z" id="Shape" fill="#8D734A"></path>
                    <path d="M51.6045271,9.48944894 L49.5258859,9.48944894 L49.5258859,8.94719471 L51.6045271,8.94719471 C52.8697869,8.94719471 55.1291795,8.94719471 55.7618095,8.13381337 L55.7618095,11.2065873 L55.8521852,11.2065873 C56.3944394,9.67020034 57.9308264,8.40494049 59.8287161,8.40494049 C61.2747274,8.40494049 62.1784845,9.30869753 62.1784845,10.7547088 C62.1784845,11.9295929 61.3651031,12.9237257 59.9190918,12.9237257 C58.7442077,12.9237257 57.8404507,12.1103444 57.8404507,10.9354602 C57.8404507,10.2124546 58.0212021,9.67020034 58.5634563,9.12794612 L58.4730806,9.12794612 C56.5751908,9.94132746 55.8521852,11.5680901 55.8521852,13.9178584 L55.8521852,21.690169 L58.653832,21.690169 L58.653832,22.2324232 L51.6949028,22.2324232 L51.6949028,9.48944894 L51.6045271,9.48944894 Z" id="Shape" fill="#8D734A"></path>
                    <path d="M75.7348401,9.48944894 L73.6561989,9.48944894 L73.6561989,8.94719471 L75.8252158,8.94719471 C77.0904756,8.94719471 79.3498682,8.94719471 79.9824982,8.13381337 L79.9824982,11.3873387 L80.0728739,11.3873387 C80.8862552,9.67020034 82.8745207,8.58569189 84.9531619,8.58569189 C86.6703003,8.58569189 88.297063,9.48944894 88.8393172,11.3873387 C89.8334499,9.57982464 91.640964,8.58569189 93.7196052,8.58569189 C96.2501249,8.58569189 97.6961362,10.0317032 97.6961362,13.2852285 L97.6961362,21.690169 L99.7747774,21.690169 L99.7747774,22.2324232 L93.5388538,22.2324232 L93.5388538,21.690169 L93.5388538,12.3814715 C93.5388538,10.5739574 93.2677267,9.67020034 92.0928425,9.67020034 C90.1949527,9.67020034 88.9296929,12.0199687 88.9296929,13.4659799 L88.9296929,21.690169 L90.5564556,21.690169 L90.5564556,22.2324232 L84.6820348,22.2324232 L84.6820348,21.690169 L84.6820348,12.3814715 C84.6820348,10.5739574 84.4109077,9.67020034 83.2360235,9.67020034 C81.3381337,9.67020034 80.0728739,12.0199687 80.0728739,13.4659799 L80.0728739,21.690169 L81.6092608,21.690169 L81.6092608,22.2324232 L75.8252158,22.2324232 L75.8252158,9.48944894 L75.7348401,9.48944894 Z" id="Shape" fill="#8D734A"></path>
                    <path d="M144.058872,9.48944894 L141.980231,9.48944894 L141.980231,8.94719471 L144.149248,8.94719471 C145.414508,8.94719471 147.673901,8.94719471 148.306531,8.13381337 L148.306531,11.3873387 L148.396906,11.3873387 C149.210288,9.67020034 151.198553,8.58569189 153.277194,8.58569189 C154.994333,8.58569189 156.621095,9.48944894 157.16335,11.3873387 C158.157482,9.57982464 159.964996,8.58569189 162.043638,8.58569189 C164.574157,8.58569189 166.020169,10.0317032 166.020169,13.2852285 L166.020169,21.690169 L168.09881,21.690169 L168.09881,22.2324232 L161.862886,22.2324232 L161.862886,21.690169 L161.862886,12.3814715 C161.862886,10.5739574 161.591759,9.67020034 160.416875,9.67020034 C158.518985,9.67020034 157.253725,12.0199687 157.253725,13.4659799 L157.253725,21.690169 L158.880488,21.690169 L158.880488,22.2324232 L153.006067,22.2324232 L153.006067,21.690169 L153.006067,12.3814715 C153.006067,10.5739574 152.73494,9.67020034 151.560056,9.67020034 C149.662166,9.67020034 148.396906,12.0199687 148.396906,13.4659799 L148.396906,21.690169 L149.933293,21.690169 L149.933293,22.2324232 L144.149248,22.2324232 L144.149248,9.48944894 L144.058872,9.48944894 Z" id="Shape" fill="#8D734A"></path>
                    <path d="M50.70077,19.7019035 C50.70077,20.5152848 50.3392672,21.4190419 49.6162616,21.4190419 C49.0740074,21.4190419 48.8932559,20.8767877 48.8932559,19.8826549 L48.8932559,12.9237257 C48.8932559,9.48944894 45.6397306,8.58569189 42.5669567,8.58569189 C40.1268126,8.58569189 38.2289229,9.57982464 37.5962929,10.7547088 C37.4155415,11.1162116 37.2347901,11.4777144 37.2347901,11.9295929 C37.2347901,13.1948528 38.2289229,14.1889856 39.4941827,14.1889856 C40.7594426,14.1889856 41.7535753,13.1948528 41.7535753,11.9295929 C41.7535753,10.7547088 40.8498183,9.76057605 39.6749341,9.67020034 C40.1268126,9.30869753 41.3920725,9.12794612 42.2054538,9.12794612 C44.4648464,9.12794612 44.7359736,10.2124546 44.7359736,12.0199687 L44.7359736,14.5504884 L41.7535753,14.8216155 C39.0423042,15.0023669 35.9695302,15.7253725 35.9695302,18.8885222 C35.9695302,21.5094176 38.3192986,22.593926 40.6690669,22.593926 C41.843951,22.593926 43.9225922,22.1420475 44.7359736,20.6960362 C45.2782278,21.9612961 46.3627362,22.593926 47.7183718,22.593926 C49.7066373,22.593926 50.9718971,21.4190419 50.9718971,19.6115278 L50.70077,19.6115278 L50.70077,19.7019035 Z M45.0071007,18.7077708 C44.916725,20.3345334 44.0129679,21.7805447 42.6573324,21.7805447 C40.5786912,21.7805447 40.4883155,19.8826549 40.4883155,18.3462679 C40.4883155,16.7195053 40.6690669,15.7253725 42.6573324,15.4542454 L45.0071007,15.1831183 L45.0071007,18.7077708 L45.0071007,18.7077708 Z" id="Shape" fill="#8D734A"></path>
                    <path d="M74.7407073,19.7019035 C74.7407073,20.5152848 74.3792045,21.4190419 73.6561989,21.4190419 C73.1139447,21.4190419 72.9331932,20.8767877 72.9331932,19.8826549 L72.9331932,12.9237257 C72.9331932,9.48944894 69.6796679,8.58569189 66.606894,8.58569189 C64.1667499,8.58569189 62.2688602,9.57982464 61.6362302,10.7547088 C61.4554788,11.1162116 61.2747274,11.4777144 61.2747274,11.9295929 C61.2747274,13.1948528 62.2688602,14.1889856 63.53412,14.1889856 C64.7993799,14.1889856 65.7935126,13.1948528 65.7935126,11.9295929 C65.7935126,10.7547088 64.8897556,9.76057605 63.7148714,9.67020034 C64.1667499,9.30869753 65.4320098,9.12794612 66.2453911,9.12794612 C68.5047837,9.12794612 68.7759109,10.2124546 68.7759109,12.0199687 L68.7759109,14.5504884 L65.974264,14.8216155 C63.2629929,15.0023669 60.190219,15.7253725 60.190219,18.8885222 C60.190219,21.5094176 62.5399873,22.593926 64.8897556,22.593926 C66.0646397,22.593926 68.1432809,22.1420475 68.9566623,20.6960362 C69.4989165,21.9612961 70.5834249,22.593926 71.9390605,22.593926 C73.927326,22.593926 75.1925858,21.4190419 75.1925858,19.6115278 L74.7407073,19.6115278 L74.7407073,19.7019035 Z M68.9566623,18.7077708 C68.8662866,20.3345334 67.9625295,21.7805447 66.606894,21.7805447 C64.5282528,21.7805447 64.4378771,19.8826549 64.4378771,18.3462679 C64.4378771,16.7195053 64.6186285,15.7253725 66.606894,15.4542454 L68.9566623,15.1831183 L68.9566623,18.7077708 L68.9566623,18.7077708 Z" id="Shape" fill="#8D734A"></path>
                    <path d="M143.06474,19.7019035 C143.06474,20.5152848 142.703237,21.4190419 141.980231,21.4190419 C141.437977,21.4190419 141.257226,20.8767877 141.257226,19.8826549 L141.257226,12.9237257 C141.257226,9.48944894 138.0037,8.58569189 134.930926,8.58569189 C132.490782,8.58569189 130.592892,9.57982464 129.960263,10.7547088 C129.779511,11.1162116 129.59876,11.4777144 129.59876,11.9295929 C129.59876,13.1948528 130.592892,14.1889856 131.858152,14.1889856 C133.123412,14.1889856 134.117545,13.1948528 134.117545,11.9295929 C134.117545,10.7547088 133.213788,9.76057605 132.038904,9.67020034 C132.490782,9.30869753 133.756042,9.12794612 134.569423,9.12794612 C136.828816,9.12794612 137.099943,10.2124546 137.099943,12.0199687 L137.099943,14.5504884 L134.117545,14.8216155 C131.406274,15.0023669 128.3335,15.7253725 128.3335,18.8885222 C128.3335,21.5094176 130.683268,22.593926 133.033037,22.593926 C134.207921,22.593926 136.286562,22.1420475 137.099943,20.6960362 C137.642197,21.9612961 138.726706,22.593926 140.082341,22.593926 C142.070607,22.593926 143.335867,21.4190419 143.335867,19.6115278 L143.06474,19.6115278 L143.06474,19.7019035 Z M137.37107,18.7077708 C137.280695,20.3345334 136.376938,21.7805447 135.021302,21.7805447 C132.942661,21.7805447 132.852285,19.8826549 132.852285,18.3462679 C132.852285,16.7195053 133.033037,15.7253725 135.021302,15.4542454 L137.37107,15.1831183 L137.37107,18.7077708 L137.37107,18.7077708 Z" id="Shape" fill="#8D734A"></path>
                    <path d="M192.319498,19.7019035 C192.319498,20.5152848 191.957996,21.4190419 191.23499,21.4190419 C190.692736,21.4190419 190.511984,20.8767877 190.511984,19.8826549 L190.511984,12.9237257 C190.511984,9.48944894 187.258459,8.58569189 184.185685,8.58569189 C181.745541,8.58569189 179.847651,9.57982464 179.215021,10.7547088 C179.03427,11.1162116 178.853519,11.4777144 178.853519,11.9295929 C178.853519,13.1948528 179.847651,14.1889856 181.112911,14.1889856 C182.378171,14.1889856 183.372304,13.1948528 183.372304,11.9295929 C183.372304,10.7547088 182.468547,9.76057605 181.293663,9.67020034 C181.745541,9.30869753 183.010801,9.12794612 183.824182,9.12794612 C186.083575,9.12794612 186.354702,10.2124546 186.354702,12.0199687 L186.354702,14.5504884 L183.372304,14.8216155 C180.661033,15.0023669 177.588259,15.7253725 177.588259,18.8885222 C177.588259,21.5094176 179.938027,22.593926 182.287795,22.593926 C183.462679,22.593926 185.541321,22.1420475 186.354702,20.6960362 C186.896956,21.9612961 187.981465,22.593926 189.3371,22.593926 C191.325366,22.593926 192.590626,21.4190419 192.590626,19.6115278 L192.319498,19.6115278 L192.319498,19.7019035 Z M186.625829,18.7077708 C186.535453,20.3345334 185.631696,21.7805447 184.276061,21.7805447 C182.19742,21.7805447 182.107044,19.8826549 182.107044,18.3462679 C182.107044,16.7195053 182.287795,15.7253725 184.276061,15.4542454 L186.625829,15.1831183 L186.625829,18.7077708 L186.625829,18.7077708 Z" id="Shape" fill="#8D734A"></path>
                    <path d="M113.150382,19.7019035 C113.150382,20.5152848 112.788879,21.4190419 112.065873,21.4190419 C111.523619,21.4190419 111.342868,20.8767877 111.342868,19.8826549 L111.342868,12.9237257 C111.342868,9.48944894 108.089342,8.58569189 105.016568,8.58569189 C102.576424,8.58569189 100.678534,9.57982464 100.045904,10.7547088 C99.8651531,11.1162116 99.6844017,11.4777144 99.6844017,11.9295929 C99.6844017,13.1948528 100.678534,14.1889856 101.943794,14.1889856 C103.209054,14.1889856 104.203187,13.1948528 104.203187,11.9295929 C104.203187,10.7547088 103.29943,9.76057605 102.124546,9.67020034 C102.576424,9.30869753 103.841684,9.12794612 104.655065,9.12794612 C106.914458,9.12794612 107.185585,10.2124546 107.185585,12.0199687 L107.185585,14.5504884 L104.203187,14.8216155 C101.491916,15.0023669 98.4191418,15.7253725 98.4191418,18.8885222 C98.4191418,21.5094176 100.76891,22.593926 103.118678,22.593926 C104.293563,22.593926 106.372204,22.1420475 107.185585,20.6960362 C107.727839,21.9612961 108.812348,22.593926 110.167983,22.593926 C112.156249,22.593926 113.421509,21.4190419 113.421509,19.6115278 L113.150382,19.6115278 L113.150382,19.7019035 Z M107.456712,18.7077708 C107.366337,20.3345334 106.462579,21.7805447 105.106944,21.7805447 C103.028303,21.7805447 102.937927,19.8826549 102.937927,18.3462679 C102.937927,16.7195053 103.118678,15.7253725 105.106944,15.4542454 L107.456712,15.1831183 L107.456712,18.7077708 L107.456712,18.7077708 Z" id="Shape" fill="#8D734A"></path>
                    <path d="M22.2324232,21.690169 L24.6725672,21.690169 L24.6725672,1.44601127 L22.2324232,1.44601127 L22.2324232,0.903757041 L32.2641264,0.903757041 C37.5962929,0.903757041 40.0364369,2.89202253 40.0364369,6.5974264 C40.0364369,10.3028303 36.4214088,12.6525986 31.9026236,12.6525986 C30.6373637,12.6525986 30.3662366,12.6525986 29.4624796,12.5622229 L29.4624796,21.690169 L32.4448778,21.690169 L32.4448778,22.2324232 L22.2324232,22.2324232 L22.2324232,21.690169 L22.2324232,21.690169 Z M29.3721038,12.0199687 C29.7336067,12.1103444 29.9143581,12.2007201 30.3662366,12.2007201 C33.9812648,12.2007201 34.8850218,10.4835817 34.8850218,6.86855352 C34.8850218,2.98239824 34.2523919,1.53638697 30.9988665,1.53638697 L29.3721038,1.53638697 L29.3721038,12.0199687 L29.3721038,12.0199687 Z" id="Shape" fill="#8D734A"></path>
                    <path d="M167.46618,17.5328866 L168.008434,17.5328866 C168.550688,19.7019035 170.448578,22.0516718 172.707971,22.0516718 C174.334733,22.0516718 175.690369,21.0575391 175.690369,19.4307764 C175.690369,18.0751408 174.786612,17.8040137 172.617595,17.5328866 C170.358202,17.2617595 167.375804,16.9002567 167.375804,13.0141014 C167.375804,11.1162116 168.821815,8.49531619 171.894589,8.49531619 C173.250225,8.49531619 174.063606,9.12794612 175.057739,9.12794612 C175.599993,9.12794612 175.961496,8.85681901 175.961496,8.49531619 L176.413374,8.49531619 L176.594126,12.83335 L176.142247,12.83335 C175.419242,10.8450845 174.153982,9.03757041 171.894589,9.03757041 C170.267827,9.03757041 169.002567,9.85095175 169.002567,11.296963 C169.002567,12.6525986 170.087075,12.9237257 171.804214,13.1044771 C175.057739,13.5563556 177.588259,13.8274827 177.588259,17.5328866 C177.588259,19.9730306 175.599993,22.5035503 172.707971,22.5035503 C170.990832,22.5035503 170.087075,21.7805447 169.273694,21.7805447 C168.641064,21.7805447 168.189185,22.0516718 168.008434,22.5035503 L167.46618,22.5035503 L167.46618,17.5328866 L167.46618,17.5328866 Z" id="Shape" fill="#8D734A"></path>
                </g>
            </g>
            <g id="Group" transform="translate(1.807514, 294.624796)" fill="#FFFFFF">
                <polygon id="Shape" points="0.542254225 24.4014401 0.542254225 1.44601127 6.14554788 1.44601127 6.14554788 24.4014401"></polygon>
                <polygon id="Shape" points="24.130313 24.4014401 14.9119912 9.39907323 14.8216155 9.39907323 14.9119912 24.4014401 9.57982464 24.4014401 9.57982464 1.44601127 15.9061239 1.44601127 25.1244458 16.3580025 25.2148215 16.3580025 25.1244458 1.44601127 30.4566123 1.44601127 30.4566123 24.4014401"></polygon>
                <path d="M45.9108577,7.41080774 C45.4589792,6.77817781 44.8263493,6.32629929 44.0129679,5.96479647 C43.2899623,5.60329366 42.4765809,5.42254225 41.7535753,5.42254225 C41.3920725,5.42254225 41.0305697,5.42254225 40.6690669,5.51291795 C40.307564,5.60329366 39.9460612,5.69366936 39.6749341,5.87442077 C39.403807,6.05517218 39.1326799,6.32629929 38.9519285,6.5974264 C38.7711771,6.86855352 38.6808014,7.23005633 38.6808014,7.68193485 C38.6808014,8.04343767 38.7711771,8.40494049 38.9519285,8.6760676 C39.1326799,8.94719471 39.3134313,9.12794612 39.6749341,9.39907323 C39.9460612,9.57982464 40.3979398,9.76057605 40.7594426,9.94132746 C41.2113211,10.1220789 41.6631996,10.3028303 42.2054538,10.4835817 C43.0188352,10.7547088 43.8322165,11.0258359 44.6455978,11.296963 C45.4589792,11.5680901 46.2723605,12.0199687 46.9049905,12.5622229 C47.6279961,13.1044771 48.1702503,13.737107 48.6221288,14.4601127 C49.0740074,15.1831183 49.3451345,16.177251 49.3451345,17.3521352 C49.3451345,18.7077708 49.0740074,19.7922792 48.6221288,20.786412 C48.1702503,21.7805447 47.4472447,22.5035503 46.6338633,23.1361803 C45.820482,23.7688102 44.916725,24.2206887 43.8322165,24.4918158 C42.7477081,24.7629429 41.6631996,24.9436943 40.5786912,24.9436943 C38.9519285,24.9436943 37.3251658,24.6725672 35.7887788,24.130313 C34.2523919,23.5880588 32.987132,22.7746774 31.9929993,21.690169 L35.6080274,17.9847651 C36.1502817,18.7077708 36.8732873,19.250025 37.86742,19.7019035 C38.7711771,20.153782 39.6749341,20.4249091 40.5786912,20.4249091 C41.0305697,20.4249091 41.3920725,20.4249091 41.7535753,20.3345334 C42.1150781,20.2441577 42.4765809,20.0634063 42.7477081,19.8826549 C43.0188352,19.7019035 43.2899623,19.4307764 43.4707137,19.0692736 C43.6514651,18.7077708 43.7418408,18.3462679 43.7418408,17.8943894 C43.7418408,17.4425109 43.6514651,17.0810081 43.380338,16.809881 C43.1995866,16.5387539 42.8380838,16.2676267 42.4765809,15.9964996 C42.1150781,15.7253725 41.5728239,15.5446211 41.0305697,15.273494 C40.3979398,15.0927426 39.7653098,14.8216155 39.0423042,14.6408641 C38.3192986,14.369737 37.5962929,14.0986098 36.8732873,13.8274827 C36.1502817,13.4659799 35.5176517,13.1044771 34.9753975,12.5622229 C34.4331433,12.0199687 33.9812648,11.4777144 33.6197619,10.7547088 C33.2582591,10.0317032 33.0775077,9.12794612 33.0775077,8.13381337 C33.0775077,6.86855352 33.3486348,5.78404507 33.8908891,4.88028802 C34.4331433,3.97653098 35.0657732,3.25352535 35.9695302,2.62089542 C36.7829116,2.0786412 37.7770443,1.62676267 38.8615528,1.35563556 C39.9460612,1.08450845 41.0305697,0.994132746 42.0247024,0.994132746 C43.2899623,0.994132746 44.6455978,1.26525986 46.0012334,1.71713838 C47.356869,2.1690169 48.5317531,2.89202253 49.5258859,3.79577957 L45.9108577,7.41080774 L45.9108577,7.41080774 Z" id="Shape"></path>
                <path d="M69.047038,8.58569189 C69.047038,9.94132746 68.7759109,11.0258359 68.3240323,11.9295929 C67.8721538,12.83335 67.1491482,13.5563556 66.3357668,14.1889856 C65.5223855,14.7312398 64.5282528,15.1831183 63.4437443,15.4542454 C62.3592359,15.7253725 61.1843517,15.8157482 60.0094676,15.8157482 L57.2981964,15.8157482 L57.2981964,24.4918158 L51.7852785,24.4918158 L51.7852785,1.53638697 L60.190219,1.53638697 C61.4554788,1.53638697 62.630363,1.62676267 63.7148714,1.89788979 C64.7993799,2.1690169 65.7935126,2.53051972 66.606894,3.07277394 C67.4202753,3.61502817 68.0529052,4.3380338 68.5047837,5.24179084 C68.7759109,6.14554788 69.047038,7.23005633 69.047038,8.58569189 L69.047038,8.58569189 Z M63.53412,8.58569189 C63.53412,8.04343767 63.4437443,7.59155915 63.1726172,7.23005633 C62.9918658,6.86855352 62.630363,6.5974264 62.2688602,6.41667499 C61.9073573,6.23592359 61.4554788,6.05517218 61.0036003,6.05517218 C60.5517218,5.96479647 60.0998433,5.96479647 59.557589,5.96479647 L57.117445,5.96479647 L57.117445,11.3873387 L59.4672133,11.3873387 C60.0094676,11.3873387 60.4613461,11.3873387 60.9132246,11.296963 C61.3651031,11.2065873 61.8169816,11.0258359 62.1784845,10.8450845 C62.5399873,10.6643331 62.8111144,10.3028303 63.0822415,10.0317032 C63.4437443,9.57982464 63.53412,9.12794612 63.53412,8.58569189 L63.53412,8.58569189 Z" id="Shape"></path>
                <polygon id="Shape" points="71.1256792 24.4014401 71.1256792 1.44601127 76.7289728 1.44601127 76.7289728 24.4014401"></polygon>
                <path d="M92.3639696,24.4014401 L87.3933059,15.273494 L85.4954161,15.273494 L85.4954161,24.4014401 L80.0728739,24.4014401 L80.0728739,1.44601127 L88.8393172,1.44601127 C89.9238256,1.44601127 91.0083341,1.53638697 92.0928425,1.80751408 C93.177351,2.0786412 94.081108,2.44014401 94.8944894,2.98239824 C95.7078707,3.52465246 96.4308763,4.24765809 96.8827548,5.15141514 C97.3346334,6.05517218 97.6057605,7.13968063 97.6057605,8.49531619 C97.6057605,10.0317032 97.153882,11.3873387 96.3405006,12.3814715 C95.5271193,13.4659799 94.3522351,14.1889856 92.8158482,14.6408641 L98.7806446,24.4918158 L92.3639696,24.4918158 L92.3639696,24.4014401 Z M92.0928425,8.49531619 C92.0928425,7.95306196 92.0024668,7.50118344 91.7313397,7.13968063 C91.4602126,6.77817781 91.1890855,6.5070507 90.8275827,6.32629929 C90.4660798,6.14554788 90.104577,6.05517218 89.6526985,5.96479647 C89.20082,5.87442077 88.7489415,5.87442077 88.3874387,5.87442077 L85.4050404,5.87442077 L85.4050404,11.2065873 L88.0259358,11.2065873 C88.4778144,11.2065873 88.9296929,11.2065873 89.3815714,11.1162116 C89.8334499,11.0258359 90.2853284,10.9354602 90.6468313,10.7547088 C91.0083341,10.5739574 91.3698369,10.3028303 91.640964,9.94132746 C92.0024668,9.57982464 92.0928425,9.12794612 92.0928425,8.49531619 L92.0928425,8.49531619 Z" id="Shape"></path>
                <path d="M115.771277,24.4014401 L113.963763,19.8826549 L105.106944,19.8826549 L103.389806,24.4014401 L97.3346334,24.4014401 L106.914458,1.44601127 L112.246625,1.44601127 L121.736073,24.4014401 L115.771277,24.4014401 L115.771277,24.4014401 Z M109.625729,7.59155915 L106.733707,15.4542454 L112.517752,15.4542454 L109.625729,7.59155915 L109.625729,7.59155915 Z" id="Shape"></path>
                <polygon id="Shape" points="130.412141 6.23592359 130.412141 24.4014401 124.899223 24.4014401 124.899223 6.23592359 118.392172 6.23592359 118.392172 1.53638697 136.919192 1.53638697 136.919192 6.23592359"></polygon>
                <polygon id="Shape" points="138.094076 24.4014401 138.094076 1.44601127 143.69737 1.44601127 143.69737 24.4014401"></polygon>
                <path d="M170.990832,12.83335 C170.990832,14.6408641 170.719705,16.2676267 170.087075,17.8040137 C169.454445,19.3404007 168.550688,20.6056605 167.46618,21.690169 C166.381671,22.7746774 165.026036,23.5880588 163.489649,24.130313 C161.953262,24.6725672 160.326499,25.03407 158.518985,25.03407 C156.711471,25.03407 155.084708,24.7629429 153.548321,24.130313 C152.011934,23.5880588 150.746675,22.6843017 149.57179,21.690169 C148.487282,20.6056605 147.583525,19.3404007 146.950895,17.8040137 C146.318265,16.2676267 146.047138,14.6408641 146.047138,12.83335 C146.047138,11.0258359 146.318265,9.30869753 146.950895,7.86268626 C147.583525,6.41667499 148.487282,5.15141514 149.57179,4.06690669 C150.656299,3.07277394 152.011934,2.2593926 153.548321,1.62676267 C155.084708,1.08450845 156.711471,0.813381337 158.518985,0.813381337 C160.326499,0.813381337 161.953262,1.08450845 163.489649,1.62676267 C165.026036,2.1690169 166.381671,2.98239824 167.46618,4.06690669 C168.550688,5.15141514 169.454445,6.32629929 170.087075,7.86268626 C170.719705,9.39907323 170.990832,11.0258359 170.990832,12.83335 L170.990832,12.83335 Z M165.116411,12.83335 C165.116411,11.8392172 164.93566,10.9354602 164.664533,10.0317032 C164.30303,9.12794612 163.851152,8.40494049 163.308897,7.77231056 C162.766643,7.13968063 162.043638,6.68780211 161.230256,6.32629929 C160.416875,5.96479647 159.513118,5.78404507 158.518985,5.78404507 C157.524852,5.78404507 156.621095,5.96479647 155.89809,6.32629929 C155.084708,6.68780211 154.452078,7.13968063 153.819448,7.77231056 C153.277194,8.40494049 152.825316,9.12794612 152.463813,10.0317032 C152.192686,10.9354602 152.011934,11.8392172 152.011934,12.83335 C152.011934,13.8274827 152.192686,14.8216155 152.463813,15.7253725 C152.825316,16.6291296 153.277194,17.3521352 153.819448,17.9847651 C154.361703,18.6173951 155.084708,19.0692736 155.89809,19.4307764 C156.711471,19.7922792 157.615228,19.9730306 158.518985,19.9730306 C159.513118,19.9730306 160.416875,19.7922792 161.13988,19.4307764 C161.953262,19.0692736 162.585892,18.6173951 163.218522,17.9847651 C163.760776,17.3521352 164.212654,16.6291296 164.574157,15.7253725 C164.93566,14.8216155 165.116411,13.9178584 165.116411,12.83335 L165.116411,12.83335 Z" id="Shape"></path>
                <polygon id="Shape" points="187.981465 24.4014401 178.763143 9.39907323 178.672767 9.39907323 178.763143 24.4014401 173.430976 24.4014401 173.430976 1.44601127 179.757276 1.44601127 188.975597 16.3580025 189.065973 16.3580025 188.975597 1.44601127 194.307764 1.44601127 194.307764 24.4014401"></polygon>
                <path d="M209.762009,7.41080774 C209.310131,6.77817781 208.677501,6.32629929 207.86412,5.96479647 C207.050738,5.60329366 206.327733,5.42254225 205.604727,5.42254225 C205.243224,5.42254225 204.881721,5.42254225 204.520218,5.51291795 C204.158716,5.60329366 203.797213,5.69366936 203.526086,5.87442077 C203.254959,6.05517218 202.983832,6.32629929 202.80308,6.5974264 C202.622329,6.86855352 202.531953,7.23005633 202.531953,7.68193485 C202.531953,8.04343767 202.622329,8.40494049 202.80308,8.6760676 C202.983832,8.94719471 203.164583,9.12794612 203.526086,9.39907323 C203.797213,9.57982464 204.249091,9.76057605 204.610594,9.94132746 C204.972097,10.1220789 205.514351,10.3028303 206.056605,10.4835817 C206.869987,10.7547088 207.683368,11.0258359 208.496749,11.296963 C209.310131,11.5680901 210.123512,12.0199687 210.756142,12.5622229 C211.479148,13.1044771 212.021402,13.737107 212.47328,14.4601127 C212.925159,15.1831183 213.196286,16.177251 213.196286,17.3521352 C213.196286,18.7077708 212.925159,19.7922792 212.47328,20.786412 C212.021402,21.7805447 211.298396,22.5035503 210.485015,23.1361803 C209.671634,23.7688102 208.767877,24.2206887 207.683368,24.4918158 C206.59886,24.7629429 205.514351,24.9436943 204.429843,24.9436943 C202.80308,24.9436943 201.176317,24.6725672 199.63993,24.130313 C198.103543,23.5880588 196.838284,22.7746774 195.844151,21.690169 L199.459179,17.9847651 C200.001433,18.7077708 200.724439,19.250025 201.718572,19.7019035 C202.622329,20.153782 203.526086,20.4249091 204.429843,20.4249091 C204.881721,20.4249091 205.243224,20.4249091 205.604727,20.3345334 C205.96623,20.2441577 206.327733,20.0634063 206.59886,19.8826549 C206.869987,19.7019035 207.141114,19.4307764 207.321865,19.0692736 C207.502617,18.7077708 207.592992,18.3462679 207.592992,17.8943894 C207.592992,17.4425109 207.502617,17.0810081 207.23149,16.809881 C207.050738,16.5387539 206.689235,16.2676267 206.327733,15.9964996 C205.96623,15.7253725 205.423976,15.5446211 204.881721,15.273494 C204.249091,15.0927426 203.616461,14.8216155 202.893456,14.6408641 C202.17045,14.369737 201.447445,14.0986098 200.724439,13.8274827 C200.001433,13.4659799 199.368803,13.1044771 198.826549,12.5622229 C198.284295,12.0199687 197.832416,11.4777144 197.470914,10.7547088 C197.109411,10.0317032 196.928659,9.12794612 196.928659,8.13381337 C196.928659,6.86855352 197.199786,5.78404507 197.742041,4.88028802 C198.284295,3.97653098 198.916925,3.25352535 199.820682,2.62089542 C200.634063,2.0786412 201.628196,1.62676267 202.712704,1.35563556 C203.797213,1.08450845 204.881721,0.994132746 205.875854,0.994132746 C207.141114,0.994132746 208.496749,1.26525986 209.852385,1.71713838 C211.208021,2.1690169 212.382905,2.89202253 213.377037,3.79577957 L209.762009,7.41080774 L209.762009,7.41080774 Z" id="Shape"></path>
            </g>
        </g>
    </g>
</svg>