<?xml version="1.0" encoding="utf-8"?>
<!-- Generator: Adobe Illustrator 20.1.0, SVG Export Plug-In . SVG Version: 6.00 Build 0)  -->
<svg version="1.1" id="Layer_1" xmlns="http://www.w3.org/2000/svg" xmlns:xlink="http://www.w3.org/1999/xlink" x="0px" y="0px"
	 viewBox="0 0 400 108" style="enable-background:new 0 0 400 108;" xml:space="preserve">
<style type="text/css">
	.st0{opacity:0.2;}
	.st1{fill:#FFFFFF;}
</style>
<g class="st0">
	<g>
		<g>
			<g>
				<path class="st1" d="M141.9,77.3c0.4,0,0.8-0.4,0.8-0.8c0-0.5-0.4-0.8-0.8-0.8c-0.5,0-0.8,0.4-0.8,0.8
					C141,77,141.4,77.3,141.9,77.3"/>
				<path class="st1" d="M148.8,77.1c-3.9,0-4.7-0.3-4.7-0.7c0-0.4,0.7-0.7,4.7-0.7c3.1,0,11,0.5,14.1,0.7c0.1,0,0.1,0.2,0,0.2
					C159.9,76.8,151.9,77.2,148.8,77.1z"/>
				<path class="st1" d="M151.3,80.9l0.1,2.1c0,0.1,0,0.1-0.1,0.1l-16.5-6.7c-0.1-0.1-0.1-0.2,0-0.2l16.5-6.7c0,0,0.1,0,0.1,0.1v2.3
					c0,0.1-0.1,0.1-0.1,0.1l-7.8,3.5h-0.1c-0.4-0.3-1.1-0.5-1.9-0.5c-1.2,0-3.6,1.2-4.1,1.5v0.1c0.5,0.3,3,1.5,4.1,1.5
					c0.7,0,1.5-0.2,1.9-0.5h0.1L151.3,80.9C151.3,80.9,151.4,81,151.3,80.9z"/>
				<g>
					<g>
						<path class="st1" d="M161.3,73.8l-4.6,2c-0.1,0-0.1,0-0.1,0l-1.5-0.2c0,0-0.1,0-0.1-0.1c-0.3-1.8-1.7-3-3.4-3.4
							c-0.1,0-0.1-0.1-0.1-0.2l1.8-5.5c0.1-0.1,0.3-0.1,0.3,0.1l-0.5,3.9c0,0.1,0.2,0.2,0.3,0.1l2.7-3.5c0.1-0.2,0.3-0.1,0.2,0.1
							l-1.8,4.1c-0.1,0.2,0.1,0.3,0.2,0.2l3.5-2.7c0.1-0.1,0.3,0.1,0.2,0.2l-2.7,3.5c-0.1,0.1,0.1,0.3,0.2,0.2l4.1-1.8
							c0.1-0.1,0.2,0.1,0.1,0.2l-3.5,2.7c-0.1,0.1,0,0.3,0.1,0.3l4.5-0.6C161.5,73.4,161.6,73.7,161.3,73.8z"/>
					</g>
					<g>
						<path class="st1" d="M161.3,79.2l-4.6-2c-0.1,0-0.1,0-0.1,0l-1.5,0.2c0,0-0.1,0-0.1,0.1c-0.3,1.8-1.7,3-3.4,3.4
							c-0.1,0-0.1,0.1-0.1,0.2l1.8,5.5c0.1,0.1,0.3,0.1,0.3-0.1l-0.5-3.9c0-0.1,0.2-0.2,0.3-0.1l2.7,3.5c0.1,0.2,0.3,0.1,0.2-0.1
							l-1.8-4.1c-0.1-0.2,0.1-0.3,0.2-0.2l3.5,2.7c0.1,0.1,0.3-0.1,0.2-0.2l-2.7-3.5c-0.1-0.1,0.1-0.3,0.2-0.2l4.1,1.8
							c0.1,0.1,0.2-0.1,0.1-0.2l-3.5-2.7c-0.1-0.1,0-0.3,0.1-0.3l4.5,0.6C161.5,79.5,161.6,79.3,161.3,79.2z"/>
					</g>
				</g>
			</g>
		</g>
		<g>
			<g>
				<path class="st1" d="M121.1,75.7c-0.4,0-0.8,0.4-0.8,0.8c0,0.5,0.4,0.8,0.8,0.8c0.5,0,0.8-0.4,0.8-0.8
					C121.9,76,121.5,75.7,121.1,75.7"/>
				<path class="st1" d="M114.2,75.9c3.9,0,4.7,0.3,4.7,0.7c0,0.4-0.7,0.7-4.7,0.7c-3.1,0-11-0.5-14.1-0.7c-0.1,0-0.1-0.2,0-0.2
					C103.2,76.2,111.1,75.7,114.2,75.9z"/>
				<path class="st1" d="M111.7,72.2v-2.4c0-0.1,0-0.1,0.1-0.1l16.4,7c0.1,0.1,0.1,0.2,0,0.2l-16.5,6.7c0,0-0.1,0-0.1-0.1v-2.3
					c0-0.1,0.1-0.1,0.1-0.1l7.8-3.5h0.1c0.4,0.3,1.1,0.5,1.9,0.5c1.2,0,3.6-1.2,4.1-1.5v-0.1c-0.5-0.3-3-1.5-4.1-1.5
					c-0.7,0-1.5,0.2-1.9,0.5h-0.1L111.7,72.2C111.7,72.1,111.7,72.1,111.7,72.2z"/>
				<g>
					<g>
						<path class="st1" d="M101.5,79.2l4.6-1.9c0.1,0,0.1,0,0.1,0l1.5,0.2c0,0,0.1,0,0.1,0.1c0.3,1.8,1.7,3,3.4,3.4
							c0.1,0,0.1,0.1,0.1,0.2l-1.8,5.5c-0.1,0.1-0.3,0.1-0.3-0.1l0.5-3.9c0-0.1-0.2-0.2-0.3-0.1l-2.7,3.5c-0.1,0.2-0.3,0.1-0.2-0.1
							l1.8-4.1c0.1-0.2-0.1-0.3-0.2-0.2l-3.5,2.7c-0.1,0.1-0.3-0.1-0.2-0.2l2.7-3.6c0.1-0.1-0.1-0.3-0.2-0.2l-4.1,1.8
							c-0.1,0.1-0.2-0.1-0.1-0.2l3.6-2.7c0.1-0.1,0-0.3-0.1-0.3l-4.5,0.6C101.4,79.5,101.4,79.3,101.5,79.2z"/>
					</g>
					<g>
						<path class="st1" d="M101.5,73.7l4.6,2.1c0.1,0,0.1,0,0.1,0l1.5-0.2c0,0,0.1,0,0.1-0.1c0.3-1.8,1.7-3,3.4-3.4
							c0.1,0,0.1-0.1,0.1-0.2l-1.8-5.5c-0.1-0.1-0.3-0.1-0.3,0.1l0.5,3.9c0,0.1-0.2,0.2-0.3,0.1l-2.7-3.5c-0.1-0.2-0.3-0.1-0.2,0.1
							l1.8,4.1c0.1,0.2-0.1,0.3-0.2,0.2l-3.5-2.7c-0.1-0.1-0.3,0.1-0.2,0.2l2.7,3.5c0.1,0.1-0.1,0.3-0.2,0.2l-4.1-1.8
							c-0.1-0.1-0.2,0.1-0.1,0.2l3.6,2.7c0.1,0.1,0,0.3-0.1,0.3l-4.5-0.6C101.4,73.4,101.4,73.7,101.5,73.7z"/>
					</g>
				</g>
			</g>
		</g>
		<g>
			<g>
				<path class="st1" d="M132.3,66.1c0-0.4-0.4-0.8-0.8-0.8c-0.5,0-0.8,0.4-0.8,0.8c0,0.5,0.4,0.8,0.8,0.8
					C132,67,132.3,66.6,132.3,66.1"/>
				<path class="st1" d="M132.1,59.2c0,3.9-0.3,4.7-0.7,4.7s-0.7-0.7-0.7-4.7c0-3.1,0.5-11,0.7-14.1c0-0.1,0.2-0.1,0.2,0
					C131.8,48.1,132.2,56.1,132.1,59.2z"/>
				<path class="st1" d="M135.8,56.7l2.1-0.1c0.1,0,0.1,0,0.1,0.1l-6.7,16.5c-0.1,0.1-0.2,0.1-0.2,0l-6.7-16.5c0,0,0-0.1,0.1-0.1
					h2.3c0.1,0,0.1,0.1,0.1,0.1l3.5,7.8v0.1c-0.3,0.4-0.5,1.1-0.5,1.9c0,1.2,1.2,3.6,1.5,4.1h0.1c0.3-0.5,1.5-3,1.5-4.1
					c0-0.7-0.2-1.5-0.5-1.9v-0.1L135.8,56.7C135.9,56.6,135.9,56.6,135.8,56.7z"/>
				<g>
					<g>
						<path class="st1" d="M128.8,46.7l2,4.6c0,0.1,0,0.1,0,0.1l-0.2,1.5c0,0,0,0.1-0.1,0.1c-1.8,0.3-3,1.7-3.4,3.4
							c0,0.1-0.1,0.1-0.2,0.1l-5.5-1.8c-0.1-0.1-0.1-0.3,0.1-0.3l3.9,0.5c0.1,0,0.2-0.2,0.1-0.3l-3.5-2.7c-0.2-0.1-0.1-0.3,0.1-0.2
							l4.1,1.8c0.2,0.1,0.3-0.1,0.2-0.2l-2.7-3.5c-0.1-0.1,0.1-0.3,0.2-0.2l3.5,2.7c0.1,0.1,0.3-0.1,0.2-0.2l-1.8-4.1
							c-0.1-0.1,0.1-0.2,0.2-0.1l2.7,3.5c0.1,0.1,0.3,0,0.3-0.1l-0.6-4.5C128.5,46.5,128.7,46.4,128.8,46.7z"/>
					</g>
					<g>
						<path class="st1" d="M134.2,46.7l-2,4.6c0,0.1,0,0.1,0,0.1l0.2,1.5c0,0,0,0.1,0.1,0.1c1.8,0.3,3,1.7,3.4,3.4
							c0,0.1,0.1,0.1,0.2,0.1l5.5-1.8c0.1-0.1,0.1-0.3-0.1-0.3l-3.9,0.5c-0.1,0-0.2-0.2-0.1-0.3l3.5-2.7c0.2-0.1,0.1-0.3-0.1-0.2
							l-4.1,1.8c-0.2,0.1-0.3-0.1-0.2-0.2l2.7-3.5c0.1-0.1-0.1-0.3-0.2-0.2l-3.5,2.7c-0.1,0.1-0.3-0.1-0.2-0.2l1.8-4.1
							c0.1-0.1-0.1-0.2-0.2-0.1l-2.7,3.5c-0.1,0.1-0.3,0-0.3-0.1l0.6-4.5C134.6,46.5,134.3,46.4,134.2,46.7z"/>
					</g>
				</g>
			</g>
		</g>
		<g>
			<g>
				<path class="st1" d="M130.7,86.9c0,0.4,0.4,0.8,0.8,0.8c0.5,0,0.8-0.4,0.8-0.8c0-0.5-0.4-0.8-0.8-0.8
					C131,86.1,130.7,86.5,130.7,86.9"/>
				<path class="st1" d="M130.9,93.8c0-3.9,0.3-4.7,0.7-4.7c0.4,0,0.7,0.7,0.7,4.7c0,3.1-0.5,11-0.7,14.1c0,0.1-0.2,0.1-0.2,0
					C131.2,104.8,130.8,96.9,130.9,93.8z"/>
				<path class="st1" d="M127.1,96.3l-2.4,0.1c-0.1,0-0.1,0-0.1-0.1l6.7-16.5c0.1-0.1,0.2-0.1,0.2,0l7,16.5c0,0,0,0.1-0.1,0.1h-2.3
					c-0.1,0-0.1-0.1-0.1-0.1l-3.5-7.8v-0.1c0.3-0.4,0.5-1.1,0.5-1.9c0-1.2-1.2-3.6-1.5-4.1h-0.1c-0.3,0.5-1.5,3-1.5,4.1
					c0,0.7,0.2,1.5,0.5,1.9v0.1L127.1,96.3C127.1,96.3,127,96.3,127.1,96.3z"/>
				<g>
					<g>
						<path class="st1" d="M134.2,106.5l-2-4.6c0-0.1,0-0.1,0-0.1l0.2-1.6c0,0,0-0.1,0.1-0.1c1.8-0.3,3-1.7,3.4-3.4
							c0-0.1,0.1-0.1,0.2-0.1l5.5,1.8c0.1,0.1,0.1,0.3-0.1,0.3l-3.9-0.5c-0.1,0-0.2,0.2-0.1,0.3l3.5,2.7c0.2,0.1,0.1,0.3-0.1,0.2
							l-4.1-1.8c-0.2-0.1-0.3,0.1-0.2,0.2l2.7,3.5c0.1,0.1-0.1,0.3-0.2,0.2l-3.5-2.7c-0.1-0.1-0.3,0.1-0.2,0.2l1.8,4.1
							c0.1,0.1-0.1,0.2-0.2,0.1l-2.7-3.5c-0.1-0.1-0.3,0-0.3,0.1l0.6,4.5C134.6,106.6,134.3,106.6,134.2,106.5z"/>
					</g>
					<g>
						<path class="st1" d="M128.8,106.4l2-4.6c0-0.1,0-0.1,0-0.1l-0.2-1.5c0,0,0-0.1-0.1-0.1c-1.8-0.3-3-1.7-3.4-3.4
							c0-0.1-0.1-0.1-0.2-0.1l-5.5,1.8c-0.1,0.1-0.1,0.3,0.1,0.3l3.9-0.5c0.1,0,0.2,0.2,0.1,0.3l-3.5,2.7c-0.2,0.1-0.1,0.3,0.1,0.2
							l4.1-1.8c0.2-0.1,0.3,0.1,0.2,0.2l-2.7,3.5c-0.1,0.1,0.1,0.3,0.2,0.2l3.5-2.7c0.1-0.1,0.3,0.1,0.2,0.2l-1.8,4.1
							c-0.1,0.1,0.1,0.2,0.2,0.1l2.7-3.5c0.1-0.1,0.3,0,0.3,0.1l-0.6,4.5C128.5,106.6,128.7,106.6,128.8,106.4z"/>
					</g>
				</g>
			</g>
		</g>
		<g>
			<g>
				<path class="st1" d="M124.7,68.6c-0.3-0.3-0.8-0.3-1.1,0c-0.3,0.3-0.3,0.8,0,1.1c0.3,0.3,0.8,0.3,1.1,0
					C125.1,69.5,125.1,68.9,124.7,68.6"/>
				<path class="st1" d="M119.8,63.8c2.8,2.8,3.1,3.5,2.8,3.8c-0.3,0.2-1,0-3.8-2.8c-2.2-2.2-7.5-8.2-9.5-10.5
					c-0.1-0.1,0-0.2,0.1-0.1C111.7,56.2,117.6,61.6,119.8,63.8z"/>
				<path class="st1" d="M120.6,59.4l1.6-1.7c0-0.1,0.1-0.1,0.1,0l6.8,16.4c0,0.1,0,0.1-0.1,0.1l-16.4-6.8v-0.1l1.7-1.7h0.1l8,3
					c0.1,0,0.1,0.1,0.1,0.1c0.1,0.6,0.4,1.2,0.9,1.8c0.8,0.8,3.4,1.8,3.9,2c0.1,0,0.1-0.1,0.1-0.1c-0.2-0.5-1.1-3.1-2-3.9
					c-0.6-0.5-1.2-0.8-1.8-0.9c-0.1,0-0.1-0.1-0.1-0.1L120.6,59.4C120.6,59.4,120.6,59.3,120.6,59.4z"/>
				<g>
					<g>
						<path class="st1" d="M108.4,57.2l4.8,2c0.1,0,0.1,0,0.1,0l0.8,1.1c0,0.1,0,0.1,0,0.2c-1,1.5-0.9,3.4,0,4.9
							c0,0.1,0,0.2-0.1,0.2l-5.2,2.7c-0.1,0.1-0.2-0.1-0.1-0.2l3.1-2.4c0.1-0.1,0-0.3-0.1-0.3l-4.5,0.6c-0.2,0-0.3-0.2-0.1-0.3
							l4.1-1.7c0.2-0.1,0.1-0.3,0-0.3l-4.5-0.6c-0.2,0-0.2-0.3,0-0.3l4.5-0.6c0.1,0,0.1-0.2,0-0.3l-4.1-1.7
							c-0.1-0.1-0.1-0.3,0.1-0.3l4.5,0.6c0.1,0,0.2-0.2,0.1-0.3l-3.5-2.7C108.1,57.4,108.2,57.2,108.4,57.2z"/>
					</g>
					<g>
						<path class="st1" d="M112.3,53.4l1.9,4.7c0,0.1,0,0.1,0,0.1l1.1,0.8c0.1,0,0.1,0,0.2,0c1.5-1,3.4-0.9,4.9,0
							c0.1,0,0.2,0,0.2-0.1l2.7-5.2c0.1-0.1-0.1-0.2-0.2-0.1l-2.4,3.1c-0.1,0.1-0.3,0-0.3-0.1l0.6-4.5c0-0.2-0.2-0.3-0.3-0.1
							l-1.7,4.1c-0.1,0.2-0.3,0.1-0.3,0l-0.6-4.5c0-0.2-0.3-0.2-0.3,0l-0.6,4.5c0,0.1-0.2,0.1-0.3,0l-1.7-4.1
							c-0.1-0.1-0.3-0.1-0.3,0.1l0.6,4.5c0,0.1-0.2,0.2-0.3,0.1l-2.7-3.5C112.4,53.1,112.2,53.2,112.3,53.4z"/>
					</g>
				</g>
			</g>
		</g>
		<g>
			<g>
				<path class="st1" d="M138.2,84.4c0.3,0.3,0.8,0.3,1.1,0c0.3-0.3,0.3-0.8,0-1.1s-0.8-0.3-1.1,0C137.9,83.6,137.9,84.1,138.2,84.4
					"/>
				<path class="st1" d="M143.2,89.3c-2.8-2.8-3.1-3.5-2.8-3.8c0.3-0.2,1,0,3.8,2.8c2.2,2.2,7.5,8.2,9.5,10.5c0.1,0.1,0,0.2-0.1,0.1
					C151.3,96.7,145.4,91.4,143.2,89.3z"/>
				<path class="st1" d="M142.4,93.6l-1.6,1.7c0,0.1-0.1,0.1-0.1,0l-6.8-16.4c0-0.1,0-0.1,0.1-0.1l16.4,6.8v0.1l-1.7,1.7h-0.1l-8-3
					c-0.1,0-0.1-0.1-0.1-0.1c-0.1-0.6-0.4-1.2-0.9-1.8c-0.8-0.8-3.4-1.8-3.9-2c-0.1,0-0.1,0.1-0.1,0.1c0.2,0.5,1.1,3.1,2,3.9
					c0.6,0.5,1.2,0.8,1.8,0.9c0.1,0,0.1,0.1,0.1,0.1L142.4,93.6C142.4,93.6,142.4,93.7,142.4,93.6z"/>
				<g>
					<g>
						<path class="st1" d="M154.6,95.7l-4.7-1.9c-0.1,0-0.1,0-0.1,0l-0.8-1.1c0-0.1,0-0.1,0-0.2c1-1.5,0.9-3.4,0-4.9
							c0-0.1,0-0.2,0.1-0.2l5.2-2.7c0.1-0.1,0.2,0.1,0.1,0.2l-3.1,2.4c-0.1,0.1,0,0.3,0.1,0.3l4.5-0.6c0.2,0,0.3,0.2,0.1,0.3
							l-4.1,1.7c-0.2,0.1-0.1,0.3,0,0.3l4.5,0.6c0.2,0,0.2,0.3,0,0.3l-4.5,0.6c-0.1,0-0.1,0.2,0,0.3l4.1,1.7
							c0.1,0.1,0.1,0.3-0.1,0.3l-4.5-0.6c-0.1,0-0.2,0.2-0.1,0.3l3.5,2.7C154.9,95.6,154.8,95.8,154.6,95.7z"/>
					</g>
					<g>
						<path class="st1" d="M150.7,99.5l-1.9-4.7c0-0.1,0-0.1,0-0.1l-1.1-0.8c-0.1,0-0.1,0-0.2,0c-1.5,1-3.4,0.9-4.9,0
							c-0.1,0-0.2,0-0.2,0.1l-2.7,5.2c-0.1,0.1,0.1,0.2,0.2,0.1l2.4-3.1c0.1-0.1,0.3,0,0.3,0.1l-0.6,4.5c0,0.2,0.2,0.3,0.3,0.1
							l1.7-4.1c0.1-0.2,0.3-0.1,0.3,0l0.6,4.5c0,0.2,0.3,0.2,0.3,0l0.6-4.5c0-0.1,0.2-0.1,0.3,0l1.7,4.1c0.1,0.1,0.3,0.1,0.3-0.1
							l-0.6-4.5c0-0.1,0.2-0.2,0.3-0.1l2.7,3.5C150.6,99.9,150.8,99.7,150.7,99.5z"/>
					</g>
				</g>
			</g>
		</g>
		<g>
			<g>
				<path class="st1" d="M123.6,83.3c-0.3,0.3-0.3,0.8,0,1.1c0.3,0.3,0.8,0.3,1.1,0c0.3-0.3,0.3-0.8,0-1.1
					C124.4,82.9,123.9,82.9,123.6,83.3"/>
				<path class="st1" d="M118.7,88.2c2.8-2.8,3.5-3.1,3.8-2.8c0.2,0.3,0,1-2.8,3.8c-2.2,2.2-8.2,7.5-10.5,9.5
					c-0.1,0.1-0.2,0-0.1-0.1C111.3,96.3,116.6,90.4,118.7,88.2z"/>
				<path class="st1" d="M114.4,87.4l-1.7-1.6c-0.1,0-0.1-0.1,0-0.1l16.4-6.8c0.1,0,0.1,0,0.1,0.1l-6.8,16.4h-0.1l-1.7-1.7v-0.1l3-8
					c0-0.1,0.1-0.1,0.1-0.1c0.6-0.1,1.2-0.4,1.8-0.9c0.8-0.8,1.8-3.4,2-3.9c0-0.1-0.1-0.1-0.1-0.1c-0.5,0.2-3.1,1.1-3.9,2
					c-0.5,0.6-0.8,1.2-0.9,1.8c0,0.1-0.1,0.1-0.1,0.1L114.4,87.4C114.4,87.4,114.3,87.4,114.4,87.4z"/>
				<g>
					<g>
						<path class="st1" d="M112.3,99.5l1.9-4.7c0-0.1,0-0.1,0-0.1l1.1-0.8c0.1,0,0.1,0,0.2,0c1.5,1,3.4,0.9,4.9,0
							c0.1,0,0.2,0,0.2,0.1l2.7,5.2c0.1,0.1-0.1,0.2-0.2,0.1l-2.4-3.1c-0.1-0.1-0.3,0-0.3,0.1l0.6,4.5c0,0.2-0.2,0.3-0.3,0.1
							l-1.7-4.1c-0.1-0.2-0.3-0.1-0.3,0l-0.6,4.5c0,0.2-0.3,0.2-0.3,0l-0.6-4.5c0-0.1-0.2-0.1-0.3,0l-1.7,4.1
							c-0.1,0.1-0.3,0.1-0.3-0.1l0.6-4.5c0-0.1-0.2-0.2-0.3-0.1l-2.7,3.5C112.4,99.9,112.2,99.7,112.3,99.5z"/>
					</g>
					<g>
						<path class="st1" d="M108.5,95.7l4.7-1.9c0.1,0,0.1,0,0.1,0l0.8-1.1c0-0.1,0-0.1,0-0.2c-1-1.5-0.9-3.4,0-4.9
							c0-0.1,0-0.2-0.1-0.2l-5.2-2.7c-0.1-0.1-0.2,0.1-0.1,0.2l3.1,2.4c0.1,0.1,0,0.3-0.1,0.3l-4.5-0.6c-0.2,0-0.3,0.2-0.1,0.3
							l4.1,1.7c0.2,0.1,0.1,0.3,0,0.3l-4.5,0.6c-0.2,0-0.2,0.3,0,0.3l4.5,0.6c0.1,0,0.1,0.2,0,0.3l-4.1,1.7
							c-0.1,0.1-0.1,0.3,0.1,0.3l4.5-0.6c0.1,0,0.2,0.2,0.1,0.3l-3.5,2.7C108.1,95.6,108.2,95.8,108.5,95.7z"/>
					</g>
				</g>
			</g>
		</g>
		<g>
			<g>
				<path class="st1" d="M139.4,69.8c0.3-0.3,0.3-0.8,0-1.1c-0.3-0.3-0.8-0.3-1.1,0c-0.3,0.3-0.3,0.8,0,1.1
					C138.5,70.1,139.1,70.1,139.4,69.8"/>
				<path class="st1" d="M144.2,64.8c-2.8,2.8-3.5,3.1-3.8,2.8c-0.2-0.3,0-1,2.8-3.8c2.2-2.2,8.2-7.5,10.5-9.5
					c0.1-0.1,0.2,0,0.1,0.1C151.7,56.7,146.4,62.6,144.2,64.8z"/>
				<path class="st1" d="M148.6,65.6l1.7,1.6c0.1,0,0.1,0.1,0,0.1l-16.4,6.8c-0.1,0-0.1,0-0.1-0.1l6.8-16.4h0.1l1.7,1.7v0.1l-3,8
					c0,0.1-0.1,0.1-0.1,0.1c-0.6,0.1-1.2,0.4-1.8,0.9c-0.8,0.8-1.8,3.4-2,3.9c0,0.1,0.1,0.1,0.1,0.1c0.5-0.2,3.1-1.1,3.9-2
					c0.5-0.6,0.8-1.2,0.9-1.8c0-0.1,0.1-0.1,0.1-0.1L148.6,65.6C148.6,65.6,148.7,65.6,148.6,65.6z"/>
				<g>
					<g>
						<path class="st1" d="M150.7,53.4l-1.9,4.7c0,0.1,0,0.1,0,0.1l-1.1,0.8c-0.1,0-0.1,0-0.2,0c-1.5-1-3.4-0.9-4.9,0
							c-0.1,0-0.2,0-0.2-0.1l-2.7-5.2c-0.1-0.1,0.1-0.2,0.2-0.1l2.4,3.1c0.1,0.1,0.3,0,0.3-0.1l-0.6-4.5c0-0.2,0.2-0.3,0.3-0.1
							l1.7,4.1c0.1,0.2,0.3,0.1,0.3,0l0.6-4.5c0-0.2,0.3-0.2,0.3,0l0.6,4.5c0,0.1,0.2,0.1,0.3,0l1.7-4.1c0.1-0.1,0.3-0.1,0.3,0.1
							l-0.6,4.5c0,0.1,0.2,0.2,0.3,0.1l2.7-3.5C150.6,53.1,150.8,53.2,150.7,53.4z"/>
					</g>
					<g>
						<path class="st1" d="M154.6,57.3l-4.7,1.9c-0.1,0-0.1,0-0.1,0l-0.8,1.1c0,0.1,0,0.1,0,0.2c1,1.5,0.9,3.4,0,4.9
							c0,0.1,0,0.2,0.1,0.2l5.2,2.7c0.1,0.1,0.2-0.1,0.1-0.2l-3.1-2.4c-0.1-0.1,0-0.3,0.1-0.3l4.5,0.6c0.2,0,0.3-0.2,0.1-0.3
							l-4.1-1.7c-0.2-0.1-0.1-0.3,0-0.3l4.5-0.6c0.2,0,0.2-0.3,0-0.3l-4.5-0.6c-0.1,0-0.1-0.2,0-0.3l4.1-1.7
							c0.1-0.1,0.1-0.3-0.1-0.3l-4.5,0.6c-0.1,0-0.2-0.2-0.1-0.3l3.5-2.7C154.9,57.4,154.8,57.2,154.6,57.3z"/>
					</g>
				</g>
			</g>
		</g>
	</g>
	<g>
		<g>
			<g>
				<path class="st1" d="M64.6-12.8c0-0.8-0.7-1.6-1.7-1.7c-0.9,0-1.7,0.7-1.7,1.7c0,0.9,0.7,1.7,1.7,1.7
					C63.9-11.2,64.6-11.9,64.6-12.8"/>
				<path class="st1" d="M64.5-26.7c0,7.8-0.7,9.3-1.6,9.3s-1.6-1.6-1.6-9.3c0-6.1,0.9-22,1.3-28.2c0.1-0.2,0.4-0.2,0.4,0
					C63.6-48.8,64.5-32.8,64.5-26.7z"/>
				<path class="st1" d="M71.9-31.7h4.6c0.2,0,0.2,0.1,0.2,0.2L63.1,1.4c0,0.1-0.2,0.1-0.3,0l-13.6-33c0-0.1,0.1-0.2,0.2-0.2H54
					c0.1,0,0.2,0,0.2,0.1l7,15.5c0,0.1,0,0.1,0,0.2c-0.7,0.8-1.1,2.2-1.1,3.7c0,2.4,2.3,7.4,2.8,8.3c0.1,0.1,0.2,0.1,0.2,0
					c0.4-1,2.8-5.9,2.8-8.3c0-1.6-0.4-2.9-1.1-3.7c0-0.1,0-0.1,0-0.2l7-15.5C71.8-31.7,71.9-31.8,71.9-31.7z"/>
				<g>
					<g>
						<path class="st1" d="M57.5-52l4,9.2v0.1l-0.3,2.8c0,0.2-0.1,0.3-0.2,0.3c-3.4,0.6-6.1,3.4-6.8,6.8c-0.1,0.2-0.2,0.3-0.4,0.2
							l-11.1-3.5c-0.3-0.1-0.2-0.5,0.1-0.5l7.9,1c0.3,0,0.4-0.3,0.2-0.5l-7-5.4c-0.2-0.2,0-0.6,0.3-0.5l8.2,3.4
							c0.2,0.1,0.5-0.2,0.3-0.4l-5.4-7c-0.2-0.3,0.1-0.6,0.4-0.4l7,5.4c0.2,0.2,0.5,0,0.4-0.3l-3.4-8.2c-0.1-0.3,0.3-0.6,0.5-0.3
							l5.4,7c0.2,0.2,0.5,0.1,0.5-0.2L57-51.8C56.9-52.1,57.4-52.3,57.5-52z"/>
					</g>
					<g>
						<path class="st1" d="M68.6-52l-4,9.2v0.1l0.3,2.8c0,0.2,0.1,0.3,0.2,0.3c3.4,0.6,6.1,3.4,6.8,6.8c0.1,0.2,0.2,0.3,0.4,0.2
							l11.1-3.5c0.3-0.1,0.2-0.5-0.1-0.5l-7.9,1c-0.3,0-0.4-0.3-0.2-0.5l7-5.4c0.2-0.2,0-0.6-0.3-0.5l-8.2,3.4
							c-0.2,0.1-0.5-0.2-0.3-0.4l5.4-7c0.2-0.3-0.1-0.6-0.4-0.4l-7,5.4c-0.2,0.2-0.5,0-0.4-0.3l3.4-8.2c0.1-0.3-0.3-0.6-0.5-0.3
							l-5.4,7c-0.2,0.2-0.5,0.1-0.5-0.2l1.1-8.8C69.1-52.1,68.7-52.3,68.6-52z"/>
					</g>
				</g>
			</g>
		</g>
		<g>
			<g>
				<path class="st1" d="M61.4,28.6c0,0.9,0.7,1.7,1.7,1.7s1.7-0.7,1.7-1.7c0-0.9-0.7-1.7-1.7-1.7S61.4,27.7,61.4,28.6"/>
				<path class="st1" d="M61.4,42.6c0-7.8,0.7-9.3,1.6-9.3s1.6,1.6,1.6,9.3c0,6.1-0.9,22-1.3,28.2c-0.1,0.2-0.4,0.2-0.4,0
					C62.3,64.6,61.4,48.7,61.4,42.6z"/>
				<path class="st1" d="M54.1,47.6h-4.6c-0.2,0-0.2-0.1-0.2-0.2l13.6-32.9c0-0.1,0.2-0.1,0.3,0l13.7,33c0,0.1-0.1,0.2-0.2,0.2h-4.6
					c-0.1,0-0.2,0-0.2-0.1l-7-15.5c0-0.1,0-0.1,0-0.2c0.7-0.8,1.1-2.2,1.1-3.7c0-2.4-2.3-7.4-2.8-8.3c-0.1-0.1-0.2-0.1-0.2,0
					c-0.4,1-2.8,5.9-2.8,8.3c0,1.6,0.4,2.9,1.1,3.7c0,0.1,0,0.1,0,0.2l-7,15.5C54.2,47.6,54.2,47.7,54.1,47.6z"/>
				<g>
					<g>
						<path class="st1" d="M68.5,67.9l-4-9.2v-0.1l0.3-2.8c0-0.2,0.1-0.3,0.2-0.3c3.4-0.6,6.1-3.4,6.8-6.8c0.1-0.2,0.2-0.3,0.4-0.2
							l11.1,3.5c0.3,0.1,0.2,0.5-0.1,0.5l-7.9-1c-0.3,0-0.4,0.3-0.2,0.5l7,5.4c0.2,0.2,0,0.6-0.3,0.5l-8.2-3.4
							c-0.2-0.1-0.5,0.2-0.3,0.4l5.4,7c0.2,0.3-0.1,0.6-0.4,0.4l-7-5.4c-0.2-0.2-0.5,0-0.4,0.3l3.5,8.2c0.1,0.3-0.3,0.6-0.5,0.3
							l-5.4-7c-0.2-0.2-0.5-0.1-0.5,0.2l1.1,8.8C69.1,68,68.7,68.1,68.5,67.9z"/>
					</g>
					<g>
						<path class="st1" d="M57.5,67.9l4-9.2v-0.1l-0.3-2.8c0-0.2-0.1-0.3-0.2-0.3c-3.4-0.6-6.1-3.4-6.8-6.8
							c-0.1-0.2-0.2-0.3-0.4-0.2l-11.1,3.5c-0.3,0.1-0.2,0.5,0.1,0.5l7.9-1c0.3,0,0.4,0.3,0.2,0.5l-7,5.4c-0.2,0.2,0,0.6,0.3,0.5
							l8.2-3.4c0.2-0.1,0.5,0.2,0.3,0.4l-5.4,7c-0.2,0.3,0.1,0.6,0.4,0.4l7-5.4c0.2-0.2,0.5,0,0.4,0.3l-3.4,8.2
							c-0.1,0.3,0.3,0.6,0.5,0.3l5.4-7c0.2-0.2,0.5-0.1,0.5,0.2L57,67.7C56.9,68,57.4,68.1,57.5,67.9z"/>
					</g>
				</g>
			</g>
		</g>
		<g>
			<g>
				<path class="st1" d="M42.2,6.3c-0.8,0-1.6,0.7-1.7,1.7c0,0.9,0.7,1.7,1.7,1.7s1.7-0.7,1.7-1.7S43.2,6.3,42.2,6.3"/>
				<path class="st1" d="M28.3,6.4c7.8,0,9.3,0.7,9.3,1.6c0,0.8-1.6,1.6-9.3,1.6c-6.1,0-22-0.9-28.2-1.3c-0.2-0.1-0.2-0.4,0-0.4
					C6.3,7.4,22.2,6.4,28.3,6.4z"/>
				<path class="st1" d="M23.3-1v-4.6c0-0.2,0.1-0.2,0.2-0.2l33,13.7c0.1,0,0.1,0.2,0,0.3l-33,13.6c-0.1,0-0.2-0.1-0.2-0.2V17
					c0-0.1,0-0.2,0.1-0.2l15.5-7c0.1,0,0.1,0,0.2,0c0.8,0.7,2.2,1.1,3.7,1.1c2.4,0,7.4-2.3,8.3-2.8c0.1-0.1,0.1-0.2,0-0.2
					c-1-0.4-5.9-2.8-8.3-2.8c-1.6,0-2.9,0.4-3.7,1.1c-0.1,0-0.1,0-0.2,0l-15.5-7C23.3-0.8,23.3-0.9,23.3-1z"/>
				<g>
					<g>
						<path class="st1" d="M3.1,13.4l9.2-4h0.1l2.8,0.4c0.2,0,0.3,0.1,0.3,0.2c0.6,3.4,3.4,6.1,6.8,6.8c0.2,0.1,0.3,0.2,0.2,0.4
							L19,28.3c-0.1,0.3-0.5,0.2-0.5-0.1l1-7.9c0-0.3-0.3-0.4-0.5-0.2l-5.4,7c-0.2,0.2-0.6,0-0.5-0.4l3.4-8.2
							c0.1-0.2-0.2-0.5-0.4-0.3l-7,5.4c-0.3,0.2-0.6-0.1-0.4-0.4l5.4-7c0.2-0.2,0-0.5-0.3-0.4l-8.2,3.5c-0.3,0.1-0.6-0.3-0.3-0.5
							l7-5.4c0.2-0.2,0.1-0.5-0.2-0.5L3.3,14C3,14,2.7,13.6,3.1,13.4z"/>
					</g>
					<g>
						<path class="st1" d="M3.1,2.4l9.2,4h0.1l2.8-0.3c0.2,0,0.3-0.1,0.3-0.2c0.6-3.4,3.4-6.1,6.8-6.8c0.2-0.1,0.3-0.2,0.2-0.4
							L19-12.4c-0.1-0.3-0.5-0.2-0.5,0.1l1,7.9c0,0.3-0.3,0.4-0.5,0.2l-5.4-7c-0.2-0.2-0.6,0-0.5,0.3l3.4,8.2
							c0.1,0.2-0.2,0.5-0.4,0.3l-7-5.4C8.8-8.1,8.4-7.8,8.7-7.4l5.4,7c0.2,0.2,0,0.5-0.3,0.4L5.5-3.4C5.2-3.5,4.9-3.1,5.2-2.9l7,5.4
							C12.5,2.7,12.4,3,12.1,3L3.3,1.9C3,1.8,2.7,2.3,3.1,2.4z"/>
					</g>
				</g>
			</g>
		</g>
		<g>
			<g>
				<path class="st1" d="M83.7,9.6c0.9,0,1.7-0.7,1.7-1.7s-0.7-1.7-1.7-1.7C82.8,6.2,82,7,82,7.9S82.8,9.6,83.7,9.6"/>
				<path class="st1" d="M97.7,9.5c-7.8,0-9.3-0.7-9.3-1.6s1.6-1.6,9.3-1.6c6.1,0,22,0.9,28.2,1.3c0.2,0.1,0.2,0.4,0,0.4
					C119.7,8.5,103.8,9.5,97.7,9.5z"/>
				<path class="st1" d="M102.8,16.9v4.6c0,0.2-0.1,0.2-0.2,0.2l-33-13.6c-0.1,0-0.1-0.2,0-0.3l32.9-13.7c0.1,0,0.2,0.1,0.2,0.2v4.6
					c0,0.1,0,0.2-0.1,0.2L87,6.1c-0.1,0-0.1,0-0.2,0C86,5.4,84.6,5,83.1,5c-2.4,0-7.4,2.3-8.3,2.8c-0.1,0.1-0.1,0.2,0,0.2
					c1,0.4,5.9,2.8,8.3,2.8c1.6,0,2.9-0.4,3.7-1.1c0.1,0,0.1,0,0.2,0l15.5,7C102.7,16.7,102.7,16.8,102.8,16.9z"/>
				<g>
					<g>
						<path class="st1" d="M123,2.4l-9.2,4h-0.1l-2.8-0.3c-0.2,0-0.3-0.1-0.3-0.2c-0.6-3.4-3.4-6.1-6.8-6.8
							c-0.2-0.1-0.3-0.2-0.2-0.4l3.5-11.1c0.1-0.3,0.5-0.2,0.5,0.1l-1,7.9c0,0.3,0.3,0.4,0.5,0.2l5.4-7c0.2-0.2,0.6,0,0.5,0.3
							l-3.4,8.2c-0.1,0.2,0.2,0.5,0.4,0.3l7-5.4c0.3-0.2,0.6,0.1,0.4,0.4l-5.4,7c-0.2,0.2,0,0.5,0.3,0.4l8.2-3.4
							c0.3-0.1,0.6,0.3,0.3,0.5l-7,5.4C113.6,2.7,113.7,3,114,3l8.8-1.1C123.1,1.8,123.2,2.3,123,2.4z"/>
					</g>
					<g>
						<path class="st1" d="M123,13.4l-9.2-4h-0.1l-2.8,0.3c-0.2,0-0.3,0.1-0.3,0.2c-0.6,3.4-3.4,6.1-6.8,6.8
							c-0.2,0.1-0.3,0.2-0.2,0.4l3.5,11.1c0.1,0.3,0.5,0.2,0.5-0.1l-1-7.9c0-0.3,0.3-0.4,0.5-0.2l5.4,7c0.2,0.2,0.6,0,0.5-0.3
							l-3.4-8.2c-0.1-0.2,0.2-0.5,0.4-0.3l7,5.4c0.3,0.2,0.6-0.1,0.4-0.4l-5.4-7c-0.2-0.2,0-0.5,0.3-0.4l8.2,3.4
							c0.3,0.1,0.6-0.3,0.3-0.5l-7-5.4c-0.2-0.2-0.1-0.5,0.2-0.5l8.8,1.2C123.1,14,123.2,13.6,123,13.4z"/>
					</g>
				</g>
			</g>
		</g>
		<g>
			<g>
				<path class="st1" d="M47.2,21.5c-0.6,0.6-0.6,1.7,0,2.3c0.6,0.6,1.7,0.6,2.3,0s0.6-1.7,0-2.3C48.9,20.9,47.8,20.9,47.2,21.5"/>
				<path class="st1" d="M37.4,31.4c5.5-5.5,7-6.1,7.7-5.5c0.6,0.6,0,2.2-5.5,7.7c-4.2,4.4-16.2,14.9-20.8,19
					c-0.2,0.1-0.4-0.1-0.3-0.3C22.4,47.6,33,35.7,37.4,31.4z"/>
				<path class="st1" d="M28.5,29.7l-3.2-3.2c0-0.1,0-0.3,0.1-0.3l33-13.7c0.1-0.1,0.3,0.1,0.2,0.2l-13.7,33
					c-0.1,0.2-0.2,0.2-0.3,0.1l-3.2-3.2c0-0.1,0-0.1,0-0.2l6-16c0,0,0-0.1,0.1-0.1c1-0.1,2.4-0.8,3.4-1.9c1.7-1.7,3.5-6.8,3.8-7.9
					c0-0.1,0-0.1-0.1-0.1c-1,0.3-6.2,2.2-7.9,3.8c-1.1,1-1.8,2.3-1.9,3.4c0,0,0,0.1-0.1,0.1l-16,6C28.8,29.8,28.7,29.8,28.5,29.7z"
					/>
				<g>
					<g>
						<path class="st1" d="M24.5,54.1l3.6-9.3l0.1-0.1l2.3-1.8c0.1-0.1,0.2-0.1,0.3,0c3,2,6.7,2,9.7,0c0.1-0.1,0.3,0,0.4,0.1
							l5.3,10.4c0.1,0.3-0.3,0.6-0.5,0.3L41,47.4c-0.2-0.2-0.5-0.1-0.5,0.2l1.1,8.8c0.1,0.3-0.4,0.4-0.5,0.1l-3.4-8.2
							c-0.1-0.2-0.5-0.2-0.5,0.1L36,57.2c-0.1,0.3-0.6,0.3-0.6,0l-1.1-8.8c0-0.3-0.4-0.4-0.5-0.1l-3.4,8.2c-0.1,0.3-0.5,0.2-0.5-0.1
							l1.1-8.8c0-0.3-0.3-0.4-0.5-0.2l-5.4,7C24.8,54.7,24.4,54.5,24.5,54.1z"/>
					</g>
					<g>
						<path class="st1" d="M16.7,46.5l9.3-3.6l0.1-0.1l1.9-2.4c0.1-0.1,0.1-0.2,0-0.3c-2-3-2-6.7,0-9.7c0.1-0.1,0-0.3-0.1-0.4
							l-10.4-5.3c-0.3-0.1-0.6,0.3-0.3,0.5l6.2,4.8c0.2,0.2,0.1,0.5-0.2,0.5l-8.8-1.1c-0.3,0-0.4,0.5-0.1,0.5l8.2,3.4
							c0.2,0.1,0.2,0.5-0.1,0.5l-8.8,1.1c-0.3,0.1-0.3,0.6,0,0.6l8.8,1.2c0.3,0,0.4,0.4,0.1,0.5l-8.2,3.4c-0.3,0.1-0.2,0.5,0.1,0.5
							l8.8-1.1c0.3,0,0.4,0.3,0.2,0.5l-7,5.4C16.2,46.1,16.4,46.6,16.7,46.5z"/>
					</g>
				</g>
			</g>
		</g>
		<g>
			<g>
				<path class="st1" d="M78.8-5.6c0.6-0.6,0.6-1.7,0-2.3s-1.7-0.6-2.3,0c-0.6,0.6-0.6,1.7,0,2.3C77.2-5,78.2-5,78.8-5.6"/>
				<path class="st1" d="M88.6-15.5c-5.5,5.5-7,6.1-7.7,5.5c-0.6-0.6,0-2.2,5.5-7.7c4.2-4.4,16.2-14.9,20.8-19
					c0.2-0.1,0.4,0.1,0.3,0.3C103.5-31.7,92.9-19.8,88.6-15.5z"/>
				<path class="st1" d="M97.4-13.9l3.2,3.2c0,0.1,0,0.3-0.1,0.3L67.6,3.3c-0.1,0.1-0.3-0.1-0.2-0.2l13.7-32.9
					c0.1-0.2,0.2-0.2,0.3-0.1l3.2,3.2c0,0.1,0,0.1,0,0.2l-6,16c0,0,0,0.1-0.1,0.1c-1,0.1-2.4,0.8-3.4,1.9c-1.7,1.7-3.5,6.8-3.8,7.9
					c0,0.1,0,0.1,0.1,0.1c1-0.3,6.2-2.2,7.9-3.8c1.1-1,1.8-2.3,1.9-3.4c0,0,0-0.1,0.1-0.1l16-6C97.3-13.9,97.4-13.9,97.4-13.9z"/>
				<g>
					<g>
						<path class="st1" d="M101.4-38.3L97.8-29l-0.1,0.1l-2.3,1.8c-0.1,0.1-0.2,0.1-0.3,0c-3-2-6.7-2-9.7,0c-0.1,0.1-0.3,0-0.4-0.1
							l-5.3-10.4c-0.1-0.3,0.3-0.6,0.5-0.3l4.8,6.3c0.2,0.2,0.5,0.1,0.5-0.2l-1.1-8.8c-0.1-0.3,0.4-0.4,0.5-0.1l3.4,8.2
							c0.1,0.2,0.5,0.2,0.5-0.1l1.1-8.8c0.1-0.3,0.6-0.3,0.6,0l1.1,8.8c0,0.3,0.4,0.4,0.5,0.1l3.4-8.2c0.1-0.3,0.5-0.2,0.5,0.1
							L95-31.8c0,0.3,0.3,0.4,0.5,0.2l5.4-7C101.1-38.9,101.6-38.6,101.4-38.3z"/>
					</g>
					<g>
						<path class="st1" d="M109.2-30.6l-9.3,3.6l-0.1,0.1L98-24.5c-0.1,0.1-0.1,0.2,0,0.3c2,3,2,6.7,0,9.7c-0.1,0.1,0,0.3,0.1,0.4
							l10.4,5.3c0.3,0.1,0.6-0.3,0.3-0.5l-6.3-4.8c-0.2-0.2-0.1-0.5,0.2-0.5l8.8,1.1c0.3,0.1,0.4-0.4,0.1-0.5l-8.2-3.4
							c-0.2-0.1-0.2-0.5,0.1-0.5l8.8-1.1c0.3-0.1,0.3-0.6,0-0.6l-8.8-1.1c-0.3,0-0.4-0.4-0.1-0.5l8.2-3.4c0.3-0.1,0.2-0.5-0.1-0.5
							l-8.8,1.1c-0.3,0-0.4-0.3-0.2-0.5l7-5.4C109.8-30.2,109.5-30.7,109.2-30.6z"/>
					</g>
				</g>
			</g>
		</g>
		<g>
			<g>
				<path class="st1" d="M76.5,23.8c0.6,0.6,1.7,0.6,2.3,0c0.6-0.6,0.6-1.7,0-2.3s-1.7-0.6-2.3,0C75.9,22.1,75.9,23.1,76.5,23.8"/>
				<path class="st1" d="M86.5,33.6c-5.5-5.5-6.1-7-5.5-7.7c0.6-0.6,2.2,0,7.7,5.5c4.4,4.2,14.9,16.2,19,20.8
					c0.1,0.2-0.1,0.4-0.3,0.3C102.7,48.4,90.7,37.9,86.5,33.6z"/>
				<path class="st1" d="M84.7,42.4l-3.2,3.2c-0.1,0-0.3,0-0.3-0.1L67.5,12.7c-0.1-0.1,0.1-0.3,0.2-0.2l32.9,13.7
					c0.2,0.1,0.2,0.2,0.1,0.3l-3.2,3.2c-0.1,0-0.1,0-0.2,0l-16-6c0,0-0.1,0-0.1-0.1c-0.1-1-0.8-2.4-1.9-3.4
					c-1.7-1.7-6.8-3.5-7.9-3.8c-0.1,0-0.1,0-0.1,0.1c0.3,1,2.2,6.2,3.8,7.9c1,1.1,2.3,1.8,3.4,1.9c0,0,0.1,0,0.1,0.1l6.1,15.9
					C84.8,42.2,84.8,42.3,84.7,42.4z"/>
				<g>
					<g>
						<path class="st1" d="M109.2,46.4l-9.3-3.6l-0.1-0.1L98,40.3c-0.1-0.1-0.1-0.2,0-0.3c2-3,2-6.7,0-9.7c-0.1-0.1,0-0.3,0.1-0.4
							l10.4-5.3c0.3-0.1,0.6,0.3,0.3,0.5l-6.3,4.9c-0.2,0.2-0.1,0.5,0.2,0.5l8.8-1.1c0.3-0.1,0.4,0.4,0.1,0.5l-8.2,3.4
							c-0.2,0.1-0.2,0.5,0.1,0.5l8.8,1.1c0.3,0.1,0.3,0.6,0,0.6l-8.8,1.1c-0.3,0-0.4,0.4-0.1,0.5l8.2,3.4c0.3,0.1,0.2,0.5-0.1,0.5
							l-8.8-1.1c-0.3,0-0.4,0.3-0.2,0.5l7,5.4C109.8,46.1,109.5,46.6,109.2,46.4z"/>
					</g>
					<g>
						<path class="st1" d="M101.5,54.2l-3.6-9.3l-0.1-0.1L95.5,43c-0.1-0.1-0.2-0.1-0.3,0c-3,2-6.7,2-9.7,0c-0.1-0.1-0.3,0-0.4,0.1
							l-5.3,10.4c-0.1,0.3,0.3,0.6,0.5,0.3l4.8-6.3c0.2-0.2,0.5-0.1,0.5,0.2l-1.1,8.8c-0.1,0.3,0.4,0.4,0.5,0.1l3.3-8.3
							c0.1-0.2,0.5-0.2,0.5,0.1l1.1,8.8c0.1,0.3,0.6,0.3,0.6,0l1.1-8.8c0-0.3,0.4-0.4,0.5-0.1l3.4,8.2c0.1,0.3,0.5,0.2,0.5-0.1
							L95,47.6c0-0.3,0.3-0.4,0.5-0.2l5.4,7C101.1,54.7,101.6,54.5,101.5,54.2z"/>
					</g>
				</g>
			</g>
		</g>
		<g>
			<g>
				<path class="st1" d="M49.5-7.9c-0.6-0.6-1.7-0.6-2.3,0c-0.6,0.6-0.6,1.7,0,2.3c0.6,0.6,1.7,0.6,2.3,0S50.1-7.2,49.5-7.9"/>
				<path class="st1" d="M39.5-17.7c5.5,5.5,6.1,7,5.5,7.7c-0.6,0.6-2.2,0-7.7-5.5c-4.4-4.2-14.9-16.2-19-20.8
					c-0.1-0.2,0.1-0.4,0.3-0.3C23.4-32.5,35.2-22,39.5-17.7z"/>
				<path class="st1" d="M41.2-26.5l3.2-3.2c0.1,0,0.3,0,0.3,0.1L58.4,3.2c0.1,0.1-0.1,0.3-0.2,0.2L25.3-10.2
					c-0.2-0.1-0.2-0.2-0.1-0.3l3.2-3.2c0.1,0,0.1,0,0.2,0l16,6c0,0,0.1,0,0.1,0.1c0.1,1,0.8,2.4,1.9,3.4c1.7,1.7,6.8,3.5,7.9,3.8
					c0.1,0,0.1,0,0.1-0.1c-0.3-1-2.2-6.2-3.8-7.9c-1-1.1-2.3-1.8-3.4-1.9c0,0-0.1,0-0.1-0.1l-6-16C41.2-26.3,41.2-26.4,41.2-26.5z"
					/>
				<g>
					<g>
						<path class="st1" d="M16.7-30.6l9.3,3.6l0.1,0.1l1.8,2.3c0.1,0.1,0.1,0.2,0,0.3c-2,3-2,6.7,0,9.7c0.1,0.1,0,0.3-0.1,0.4
							L17.5-8.8c-0.3,0.1-0.6-0.3-0.3-0.5l6.3-4.8c0.2-0.2,0.1-0.5-0.2-0.5l-8.8,1.1c-0.3,0.1-0.4-0.4-0.1-0.5l8.2-3.4
							c0.2-0.1,0.2-0.5-0.1-0.5l-8.8-1.1c-0.3-0.1-0.3-0.6,0-0.6l8.8-1.1c0.3,0,0.4-0.4,0.1-0.5l-8.2-3.4c-0.3-0.1-0.2-0.5,0.1-0.5
							l8.8,1.1c0.3,0,0.4-0.3,0.2-0.5l-7-5.4C16.2-30.2,16.4-30.7,16.7-30.6z"/>
					</g>
					<g>
						<path class="st1" d="M24.5-38.3l3.6,9.3l0.1,0.1l2.3,1.8c0.1,0.1,0.2,0.1,0.3,0c3-2,6.7-2,9.7,0c0.1,0.1,0.3,0,0.4-0.1
							l5.3-10.4c0.1-0.3-0.3-0.6-0.5-0.3L41-31.6c-0.2,0.2-0.5,0.1-0.5-0.2l1.1-8.8c0.1-0.3-0.4-0.4-0.5-0.1l-3.4,8.2
							c-0.1,0.2-0.5,0.2-0.5-0.1L36-41.4c-0.1-0.3-0.6-0.3-0.6,0l-1.1,8.8c0,0.3-0.4,0.4-0.5,0.1l-3.4-8.2c-0.1-0.3-0.5-0.2-0.5,0.1
							l1.1,8.8c0,0.3-0.3,0.4-0.5,0.2l-5.4-7C24.8-38.9,24.4-38.6,24.5-38.3z"/>
					</g>
				</g>
			</g>
		</g>
	</g>
	<g>
		<g>
			<g>
				<path class="st1" d="M278.9,77.3c0.4,0,0.8-0.4,0.8-0.8c0-0.5-0.4-0.8-0.8-0.8c-0.5,0-0.8,0.4-0.8,0.8
					C278.1,77,278.5,77.3,278.9,77.3"/>
				<path class="st1" d="M285.8,77.1c-3.9,0-4.7-0.3-4.7-0.7c0-0.4,0.7-0.7,4.7-0.7c3.1,0,11,0.5,14.1,0.7c0.1,0,0.1,0.2,0,0.2
					C296.8,76.8,288.9,77.2,285.8,77.1z"/>
				<path class="st1" d="M288.3,80.9l0.1,2.1c0,0.1,0,0.1-0.1,0.1l-16.5-6.7c-0.1-0.1-0.1-0.2,0-0.2l16.5-6.7c0,0,0.1,0,0.1,0.1v2.3
					c0,0.1-0.1,0.1-0.1,0.1l-7.8,3.5h-0.1c-0.4-0.3-1.1-0.5-1.9-0.5c-1.2,0-3.6,1.2-4.1,1.5v0.1c0.5,0.3,3,1.5,4.1,1.5
					c0.7,0,1.5-0.2,1.9-0.5h0.1L288.3,80.9C288.3,80.9,288.3,81,288.3,80.9z"/>
				<g>
					<g>
						<path class="st1" d="M298.4,73.8l-4.6,2c-0.1,0-0.1,0-0.1,0l-1.5-0.2c0,0-0.1,0-0.1-0.1c-0.3-1.8-1.7-3-3.4-3.4
							c-0.1,0-0.1-0.1-0.1-0.2l1.8-5.5c0.1-0.1,0.3-0.1,0.3,0.1l-0.5,3.9c0,0.1,0.2,0.2,0.3,0.1l2.7-3.5c0.1-0.2,0.3-0.1,0.2,0.1
							l-1.8,4.1c-0.1,0.2,0.1,0.3,0.2,0.2l3.5-2.7c0.1-0.1,0.3,0.1,0.2,0.2l-2.7,3.5c-0.1,0.1,0.1,0.3,0.2,0.2l4.1-1.8
							c0.1-0.1,0.2,0.1,0.1,0.2l-3.5,2.7c-0.1,0.1,0,0.3,0.1,0.3l4.5-0.6C298.6,73.4,298.6,73.7,298.4,73.8z"/>
					</g>
					<g>
						<path class="st1" d="M298.4,79.2l-4.6-2c-0.1,0-0.1,0-0.1,0l-1.5,0.2c0,0-0.1,0-0.1,0.1c-0.3,1.8-1.7,3-3.4,3.4
							c-0.1,0-0.1,0.1-0.1,0.2l1.8,5.5c0.1,0.1,0.3,0.1,0.3-0.1l-0.5-3.9c0-0.1,0.2-0.2,0.3-0.1l2.7,3.5c0.1,0.2,0.3,0.1,0.2-0.1
							l-1.8-4.1c-0.1-0.2,0.1-0.3,0.2-0.2l3.5,2.7c0.1,0.1,0.3-0.1,0.2-0.2l-2.7-3.5c-0.1-0.1,0.1-0.3,0.2-0.2l4.1,1.8
							c0.1,0.1,0.2-0.1,0.1-0.2l-3.5-2.7c-0.1-0.1,0-0.3,0.1-0.3l4.5,0.6C298.6,79.5,298.6,79.3,298.4,79.2z"/>
					</g>
				</g>
			</g>
		</g>
		<g>
			<g>
				<path class="st1" d="M258.1,75.7c-0.4,0-0.8,0.4-0.8,0.8c0,0.5,0.4,0.8,0.8,0.8c0.5,0,0.8-0.4,0.8-0.8
					C259,76,258.6,75.7,258.1,75.7"/>
				<path class="st1" d="M251.2,75.9c3.9,0,4.7,0.3,4.7,0.7c0,0.4-0.7,0.7-4.7,0.7c-3.1,0-11-0.5-14.1-0.7c-0.1,0-0.1-0.2,0-0.2
					C240.1,76.2,248.1,75.7,251.2,75.9z"/>
				<path class="st1" d="M248.7,72.2l-0.1-2.4c0-0.1,0-0.1,0.1-0.1l16.5,7c0.1,0.1,0.1,0.2,0,0.2l-16.5,6.7c0,0-0.1,0-0.1-0.1v-2.3
					c0-0.1,0.1-0.1,0.1-0.1l7.8-3.5h0.1c0.4,0.3,1.1,0.5,1.9,0.5c1.2,0,3.6-1.2,4.1-1.5v-0.1c-0.5-0.3-3-1.5-4.1-1.5
					c-0.7,0-1.5,0.2-1.9,0.5h-0.1L248.7,72.2C248.6,72.1,248.6,72.1,248.7,72.2z"/>
				<g>
					<g>
						<path class="st1" d="M238.7,79.2l4.6-2c0.1,0,0.1,0,0.1,0l1.5,0.2c0,0,0.1,0,0.1,0.1c0.3,1.8,1.7,3,3.4,3.4
							c0.1,0,0.1,0.1,0.1,0.2l-1.8,5.5c-0.1,0.1-0.3,0.1-0.3-0.1l0.5-3.9c0-0.1-0.2-0.2-0.3-0.1l-2.7,3.5c-0.1,0.2-0.3,0.1-0.2-0.1
							l1.8-4.1c0.1-0.2-0.1-0.3-0.2-0.2l-3.5,2.7c-0.1,0.1-0.3-0.1-0.2-0.2l2.7-3.5c0.1-0.1-0.1-0.3-0.2-0.2l-4.1,1.8
							c-0.1,0.1-0.2-0.1-0.1-0.2l3.5-2.7c0.1-0.1,0-0.3-0.1-0.3l-4.5,0.6C238.5,79.5,238.4,79.3,238.7,79.2z"/>
					</g>
					<g>
						<path class="st1" d="M238.7,73.8l4.6,2c0.1,0,0.1,0,0.1,0l1.5-0.2c0,0,0.1,0,0.1-0.1c0.3-1.8,1.7-3,3.4-3.4
							c0.1,0,0.1-0.1,0.1-0.2l-1.8-5.5c-0.1-0.1-0.3-0.1-0.3,0.1l0.5,3.9c0,0.1-0.2,0.2-0.3,0.1l-2.7-3.5c-0.1-0.2-0.3-0.1-0.2,0.1
							l1.8,4.1c0.1,0.2-0.1,0.3-0.2,0.2l-3.5-2.7c-0.1-0.1-0.3,0.1-0.2,0.2l2.7,3.5c0.1,0.1-0.1,0.3-0.2,0.2l-4.1-1.8
							c-0.1-0.1-0.2,0.1-0.1,0.2l3.5,2.7c0.1,0.1,0,0.3-0.1,0.3l-4.5-0.6C238.5,73.4,238.4,73.7,238.7,73.8z"/>
					</g>
				</g>
			</g>
		</g>
		<g>
			<g>
				<path class="st1" d="M269.3,66.1c0-0.4-0.4-0.8-0.8-0.8c-0.5,0-0.8,0.4-0.8,0.8c0,0.5,0.4,0.8,0.8,0.8
					C269,67,269.3,66.6,269.3,66.1"/>
				<path class="st1" d="M269.1,59.2c0,3.9-0.3,4.7-0.7,4.7s-0.7-0.7-0.7-4.7c0-3.1,0.5-11,0.7-14.1c0-0.1,0.2-0.1,0.2,0
					C268.8,48.1,269.2,56.1,269.1,59.2z"/>
				<path class="st1" d="M272.9,56.7l2.1-0.1c0.1,0,0.1,0,0.1,0.1l-6.7,16.5c-0.1,0.1-0.2,0.1-0.2,0l-6.7-16.5c0,0,0-0.1,0.1-0.1
					h2.3c0.1,0,0.1,0.1,0.1,0.1l3.5,7.8v0.1c-0.3,0.4-0.5,1.1-0.5,1.9c0,1.2,1.2,3.6,1.5,4.1h0.1c0.3-0.5,1.5-3,1.5-4.1
					c0-0.7-0.2-1.5-0.5-1.9v-0.1L272.9,56.7C272.9,56.6,273,56.6,272.9,56.7z"/>
				<g>
					<g>
						<path class="st1" d="M265.8,46.7l2,4.6c0,0.1,0,0.1,0,0.1l-0.2,1.5c0,0,0,0.1-0.1,0.1c-1.8,0.3-3,1.7-3.4,3.4
							c0,0.1-0.1,0.1-0.2,0.1l-5.5-1.8c-0.1-0.1-0.1-0.3,0.1-0.3l3.9,0.5c0.1,0,0.2-0.2,0.1-0.3l-3.5-2.7c-0.2-0.1-0.1-0.3,0.1-0.2
							l4.1,1.8c0.2,0.1,0.3-0.1,0.2-0.2l-2.7-3.5c-0.1-0.1,0.1-0.3,0.2-0.2l3.5,2.7c0.1,0.1,0.3-0.1,0.2-0.2l-1.8-4.1
							c-0.1-0.1,0.1-0.2,0.2-0.1l2.7,3.5c0.1,0.1,0.3,0,0.3-0.1l-0.6-4.5C265.4,46.5,265.7,46.4,265.8,46.7z"/>
					</g>
					<g>
						<path class="st1" d="M271.2,46.7l-2,4.6c0,0.1,0,0.1,0,0.1l0.2,1.5c0,0,0,0.1,0.1,0.1c1.8,0.3,3,1.7,3.4,3.4
							c0,0.1,0.1,0.1,0.2,0.1l5.5-1.8c0.1-0.1,0.1-0.3-0.1-0.3l-3.9,0.5c-0.1,0-0.2-0.2-0.1-0.3l3.5-2.7c0.2-0.1,0.1-0.3-0.1-0.2
							l-4.1,1.8c-0.2,0.1-0.3-0.1-0.2-0.2l2.7-3.5c0.1-0.1-0.1-0.3-0.2-0.2l-3.5,2.7c-0.1,0.1-0.3-0.1-0.2-0.2l1.8-4.1
							c0.1-0.1-0.1-0.2-0.2-0.1l-2.7,3.5c-0.1,0.1-0.3,0-0.3-0.1l0.6-4.5C271.5,46.5,271.3,46.4,271.2,46.7z"/>
					</g>
				</g>
			</g>
		</g>
		<g>
			<g>
				<path class="st1" d="M267.7,86.9c0,0.4,0.4,0.8,0.8,0.8c0.5,0,0.8-0.4,0.8-0.8c0-0.5-0.4-0.8-0.8-0.8
					C268,86.1,267.7,86.5,267.7,86.9"/>
				<path class="st1" d="M267.9,93.8c0-3.9,0.3-4.7,0.7-4.7s0.7,0.7,0.7,4.7c0,3.1-0.5,11-0.7,14.1c0,0.1-0.2,0.1-0.2,0
					C268.2,104.8,267.7,96.9,267.9,93.8z"/>
				<path class="st1" d="M264.2,96.3l-2.1,0.1c-0.1,0-0.1,0-0.1-0.1l6.7-16.5c0.1-0.1,0.2-0.1,0.2,0l6.7,16.5c0,0,0,0.1-0.1,0.1
					h-2.3c-0.1,0-0.1-0.1-0.1-0.1l-3.5-7.8v-0.1c0.3-0.4,0.5-1.1,0.5-1.9c0-1.2-1.2-3.6-1.5-4.1h-0.1c-0.3,0.5-1.5,3-1.5,4.1
					c0,0.7,0.2,1.5,0.5,1.9v0.1L264.2,96.3C264.1,96.3,264.1,96.3,264.2,96.3z"/>
				<g>
					<g>
						<path class="st1" d="M271.2,106.5l-2-4.6c0-0.1,0-0.1,0-0.1l0.2-1.6c0,0,0-0.1,0.1-0.1c1.8-0.3,3-1.7,3.4-3.4
							c0-0.1,0.1-0.1,0.2-0.1l5.5,1.8c0.1,0.1,0.1,0.3-0.1,0.3l-3.9-0.5c-0.1,0-0.2,0.2-0.1,0.3l3.5,2.7c0.2,0.1,0.1,0.3-0.1,0.2
							l-4.1-1.8c-0.2-0.1-0.3,0.1-0.2,0.2l2.7,3.5c0.1,0.1-0.1,0.3-0.2,0.2l-3.5-2.7c-0.1-0.1-0.3,0.1-0.2,0.2l1.8,4.1
							c0.1,0.1-0.1,0.2-0.2,0.1l-2.7-3.5c-0.1-0.1-0.3,0-0.3,0.1l0.6,4.5C271.5,106.6,271.3,106.6,271.2,106.5z"/>
					</g>
					<g>
						<path class="st1" d="M265.8,106.4l2-4.6c0-0.1,0-0.1,0-0.1l-0.2-1.5c0,0,0-0.1-0.1-0.1c-1.8-0.3-3-1.7-3.4-3.4
							c0-0.1-0.1-0.1-0.2-0.1l-5.5,1.8c-0.1,0.1-0.1,0.3,0.1,0.3l3.9-0.5c0.1,0,0.2,0.2,0.1,0.3l-3.5,2.7c-0.2,0.1-0.1,0.3,0.1,0.2
							l4.1-1.8c0.2-0.1,0.3,0.1,0.2,0.2l-2.7,3.5c-0.1,0.1,0.1,0.3,0.2,0.2l3.5-2.7c0.1-0.1,0.3,0.1,0.2,0.2l-1.8,4.1
							c-0.1,0.1,0.1,0.2,0.2,0.1l2.7-3.5c0.1-0.1,0.3,0,0.3,0.1l-0.6,4.5C265.4,106.6,265.7,106.6,265.8,106.4z"/>
					</g>
				</g>
			</g>
		</g>
		<g>
			<g>
				<path class="st1" d="M261.8,68.6c-0.3-0.3-0.8-0.3-1.1,0c-0.3,0.3-0.3,0.8,0,1.1c0.3,0.3,0.8,0.3,1.1,0
					C262.1,69.5,262.1,68.9,261.8,68.6"/>
				<path class="st1" d="M256.8,63.8c2.8,2.8,3.1,3.5,2.8,3.8c-0.3,0.2-1,0-3.8-2.8c-2.2-2.2-7.5-8.2-9.5-10.5
					c-0.1-0.1,0-0.2,0.1-0.1C248.6,56.2,254.6,61.6,256.8,63.8z"/>
				<path class="st1" d="M257.6,59.4l1.6-1.7c0-0.1,0.1-0.1,0.1,0l6.8,16.4c0,0.1,0,0.1-0.1,0.1l-16.4-6.8v-0.1l1.7-1.7h0.1l8,3
					c0.1,0,0.1,0.1,0.1,0.1c0.1,0.6,0.4,1.2,0.9,1.8c0.8,0.8,3.4,1.8,3.9,2c0.1,0,0.1-0.1,0.1-0.1c-0.2-0.5-1.1-3.1-2-3.9
					c-0.6-0.5-1.2-0.8-1.8-0.9c-0.1,0-0.1-0.1-0.1-0.1L257.6,59.4C257.6,59.4,257.6,59.3,257.6,59.4z"/>
				<g>
					<g>
						<path class="st1" d="M245.4,57.3l4.7,1.9c0.1,0,0.1,0,0.1,0l0.8,1.1c0,0.1,0,0.1,0,0.2c-1,1.5-0.9,3.4,0,4.9
							c0,0.1,0,0.2-0.1,0.2l-5.2,2.7c-0.1,0.1-0.2-0.1-0.1-0.2l3.1-2.4c0.1-0.1,0-0.3-0.1-0.3l-4.5,0.6c-0.2,0-0.3-0.2-0.1-0.3
							l4.1-1.7c0.2-0.1,0.1-0.3,0-0.3l-4.5-0.6c-0.2,0-0.2-0.3,0-0.3l4.5-0.6c0.1,0,0.1-0.2,0-0.3l-4.1-1.7
							c-0.1-0.1-0.1-0.3,0.1-0.3l4.5,0.6c0.1,0,0.2-0.2,0.1-0.3l-3.5-2.7C245.1,57.4,245.2,57.2,245.4,57.3z"/>
					</g>
					<g>
						<path class="st1" d="M249.3,53.4l1.9,4.7c0,0.1,0,0.1,0,0.1l1.1,0.8c0.1,0,0.1,0,0.2,0c1.5-1,3.4-0.9,4.9,0
							c0.1,0,0.2,0,0.2-0.1l2.7-5.2c0.1-0.1-0.1-0.2-0.2-0.1l-2.4,3.1c-0.1,0.1-0.3,0-0.3-0.1l0.6-4.5c0-0.2-0.2-0.3-0.3-0.1
							l-1.7,4.1c-0.1,0.2-0.3,0.1-0.3,0l-0.6-4.5c0-0.2-0.3-0.2-0.3,0l-0.6,4.5c0,0.1-0.2,0.1-0.3,0l-1.7-4.1
							c-0.1-0.1-0.3-0.1-0.3,0.1l0.6,4.5c0,0.1-0.2,0.2-0.3,0.1l-2.7-3.5C249.4,53.1,249.2,53.2,249.3,53.4z"/>
					</g>
				</g>
			</g>
		</g>
		<g>
			<g>
				<path class="st1" d="M275.3,84.4c0.3,0.3,0.8,0.3,1.1,0c0.3-0.3,0.3-0.8,0-1.1c-0.3-0.3-0.8-0.3-1.1,0
					C274.9,83.6,274.9,84.1,275.3,84.4"/>
				<path class="st1" d="M280.2,89.3c-2.8-2.8-3.1-3.5-2.8-3.8c0.3-0.2,1,0,3.8,2.8c2.2,2.2,7.5,8.2,9.5,10.5c0.1,0.1,0,0.2-0.1,0.1
					C288.3,96.7,282.4,91.4,280.2,89.3z"/>
				<path class="st1" d="M279.4,93.6l-1.6,1.7c0,0.1-0.1,0.1-0.1,0l-6.8-16.4c0-0.1,0-0.1,0.1-0.1l16.4,6.8v0.1l-1.7,1.7h-0.1l-8-3
					c-0.1,0-0.1-0.1-0.1-0.1c-0.1-0.6-0.4-1.2-0.9-1.8c-0.8-0.8-3.4-1.8-3.9-2c-0.1,0-0.1,0.1-0.1,0.1c0.2,0.5,1.1,3.1,2,3.9
					c0.6,0.5,1.2,0.8,1.8,0.9c0.1,0,0.1,0.1,0.1,0.1L279.4,93.6C279.4,93.6,279.4,93.7,279.4,93.6z"/>
				<g>
					<g>
						<path class="st1" d="M291.5,95.7l-4.7-1.9c-0.1,0-0.1,0-0.1,0l-0.8-1.1c0-0.1,0-0.1,0-0.2c1-1.5,0.9-3.4,0-4.9
							c0-0.1,0-0.2,0.1-0.2l5.2-2.7c0.1-0.1,0.2,0.1,0.1,0.2l-3.1,2.4c-0.1,0.1,0,0.3,0.1,0.3l4.5-0.6c0.2,0,0.3,0.2,0.1,0.3
							l-4.1,1.7c-0.2,0.1-0.1,0.3,0,0.3l4.5,0.6c0.2,0,0.2,0.3,0,0.3l-4.5,0.6c-0.1,0-0.1,0.2,0,0.3l4.1,1.7
							c0.1,0.1,0.1,0.3-0.1,0.3l-4.5-0.6c-0.1,0-0.2,0.2-0.1,0.3l3.5,2.7C291.9,95.6,291.7,95.8,291.5,95.7z"/>
					</g>
					<g>
						<path class="st1" d="M287.7,99.5l-1.9-4.7c0-0.1,0-0.1,0-0.1l-1.1-0.8c-0.1,0-0.1,0-0.2,0c-1.5,1-3.4,0.9-4.9,0
							c-0.1,0-0.2,0-0.2,0.1l-2.7,5.2c-0.1,0.1,0.1,0.2,0.2,0.1l2.4-3.1c0.1-0.1,0.3,0,0.3,0.1l-0.6,4.5c0,0.2,0.2,0.3,0.3,0.1
							l1.7-4.1c0.1-0.2,0.3-0.1,0.3,0l0.6,4.5c0,0.2,0.3,0.2,0.3,0l0.6-4.5c0-0.1,0.2-0.1,0.3,0l1.7,4.1c0.1,0.1,0.3,0.1,0.3-0.1
							l-0.6-4.5c0-0.1,0.2-0.2,0.3-0.1l2.7,3.5C287.6,99.9,287.8,99.7,287.7,99.5z"/>
					</g>
				</g>
			</g>
		</g>
		<g>
			<g>
				<path class="st1" d="M260.6,83.3c-0.3,0.3-0.3,0.8,0,1.1c0.3,0.3,0.8,0.3,1.1,0c0.3-0.3,0.3-0.8,0-1.1
					C261.5,82.9,260.9,82.9,260.6,83.3"/>
				<path class="st1" d="M255.8,88.2c2.8-2.8,3.5-3.1,3.8-2.8c0.2,0.3,0,1-2.8,3.8c-2.2,2.2-8.2,7.5-10.5,9.5
					c-0.1,0.1-0.2,0-0.1-0.1C248.2,96.3,253.5,90.4,255.8,88.2z"/>
				<path class="st1" d="M251.4,87.4l-1.7-1.6c-0.1,0-0.1-0.1,0-0.1l16.4-6.8c0.1,0,0.1,0,0.1,0.1l-6.8,16.4h-0.1l-1.7-1.7v-0.1l3-8
					c0-0.1,0.1-0.1,0.1-0.1c0.6-0.1,1.2-0.4,1.8-0.9c0.8-0.8,1.8-3.4,2-3.9c0-0.1-0.1-0.1-0.1-0.1c-0.5,0.2-3.1,1.1-3.9,2
					c-0.5,0.6-0.8,1.2-0.9,1.8c0,0.1-0.1,0.1-0.1,0.1L251.4,87.4C251.4,87.4,251.3,87.4,251.4,87.4z"/>
				<g>
					<g>
						<path class="st1" d="M249.3,99.5l1.9-4.7c0-0.1,0-0.1,0-0.1l1.1-0.8c0.1,0,0.1,0,0.2,0c1.5,1,3.4,0.9,4.9,0
							c0.1,0,0.2,0,0.2,0.1l2.7,5.2c0.1,0.1-0.1,0.2-0.2,0.1l-2.4-3.1c-0.1-0.1-0.3,0-0.3,0.1l0.6,4.5c0,0.2-0.2,0.3-0.3,0.1
							l-1.7-4.1c-0.1-0.2-0.3-0.1-0.3,0l-0.6,4.5c0,0.2-0.3,0.2-0.3,0l-0.6-4.5c0-0.1-0.2-0.1-0.3,0l-1.7,4.1
							c-0.1,0.1-0.3,0.1-0.3-0.1l0.6-4.5c0-0.1-0.2-0.2-0.3-0.1l-2.7,3.5C249.4,99.9,249.2,99.7,249.3,99.5z"/>
					</g>
					<g>
						<path class="st1" d="M245.4,95.7l4.7-1.9c0.1,0,0.1,0,0.1,0l0.8-1.1c0-0.1,0-0.1,0-0.2c-1-1.5-0.9-3.4,0-4.9
							c0-0.1,0-0.2-0.1-0.2l-5.2-2.7c-0.1-0.1-0.2,0.1-0.1,0.2l3.1,2.4c0.1,0.1,0,0.3-0.1,0.3l-4.5-0.6c-0.2,0-0.3,0.2-0.1,0.3
							l4.1,1.7c0.2,0.1,0.1,0.3,0,0.3l-4.5,0.6c-0.2,0-0.2,0.3,0,0.3l4.5,0.6c0.1,0,0.1,0.2,0,0.3l-4.1,1.7
							c-0.1,0.1-0.1,0.3,0.1,0.3l4.5-0.6c0.1,0,0.2,0.2,0.1,0.3l-3.5,2.7C245.1,95.6,245.2,95.8,245.4,95.7z"/>
					</g>
				</g>
			</g>
		</g>
		<g>
			<g>
				<path class="st1" d="M276.4,69.8c0.3-0.3,0.3-0.8,0-1.1c-0.3-0.3-0.8-0.3-1.1,0c-0.3,0.3-0.3,0.8,0,1.1
					C275.6,70.1,276.1,70.1,276.4,69.8"/>
				<path class="st1" d="M281.3,64.8c-2.8,2.8-3.5,3.1-3.8,2.8c-0.2-0.3,0-1,2.8-3.8c2.2-2.2,8.2-7.5,10.5-9.5
					c0.1-0.1,0.2,0,0.1,0.1C288.7,56.7,283.4,62.6,281.3,64.8z"/>
				<path class="st1" d="M285.6,65.6l1.7,1.6c0.1,0,0.1,0.1,0,0.1l-16.4,6.8c-0.1,0-0.1,0-0.1-0.1l6.8-16.4h0.1l1.7,1.7v0.1l-3,8
					c0,0.1-0.1,0.1-0.1,0.1c-0.6,0.1-1.2,0.4-1.8,0.9c-0.8,0.8-1.8,3.4-2,3.9c0,0.1,0.1,0.1,0.1,0.1c0.5-0.2,3.1-1.1,3.9-2
					c0.5-0.6,0.8-1.2,0.9-1.8c0-0.1,0.1-0.1,0.1-0.1L285.6,65.6C285.6,65.6,285.7,65.6,285.6,65.6z"/>
				<g>
					<g>
						<path class="st1" d="M287.7,53.4l-1.9,4.7c0,0.1,0,0.1,0,0.1l-1.1,0.8c-0.1,0-0.1,0-0.2,0c-1.5-1-3.4-0.9-4.9,0
							c-0.1,0-0.2,0-0.2-0.1l-2.7-5.2c-0.1-0.1,0.1-0.2,0.2-0.1l2.4,3.1c0.1,0.1,0.3,0,0.3-0.1l-0.6-4.5c0-0.2,0.2-0.3,0.3-0.1
							l1.7,4.1c0.1,0.2,0.3,0.1,0.3,0l0.6-4.5c0-0.2,0.3-0.2,0.3,0l0.6,4.5c0,0.1,0.2,0.1,0.3,0l1.7-4.1c0.1-0.1,0.3-0.1,0.3,0.1
							l-0.6,4.5c0,0.1,0.2,0.2,0.3,0.1l2.7-3.5C287.6,53.1,287.8,53.2,287.7,53.4z"/>
					</g>
					<g>
						<path class="st1" d="M291.5,57.3l-4.7,1.9c-0.1,0-0.1,0-0.1,0l-0.8,1.1c0,0.1,0,0.1,0,0.2c1,1.5,0.9,3.4,0,4.9
							c0,0.1,0,0.2,0.1,0.2l5.2,2.7c0.1,0.1,0.2-0.1,0.1-0.2l-3.1-2.4c-0.1-0.1,0-0.3,0.1-0.3l4.5,0.6c0.2,0,0.3-0.2,0.1-0.3
							l-4.1-1.7c-0.2-0.1-0.1-0.3,0-0.3l4.5-0.6c0.2,0,0.2-0.3,0-0.3l-4.5-0.6c-0.1,0-0.1-0.2,0-0.3l4.1-1.7
							c0.1-0.1,0.1-0.3-0.1-0.3l-4.5,0.6c-0.1,0-0.2-0.2-0.1-0.3l3.5-2.7C291.9,57.4,291.7,57.2,291.5,57.3z"/>
					</g>
				</g>
			</g>
		</g>
	</g>
	<g>
		<g>
			<g>
				<path class="st1" d="M357.8,9.6c0.8,0,1.6-0.7,1.7-1.7c0-0.9-0.7-1.7-1.7-1.7c-0.9,0-1.7,0.7-1.7,1.7S356.8,9.6,357.8,9.6"/>
				<path class="st1" d="M371.7,9.5c-7.8,0-9.3-0.7-9.3-1.6s1.6-1.6,9.3-1.6c6.1,0,22,0.9,28.2,1.3c0.2,0.1,0.2,0.4,0,0.4
					C393.7,8.5,377.8,9.5,371.7,9.5z"/>
				<path class="st1" d="M376.7,16.8v4.6c0,0.2-0.1,0.2-0.2,0.2L343.6,8c-0.1,0-0.1-0.2,0-0.3l33-13.6c0.1,0,0.2,0.1,0.2,0.2v4.6
					c0,0.1,0,0.2-0.1,0.2l-15.5,7c-0.1,0-0.1,0-0.2,0C360,5.4,358.7,5,357.1,5c-2.4,0-7.4,2.3-8.3,2.8c-0.1,0.1-0.1,0.2,0,0.2
					c1,0.4,5.9,2.8,8.3,2.8c1.6,0,2.9-0.4,3.7-1.1c0.1,0,0.1,0,0.2,0l15.5,7C376.7,16.7,376.7,16.8,376.7,16.8z"/>
				<g>
					<g>
						<path class="st1" d="M396.9,2.4l-9.2,4h-0.1l-2.8-0.3c-0.2,0-0.3-0.1-0.3-0.2c-0.6-3.4-3.4-6.1-6.8-6.8
							c-0.2-0.1-0.3-0.2-0.2-0.4l3.5-11.1c0.1-0.3,0.5-0.2,0.5,0.1l-1,7.9c0,0.3,0.3,0.4,0.5,0.2l5.4-7c0.2-0.2,0.6,0,0.5,0.3
							l-3.4,8.2c-0.1,0.2,0.2,0.5,0.4,0.3l7-5.4c0.3-0.2,0.6,0.1,0.4,0.4l-5.4,7c-0.2,0.2,0,0.5,0.3,0.4l8.2-3.4
							c0.3-0.1,0.6,0.3,0.3,0.5l-7,5.4c-0.2,0.2-0.1,0.5,0.2,0.5l8.8-1.1C397,1.8,397.3,2.3,396.9,2.4z"/>
					</g>
					<g>
						<path class="st1" d="M396.9,13.5l-9.2-4h-0.1l-2.8,0.3c-0.2,0-0.3,0.1-0.3,0.2c-0.6,3.4-3.4,6.1-6.8,6.8
							c-0.2,0.1-0.3,0.2-0.2,0.4l3.5,11.1c0.1,0.3,0.5,0.2,0.5-0.1l-1-7.9c0-0.3,0.3-0.4,0.5-0.2l5.4,7c0.2,0.2,0.6,0,0.5-0.3
							l-3.4-8.2c-0.1-0.2,0.2-0.5,0.4-0.3l7,5.4c0.3,0.2,0.6-0.1,0.4-0.4l-5.4-7c-0.2-0.2,0-0.5,0.3-0.4l8.2,3.4
							c0.3,0.1,0.6-0.3,0.3-0.5l-7-5.4c-0.2-0.2-0.1-0.5,0.2-0.5l8.8,1.1C397,14,397.3,13.6,396.9,13.5z"/>
					</g>
				</g>
			</g>
		</g>
		<g>
			<g>
				<path class="st1" d="M316.3,6.3c-0.9,0-1.7,0.7-1.7,1.7s0.7,1.7,1.7,1.7c0.9,0,1.7-0.7,1.7-1.7S317.2,6.3,316.3,6.3"/>
				<path class="st1" d="M302.3,6.4c7.8,0,9.3,0.7,9.3,1.6c0,0.8-1.6,1.6-9.3,1.6c-6.1,0-22-0.9-28.2-1.3c-0.2-0.1-0.2-0.4,0-0.4
					C280.3,7.4,296.2,6.4,302.3,6.4z"/>
				<path class="st1" d="M297.3-0.9v-4.6c0-0.2,0.1-0.2,0.2-0.2l33,13.6c0.1,0,0.1,0.2,0,0.3l-33,13.6c-0.1,0-0.2-0.1-0.2-0.2V17
					c0-0.1,0-0.2,0.1-0.2l15.5-7c0.1,0,0.1,0,0.2,0c0.8,0.7,2.2,1.1,3.7,1.1c2.4,0,7.4-2.3,8.3-2.8c0.1-0.1,0.1-0.2,0-0.2
					c-1-0.4-5.9-2.8-8.3-2.8c-1.6,0-2.9,0.4-3.7,1.1c-0.1,0-0.1,0-0.2,0l-15.5-7C297.3-0.8,297.3-0.9,297.3-0.9z"/>
				<g>
					<g>
						<path class="st1" d="M277,13.5l9.2-4h0.1l2.8,0.3c0.2,0,0.3,0.1,0.3,0.2c0.6,3.4,3.4,6.1,6.8,6.8c0.2,0.1,0.3,0.2,0.2,0.4
							L293,28.3c-0.1,0.3-0.5,0.2-0.5-0.1l1-7.9c0-0.3-0.3-0.4-0.5-0.2l-5.4,7c-0.2,0.2-0.6,0-0.5-0.3l3.4-8.2
							c0.1-0.2-0.2-0.5-0.4-0.3l-7,5.4c-0.3,0.2-0.6-0.1-0.4-0.4l5.4-7c0.2-0.2,0-0.5-0.3-0.4l-8.2,3.4c-0.3,0.1-0.6-0.3-0.3-0.5
							l7-5.4c0.2-0.2,0.1-0.5-0.2-0.5l-8.8,1.1C276.9,14,276.8,13.6,277,13.5z"/>
					</g>
					<g>
						<path class="st1" d="M277,2.4l9.2,4h0.1l2.8-0.3c0.2,0,0.3-0.1,0.3-0.2c0.6-3.4,3.4-6.1,6.8-6.8c0.2-0.1,0.3-0.2,0.2-0.4
							L293-12.4c-0.1-0.3-0.5-0.2-0.5,0.1l1,7.9c0,0.3-0.3,0.4-0.5,0.2l-5.4-7c-0.2-0.2-0.6,0-0.5,0.3l3.4,8.2
							c0.1,0.2-0.2,0.5-0.4,0.3l-7-5.4c-0.3-0.2-0.6,0.1-0.4,0.4l5.4,7c0.2,0.2,0,0.5-0.3,0.4l-8.2-3.4c-0.3-0.1-0.6,0.3-0.3,0.5
							l7,5.4c0.2,0.2,0.1,0.5-0.2,0.5l-8.8-1.1C276.9,1.8,276.8,2.3,277,2.4z"/>
					</g>
				</g>
			</g>
		</g>
		<g>
			<g>
				<path class="st1" d="M338.6-12.8c0-0.8-0.7-1.6-1.7-1.7c-0.9,0-1.7,0.7-1.7,1.7c0,0.9,0.7,1.7,1.7,1.7
					C337.9-11.2,338.6-11.9,338.6-12.8"/>
				<path class="st1" d="M338.6-26.7c0,7.8-0.7,9.3-1.6,9.3s-1.6-1.6-1.6-9.3c0-6.1,0.9-22,1.3-28.2c0.1-0.2,0.4-0.2,0.4,0
					C337.7-48.8,338.6-32.8,338.6-26.7z"/>
				<path class="st1" d="M345.8-31.8h4.6c0.2,0,0.2,0.1,0.2,0.2L337,1.4c0,0.1-0.2,0.1-0.3,0l-13.6-33c0-0.1,0.1-0.2,0.2-0.2h4.6
					c0.1,0,0.2,0,0.2,0.1l7,15.5c0,0.1,0,0.1,0,0.2c-0.7,0.8-1.1,2.2-1.1,3.7c0,2.4,2.3,7.4,2.8,8.3c0.1,0.1,0.2,0.1,0.2,0
					c0.4-1,2.8-5.9,2.8-8.3c0-1.6-0.4-2.9-1.1-3.7c0-0.1,0-0.1,0-0.2l7-15.5C345.8-31.7,345.8-31.8,345.8-31.8z"/>
				<g>
					<g>
						<path class="st1" d="M331.4-52l4,9.2v0.1l-0.3,2.8c0,0.2-0.1,0.3-0.2,0.3c-3.4,0.6-6.1,3.4-6.8,6.8c-0.1,0.2-0.2,0.3-0.4,0.2
							l-11.1-3.5c-0.3-0.1-0.2-0.5,0.1-0.5l7.9,1c0.3,0,0.4-0.3,0.2-0.5l-7-5.4c-0.2-0.2,0-0.6,0.3-0.5l8.2,3.4
							c0.2,0.1,0.5-0.2,0.3-0.4l-5.4-7c-0.2-0.3,0.1-0.6,0.4-0.4l7,5.4c0.2,0.2,0.5,0,0.4-0.3l-3.4-8.2c-0.1-0.3,0.3-0.6,0.5-0.3
							l5.4,7c0.2,0.2,0.5,0.1,0.5-0.2l-1.1-8.8C330.9-52.1,331.3-52.3,331.4-52z"/>
					</g>
					<g>
						<path class="st1" d="M342.5-52l-4,9.2v0.1l0.3,2.8c0,0.2,0.1,0.3,0.2,0.3c3.4,0.6,6.1,3.4,6.8,6.8c0.1,0.2,0.2,0.3,0.4,0.2
							l11.1-3.5c0.3-0.1,0.2-0.5-0.1-0.5l-7.9,1c-0.3,0-0.4-0.3-0.2-0.5l7-5.4c0.2-0.2,0-0.6-0.3-0.5l-8.2,3.4
							c-0.2,0.1-0.5-0.2-0.3-0.4l5.4-7c0.2-0.3-0.1-0.6-0.4-0.4l-7,5.4c-0.2,0.2-0.5,0-0.4-0.3l3.4-8.2c0.1-0.3-0.3-0.6-0.5-0.3
							l-5.4,7c-0.2,0.2-0.5,0.1-0.5-0.2l1.1-8.8C343.1-52.1,342.6-52.3,342.5-52z"/>
					</g>
				</g>
			</g>
		</g>
		<g>
			<g>
				<path class="st1" d="M335.4,28.6c0,0.9,0.7,1.7,1.7,1.7c0.9,0,1.7-0.7,1.7-1.7c0-0.9-0.7-1.7-1.7-1.7S335.4,27.7,335.4,28.6"/>
				<path class="st1" d="M335.5,42.6c0-7.8,0.7-9.3,1.6-9.3s1.6,1.6,1.6,9.3c0,6.1-0.9,22-1.3,28.2c-0.1,0.2-0.4,0.2-0.4,0
					C336.4,64.6,335.5,48.7,335.5,42.6z"/>
				<path class="st1" d="M328.1,47.6h-4.6c-0.2,0-0.2-0.1-0.2-0.2l13.6-32.9c0-0.1,0.2-0.1,0.3,0l13.6,33c0,0.1-0.1,0.2-0.2,0.2H346
					c-0.1,0-0.2,0-0.2-0.1l-7-15.5c0-0.1,0-0.1,0-0.2c0.7-0.8,1.1-2.2,1.1-3.7c0-2.4-2.3-7.4-2.8-8.3c-0.1-0.1-0.2-0.1-0.2,0
					c-0.4,1-2.8,5.9-2.8,8.3c0,1.6,0.4,2.9,1.1,3.7c0,0.1,0,0.1,0,0.2l-7,15.5C328.2,47.6,328.1,47.7,328.1,47.6z"/>
				<g>
					<g>
						<path class="st1" d="M342.5,67.9l-4-9.2v-0.1l0.3-2.8c0-0.2,0.1-0.3,0.2-0.3c3.4-0.6,6.1-3.4,6.8-6.8c0.1-0.2,0.2-0.3,0.4-0.2
							l11.1,3.5c0.3,0.1,0.2,0.5-0.1,0.5l-7.9-1c-0.3,0-0.4,0.3-0.2,0.5l7,5.4c0.2,0.2,0,0.6-0.3,0.5l-8.2-3.4
							c-0.2-0.1-0.5,0.2-0.3,0.4l5.4,7c0.2,0.3-0.1,0.6-0.4,0.4l-7-5.4c-0.2-0.2-0.5,0-0.4,0.3l3.4,8.2c0.1,0.3-0.3,0.6-0.5,0.3
							l-5.4-7c-0.2-0.2-0.5-0.1-0.5,0.2l1.1,8.8C343.1,68,342.6,68.1,342.5,67.9z"/>
					</g>
					<g>
						<path class="st1" d="M331.4,67.9l4-9.2v-0.1l-0.3-2.8c0-0.2-0.1-0.3-0.2-0.3c-3.4-0.6-6.1-3.4-6.8-6.8
							c-0.1-0.2-0.2-0.3-0.4-0.2l-11.1,3.5c-0.3,0.1-0.2,0.5,0.1,0.5l7.9-1c0.3,0,0.4,0.3,0.2,0.5l-7,5.4c-0.2,0.2,0,0.6,0.3,0.5
							l8.2-3.4c0.2-0.1,0.5,0.2,0.3,0.4l-5.4,7c-0.2,0.3,0.1,0.6,0.4,0.4l7-5.4c0.2-0.2,0.5,0,0.4,0.3l-3.4,8.2
							c-0.1,0.3,0.3,0.6,0.5,0.3l5.4-7c0.2-0.2,0.5-0.1,0.5,0.2l-1.1,8.8C330.9,68,331.3,68.1,331.4,67.9z"/>
					</g>
				</g>
			</g>
		</g>
		<g>
			<g>
				<path class="st1" d="M323.5-7.9c-0.6-0.6-1.7-0.6-2.3,0c-0.6,0.6-0.6,1.7,0,2.3c0.6,0.6,1.7,0.6,2.3,0
					C324.1-6.2,324.1-7.2,323.5-7.9"/>
				<path class="st1" d="M313.5-17.7c5.5,5.5,6.1,7,5.5,7.7c-0.6,0.6-2.2,0-7.7-5.5c-4.4-4.2-14.9-16.2-19-20.8
					c-0.1-0.2,0.1-0.4,0.3-0.3C297.3-32.5,309.3-22,313.5-17.7z"/>
				<path class="st1" d="M315.2-26.5l3.2-3.2c0.1,0,0.3,0,0.3,0.1l13.7,32.9c0.1,0.1-0.1,0.3-0.2,0.2l-32.9-13.7
					c-0.2-0.1-0.2-0.2-0.1-0.3l3.2-3.2c0.1,0,0.1,0,0.2,0l16,6c0,0,0.1,0,0.1,0.1c0.1,1,0.8,2.4,1.9,3.4c1.7,1.7,6.8,3.5,7.9,3.8
					c0.1,0,0.1,0,0.1-0.1c-0.3-1-2.2-6.2-3.8-7.9c-1-1.1-2.3-1.8-3.4-1.9c0,0-0.1,0-0.1-0.1l-6-16C315.2-26.3,315.2-26.4,315.2-26.5
					z"/>
				<g>
					<g>
						<path class="st1" d="M290.8-30.6l9.3,3.6l0.1,0.1l1.8,2.3c0.1,0.1,0.1,0.2,0,0.3c-2,3-2,6.7,0,9.7c0.1,0.1,0,0.3-0.1,0.4
							l-10.4,5.3c-0.3,0.1-0.6-0.3-0.3-0.5l6.3-4.8c0.2-0.2,0.1-0.5-0.2-0.5l-8.8,1.1c-0.3,0.1-0.4-0.4-0.1-0.5l8.2-3.4
							c0.2-0.1,0.2-0.5-0.1-0.5l-8.8-1.1c-0.3-0.1-0.3-0.6,0-0.6l8.8-1.1c0.3,0,0.4-0.4,0.1-0.5l-8.2-3.4c-0.3-0.1-0.2-0.5,0.1-0.5
							l8.8,1.1c0.3,0,0.4-0.3,0.2-0.5l-7-5.4C290.2-30.2,290.5-30.7,290.8-30.6z"/>
					</g>
					<g>
						<path class="st1" d="M298.6-38.3l3.6,9.3l0.1,0.1l2.3,1.8c0.1,0.1,0.2,0.1,0.3,0c3-2,6.7-2,9.7,0c0.1,0.1,0.3,0,0.4-0.1
							l5.3-10.4c0.1-0.3-0.3-0.6-0.5-0.3l-4.8,6.3c-0.2,0.2-0.5,0.1-0.5-0.2l1.1-8.8c0.1-0.3-0.4-0.4-0.5-0.1l-3.4,8.2
							c-0.1,0.2-0.5,0.2-0.5-0.1l-1.1-8.8c-0.1-0.3-0.6-0.3-0.6,0l-1.1,8.8c0,0.3-0.4,0.4-0.5,0.1l-3.4-8.2
							c-0.1-0.3-0.5-0.2-0.5,0.1l1.1,8.8c0,0.3-0.3,0.4-0.5,0.2l-5.4-7C298.9-38.9,298.4-38.6,298.6-38.3z"/>
					</g>
				</g>
			</g>
		</g>
		<g>
			<g>
				<path class="st1" d="M350.5,23.8c0.6,0.6,1.7,0.6,2.3,0c0.6-0.6,0.6-1.7,0-2.3c-0.6-0.6-1.7-0.6-2.3,0
					C349.9,22.1,349.9,23.1,350.5,23.8"/>
				<path class="st1" d="M360.5,33.6c-5.5-5.5-6.1-7-5.5-7.7c0.6-0.6,2.2,0,7.7,5.5c4.4,4.2,14.9,16.2,19,20.8
					c0.1,0.2-0.1,0.4-0.3,0.3C376.6,48.4,364.8,37.9,360.5,33.6z"/>
				<path class="st1" d="M358.8,42.3l-3.2,3.2c-0.1,0-0.3,0-0.3-0.1l-13.7-32.9c-0.1-0.1,0.1-0.3,0.2-0.2L374.7,26
					c0.2,0.1,0.2,0.2,0.1,0.3l-3.2,3.2c-0.1,0-0.1,0-0.2,0l-16-6c0,0-0.1,0-0.1-0.1c-0.1-1-0.8-2.4-1.9-3.4
					c-1.7-1.7-6.8-3.5-7.9-3.8c-0.1,0-0.1,0-0.1,0.1c0.3,1,2.2,6.2,3.8,7.9c1,1.1,2.3,1.8,3.4,1.9c0,0,0.1,0,0.1,0.1l6,16
					C358.8,42.2,358.8,42.3,358.8,42.3z"/>
				<g>
					<g>
						<path class="st1" d="M383.3,46.5l-9.3-3.6l-0.1-0.1l-1.8-2.3c-0.1-0.1-0.1-0.2,0-0.3c2-3,2-6.7,0-9.7c-0.1-0.1,0-0.3,0.1-0.4
							l10.4-5.3c0.3-0.1,0.6,0.3,0.3,0.5l-6.3,4.8c-0.2,0.2-0.1,0.5,0.2,0.5l8.8-1.1c0.3-0.1,0.4,0.4,0.1,0.5l-8.2,3.4
							c-0.2,0.1-0.2,0.5,0.1,0.5l8.8,1.1c0.3,0.1,0.3,0.6,0,0.6l-8.8,1.1c-0.3,0-0.4,0.4-0.1,0.5l8.2,3.4c0.3,0.1,0.2,0.5-0.1,0.5
							l-8.8-1.1c-0.3,0-0.4,0.3-0.2,0.5l7,5.4C383.8,46.1,383.6,46.6,383.3,46.5z"/>
					</g>
					<g>
						<path class="st1" d="M375.5,54.1l-3.6-9.3l-0.1-0.1l-2.3-1.8c-0.1-0.1-0.2-0.1-0.3,0c-3,2-6.7,2-9.7,0c-0.1-0.1-0.3,0-0.4,0.1
							l-5.3,10.4c-0.1,0.3,0.3,0.6,0.5,0.3l4.8-6.3c0.2-0.2,0.5-0.1,0.5,0.2l-1.1,8.8c-0.1,0.3,0.4,0.4,0.5,0.1l3.4-8.2
							c0.1-0.2,0.5-0.2,0.5,0.1l1.1,8.8c0.1,0.3,0.6,0.3,0.6,0l1.1-8.8c0-0.3,0.4-0.4,0.5-0.1l3.4,8.2c0.1,0.3,0.5,0.2,0.5-0.1
							l-1.1-8.8c0-0.3,0.3-0.4,0.5-0.2l5.4,7C375.2,54.7,375.6,54.5,375.5,54.1z"/>
					</g>
				</g>
			</g>
		</g>
		<g>
			<g>
				<path class="st1" d="M321.2,21.5c-0.6,0.6-0.6,1.7,0,2.3c0.6,0.6,1.7,0.6,2.3,0c0.6-0.6,0.6-1.7,0-2.3
					C322.8,20.9,321.8,20.9,321.2,21.5"/>
				<path class="st1" d="M311.4,31.4c5.5-5.5,7-6.1,7.7-5.5c0.6,0.6,0,2.2-5.5,7.7c-4.2,4.4-16.2,14.9-20.8,19
					c-0.2,0.1-0.4-0.1-0.3-0.3C296.5,47.6,307.1,35.7,311.4,31.4z"/>
				<path class="st1" d="M302.5,29.7l-3.2-3.2c0-0.1,0-0.3,0.1-0.3l32.9-13.7c0.1-0.1,0.3,0.1,0.2,0.2l-13.6,33
					c-0.1,0.2-0.2,0.2-0.3,0.1l-3.2-3.2c0-0.1,0-0.1,0-0.2l6-16c0,0,0-0.1,0.1-0.1c1-0.1,2.4-0.8,3.4-1.9c1.7-1.7,3.5-6.8,3.8-7.9
					c0-0.1,0-0.1-0.1-0.1c-1,0.3-6.2,2.2-7.9,3.8c-1.1,1-1.8,2.3-1.9,3.4c0,0,0,0.1-0.1,0.1l-16,6C302.7,29.8,302.6,29.8,302.5,29.7
					z"/>
				<g>
					<g>
						<path class="st1" d="M298.6,54.1l3.6-9.3l0.1-0.1l2.3-1.8c0.1-0.1,0.2-0.1,0.3,0c3,2,6.7,2,9.7,0c0.1-0.1,0.3,0,0.4,0.1
							l5.3,10.4c0.1,0.3-0.3,0.6-0.5,0.3l-4.8-6.3c-0.2-0.2-0.5-0.1-0.5,0.2l1.1,8.8c0.1,0.3-0.4,0.4-0.5,0.1l-3.4-8.2
							c-0.1-0.2-0.5-0.2-0.5,0.1l-1.1,8.8c-0.1,0.3-0.6,0.3-0.6,0l-1.1-8.8c0-0.3-0.4-0.4-0.5-0.1l-3.4,8.2
							c-0.1,0.3-0.5,0.2-0.5-0.1l1.1-8.8c0-0.3-0.3-0.4-0.5-0.2l-5.4,7C298.9,54.7,298.4,54.5,298.6,54.1z"/>
					</g>
					<g>
						<path class="st1" d="M290.8,46.4l9.3-3.6l0.1-0.1l1.8-2.3c0.1-0.1,0.1-0.2,0-0.3c-2-3-2-6.7,0-9.7c0.1-0.1,0-0.3-0.1-0.4
							l-10.4-5.3c-0.3-0.1-0.6,0.3-0.3,0.5l6.3,4.9c0.2,0.2,0.1,0.5-0.2,0.5l-8.8-1.1c-0.3-0.1-0.4,0.4-0.1,0.5l8.2,3.4
							c0.2,0.1,0.2,0.5-0.1,0.5l-8.8,1.1c-0.3,0.1-0.3,0.6,0,0.6l8.8,1.1c0.3,0,0.4,0.4,0.1,0.5l-8.2,3.4c-0.3,0.1-0.2,0.5,0.1,0.5
							l8.8-1.1c0.3,0,0.4,0.3,0.2,0.5l-7,5.4C290.2,46.1,290.5,46.6,290.8,46.4z"/>
					</g>
				</g>
			</g>
		</g>
		<g>
			<g>
				<path class="st1" d="M352.8-5.6c0.6-0.6,0.6-1.7,0-2.3c-0.6-0.6-1.7-0.6-2.3,0c-0.6,0.6-0.6,1.7,0,2.3
					C351.1-5,352.2-5,352.8-5.6"/>
				<path class="st1" d="M362.6-15.5c-5.5,5.5-7,6.1-7.7,5.5c-0.6-0.6,0-2.2,5.5-7.7c4.2-4.4,16.2-14.9,20.8-19
					c0.2-0.1,0.4,0.1,0.3,0.3C377.6-31.7,367-19.8,362.6-15.5z"/>
				<path class="st1" d="M371.4-13.9l3.2,3.2c0,0.1,0,0.3-0.1,0.3L341.7,3.3c-0.1,0.1-0.3-0.1-0.2-0.2l13.7-32.9
					c0.1-0.2,0.2-0.2,0.3-0.1l3.2,3.2c0,0.1,0,0.1,0,0.2l-6,16c0,0,0,0.1-0.1,0.1c-1,0.1-2.4,0.8-3.4,1.9c-1.7,1.7-3.5,6.8-3.8,7.9
					c0,0.1,0,0.1,0.1,0.1c1-0.3,6.2-2.2,7.9-3.8c1.1-1,1.8-2.3,1.9-3.4c0,0,0-0.1,0.1-0.1l16-6C371.2-13.9,371.3-13.9,371.4-13.9z"
					/>
				<g>
					<g>
						<path class="st1" d="M375.5-38.3l-3.6,9.3l-0.1,0.1l-2.3,1.8c-0.1,0.1-0.2,0.1-0.3,0c-3-2-6.7-2-9.7,0c-0.1,0.1-0.3,0-0.4-0.1
							l-5.3-10.4c-0.1-0.3,0.3-0.6,0.5-0.3l4.8,6.3c0.2,0.2,0.5,0.1,0.5-0.2l-1.1-8.8c-0.1-0.3,0.4-0.4,0.5-0.1l3.4,8.2
							c0.1,0.2,0.5,0.2,0.5-0.1l1.1-8.8c0.1-0.3,0.6-0.3,0.6,0l1.1,8.8c0,0.3,0.4,0.4,0.5,0.1l3.4-8.2c0.1-0.3,0.5-0.2,0.5,0.1
							l-1.1,8.8c0,0.3,0.3,0.4,0.5,0.2l5.4-7C375.2-38.9,375.6-38.6,375.5-38.3z"/>
					</g>
					<g>
						<path class="st1" d="M383.3-30.6l-9.3,3.6l-0.1,0.1l-1.8,2.3c-0.1,0.1-0.1,0.2,0,0.3c2,3,2,6.7,0,9.7c-0.1,0.1,0,0.3,0.1,0.4
							l10.4,5.3c0.3,0.1,0.6-0.3,0.3-0.5l-6.3-4.8c-0.2-0.2-0.1-0.5,0.2-0.5l8.8,1.1c0.3,0.1,0.4-0.4,0.1-0.5l-8.2-3.4
							c-0.2-0.1-0.2-0.5,0.1-0.5l8.8-1.1c0.3-0.1,0.3-0.6,0-0.6l-8.8-1.1c-0.3,0-0.4-0.4-0.1-0.5l8.2-3.4c0.3-0.1,0.2-0.5-0.1-0.5
							l-8.8,1.1c-0.3,0-0.4-0.3-0.2-0.5l7-5.4C383.8-30.2,383.6-30.7,383.3-30.6z"/>
					</g>
				</g>
			</g>
		</g>
	</g>
	<g>
		<g>
			<g>
				<path class="st1" d="M201.7-12.8c0-0.8-0.7-1.6-1.7-1.7c-0.9,0-1.7,0.7-1.7,1.7c0,0.9,0.7,1.7,1.7,1.7
					C200.9-11.2,201.7-11.9,201.7-12.8"/>
				<path class="st1" d="M201.6-26.7c0,7.8-0.7,9.3-1.6,9.3s-1.6-1.6-1.6-9.3c0-6.1,0.9-22,1.3-28.2c0.1-0.2,0.4-0.2,0.4,0
					C200.6-48.8,201.6-32.8,201.6-26.7z"/>
				<path class="st1" d="M208.9-31.8h4.6c0.2,0,0.2,0.1,0.2,0.2l-13.6,33c0,0.1-0.2,0.1-0.3,0l-13.6-33c0-0.1,0.1-0.2,0.2-0.2h4.6
					c0.1,0,0.2,0,0.2,0.1l7,15.5c0,0.1,0,0.1,0,0.2c-0.7,0.8-1.1,2.2-1.1,3.7c0,2.4,2.3,7.4,2.8,8.3c0.1,0.1,0.2,0.1,0.2,0
					c0.4-1,2.8-5.9,2.8-8.3c0-1.6-0.4-2.9-1.1-3.7c0-0.1,0-0.1,0-0.2l7-15.5C208.8-31.7,208.8-31.8,208.9-31.8z"/>
				<g>
					<g>
						<path class="st1" d="M194.4-52l4,9.2v0.1l-0.3,2.8c0,0.2-0.1,0.3-0.2,0.3c-3.4,0.6-6.1,3.4-6.8,6.8c-0.1,0.2-0.2,0.3-0.4,0.2
							l-11.1-3.5c-0.3-0.1-0.2-0.5,0.1-0.5l7.9,1c0.3,0,0.4-0.3,0.2-0.5l-7-5.4c-0.2-0.2,0-0.6,0.3-0.5l8.2,3.4
							c0.2,0.1,0.5-0.2,0.3-0.4l-5.4-7c-0.2-0.3,0.1-0.6,0.4-0.4l7,5.4c0.2,0.2,0.5,0,0.4-0.3l-3.4-8.2c-0.1-0.3,0.3-0.6,0.5-0.3
							l5.4,7c0.2,0.2,0.5,0.1,0.5-0.2l-1.1-8.8C193.9-52.1,194.4-52.3,194.4-52z"/>
					</g>
					<g>
						<path class="st1" d="M205.5-52l-4,9.2v0.1l0.3,2.8c0,0.2,0.1,0.3,0.2,0.3c3.4,0.6,6.1,3.4,6.8,6.8c0.1,0.2,0.2,0.3,0.4,0.2
							l11.1-3.5c0.3-0.1,0.2-0.5-0.1-0.5l-7.9,1c-0.3,0-0.4-0.3-0.2-0.5l7-5.4c0.2-0.2,0-0.6-0.3-0.5l-8.2,3.4
							c-0.2,0.1-0.5-0.2-0.3-0.4l5.4-7c0.2-0.3-0.1-0.6-0.4-0.4l-7,5.4c-0.2,0.2-0.5,0-0.4-0.3l3.4-8.2c0.1-0.3-0.3-0.6-0.5-0.3
							l-5.4,7c-0.2,0.2-0.5,0.1-0.5-0.2l1.1-8.8C206.1-52.1,205.6-52.3,205.5-52z"/>
					</g>
				</g>
			</g>
		</g>
		<g>
			<g>
				<path class="st1" d="M198.3,28.6c0,0.9,0.7,1.7,1.7,1.7c0.9,0,1.7-0.7,1.7-1.7c0-0.9-0.7-1.7-1.7-1.7
					C199.1,27,198.3,27.7,198.3,28.6"/>
				<path class="st1" d="M198.4,42.6c0-7.8,0.7-9.3,1.6-9.3s1.6,1.6,1.6,9.3c0,6.1-0.9,22-1.3,28.2c-0.1,0.2-0.4,0.2-0.4,0
					C199.4,64.6,198.4,48.7,198.4,42.6z"/>
				<path class="st1" d="M191.1,47.7h-4.6c-0.2,0-0.2-0.1-0.2-0.2l13.6-33c0-0.1,0.2-0.1,0.3,0l13.6,33c0,0.1-0.1,0.2-0.2,0.2H209
					c-0.1,0-0.2,0-0.2-0.1l-7-15.5c0-0.1,0-0.1,0-0.2c0.7-0.8,1.1-2.2,1.1-3.7c0-2.4-2.3-7.4-2.8-8.3c-0.1-0.1-0.2-0.1-0.2,0
					c-0.4,1-2.8,5.9-2.8,8.3c0,1.6,0.4,2.9,1.1,3.7c0,0.1,0,0.1,0,0.2l-7,15.5C191.2,47.6,191.2,47.7,191.1,47.7z"/>
				<g>
					<g>
						<path class="st1" d="M205.5,67.9l-4-9.2v-0.1l0.3-2.8c0-0.2,0.1-0.3,0.2-0.3c3.4-0.6,6.1-3.4,6.8-6.8c0.1-0.2,0.2-0.3,0.4-0.2
							l11.1,3.5c0.3,0.1,0.2,0.5-0.1,0.5l-7.9-1c-0.3,0-0.4,0.3-0.2,0.5l7,5.4c0.2,0.2,0,0.6-0.3,0.5l-8.2-3.4
							c-0.2-0.1-0.5,0.2-0.3,0.4l5.4,7c0.2,0.3-0.1,0.6-0.4,0.4l-7-5.4c-0.2-0.2-0.5,0-0.4,0.3l3.4,8.2c0.1,0.3-0.3,0.6-0.5,0.3
							l-5.4-7c-0.2-0.2-0.5-0.1-0.5,0.2l1.1,8.8C206.1,68,205.6,68.1,205.5,67.9z"/>
					</g>
					<g>
						<path class="st1" d="M194.4,67.9l4-9.2v-0.1l-0.3-2.8c0-0.2-0.1-0.3-0.2-0.3c-3.4-0.6-6.1-3.4-6.8-6.8
							c-0.1-0.2-0.2-0.3-0.4-0.2l-11.1,3.5c-0.3,0.1-0.2,0.5,0.1,0.5l7.9-1c0.3,0,0.4,0.3,0.2,0.5l-7,5.4c-0.2,0.2,0,0.6,0.3,0.5
							l8.2-3.4c0.2-0.1,0.5,0.2,0.3,0.4l-5.4,7c-0.2,0.3,0.1,0.6,0.4,0.4l7-5.4c0.2-0.2,0.5,0,0.4,0.3l-3.4,8.2
							c-0.1,0.3,0.3,0.6,0.5,0.3l5.4-7c0.2-0.2,0.5-0.1,0.5,0.2l-1.1,8.8C193.9,68,194.4,68.1,194.4,67.9z"/>
					</g>
				</g>
			</g>
		</g>
		<g>
			<g>
				<path class="st1" d="M179.3,6.3c-0.9,0-1.7,0.7-1.7,1.7s0.7,1.7,1.7,1.7c0.9,0,1.7-0.7,1.7-1.7S180.2,6.3,179.3,6.3"/>
				<path class="st1" d="M165.3,6.4c7.8,0,9.3,0.7,9.3,1.6c0,0.8-1.6,1.6-9.3,1.6c-6.1,0-22-0.9-28.2-1.3c-0.2-0.1-0.2-0.4,0-0.4
					C143.3,7.4,159.2,6.4,165.3,6.4z"/>
				<path class="st1" d="M160.3-0.9v-4.6c0-0.2,0.1-0.2,0.2-0.2l33,13.6c0.1,0,0.1,0.2,0,0.3l-33,13.6c-0.1,0-0.2-0.1-0.2-0.2V17
					c0-0.1,0-0.2,0.1-0.2l15.5-7c0.1,0,0.1,0,0.2,0c0.8,0.7,2.2,1.1,3.7,1.1c2.4,0,7.4-2.3,8.3-2.8c0.1-0.1,0.1-0.2,0-0.2
					c-1-0.4-5.9-2.8-8.3-2.8c-1.6,0-2.9,0.4-3.7,1.1c-0.1,0-0.1,0-0.2,0l-15.5-7C160.3-0.8,160.3-0.9,160.3-0.9z"/>
				<g>
					<g>
						<path class="st1" d="M140.1,13.5l9.2-4h0.1l2.8,0.3c0.2,0,0.3,0.1,0.3,0.2c0.6,3.4,3.4,6.1,6.8,6.8c0.2,0.1,0.3,0.2,0.2,0.4
							l-3.5,11.1c-0.1,0.3-0.5,0.2-0.5-0.1l1-7.9c0-0.3-0.3-0.4-0.5-0.2l-5.4,7c-0.2,0.2-0.6,0-0.5-0.3l3.4-8.2
							c0.1-0.2-0.2-0.5-0.4-0.3l-7,5.4c-0.3,0.2-0.6-0.1-0.4-0.4l5.4-7c0.2-0.2,0-0.5-0.3-0.4l-8.2,3.4c-0.3,0.1-0.6-0.3-0.3-0.5
							l7-5.4c0.2-0.2,0.1-0.5-0.2-0.5l-8.8,1.1C139.9,14,139.8,13.6,140.1,13.5z"/>
					</g>
					<g>
						<path class="st1" d="M140.1,2.4l9.2,4h0.1l2.8-0.3c0.2,0,0.3-0.1,0.3-0.2c0.6-3.4,3.4-6.1,6.8-6.8c0.2-0.1,0.3-0.2,0.2-0.4
							l-3.5-11.1c-0.1-0.3-0.5-0.2-0.5,0.1l1,7.9c0,0.3-0.3,0.4-0.5,0.2l-5.4-7c-0.2-0.2-0.6,0-0.5,0.3l3.4,8.2
							c0.1,0.2-0.2,0.5-0.4,0.3l-7-5.4c-0.3-0.2-0.6,0.1-0.4,0.4l5.4,7c0.2,0.2,0,0.5-0.3,0.4l-8.2-3.4c-0.3-0.1-0.6,0.3-0.3,0.5
							l7,5.4c0.2,0.2,0.1,0.5-0.2,0.5l-8.8-1.1C139.9,1.8,139.8,2.3,140.1,2.4z"/>
					</g>
				</g>
			</g>
		</g>
		<g>
			<g>
				<path class="st1" d="M220.7,9.6c0.9,0,1.7-0.7,1.7-1.7s-0.7-1.7-1.7-1.7c-0.9,0-1.7,0.7-1.7,1.7S219.8,9.6,220.7,9.6"/>
				<path class="st1" d="M234.7,9.5c-7.8,0-9.3-0.7-9.3-1.6s1.6-1.6,9.3-1.6c6.1,0,22,0.9,28.2,1.3c0.2,0.1,0.2,0.4,0,0.4
					C256.7,8.5,240.8,9.5,234.7,9.5z"/>
				<path class="st1" d="M239.7,16.8v4.6c0,0.2-0.1,0.2-0.2,0.2L206.5,8c-0.1,0-0.1-0.2,0-0.3l33-13.6c0.1,0,0.2,0.1,0.2,0.2v4.6
					c0,0.1,0,0.2-0.1,0.2l-15.5,7c-0.1,0-0.1,0-0.2,0C223,5.4,221.7,5,220.1,5c-2.4,0-7.4,2.3-8.3,2.8c-0.1,0.1-0.1,0.2,0,0.2
					c1,0.4,5.9,2.8,8.3,2.8c1.6,0,2.9-0.4,3.7-1.1c0.1,0,0.1,0,0.2,0l15.5,7C239.7,16.7,239.7,16.8,239.7,16.8z"/>
				<g>
					<g>
						<path class="st1" d="M259.9,2.4l-9.2,4h-0.1l-2.8-0.3c-0.2,0-0.3-0.1-0.3-0.2c-0.6-3.4-3.4-6.1-6.8-6.8
							c-0.2-0.1-0.3-0.2-0.2-0.4l3.5-11.1c0.1-0.3,0.5-0.2,0.5,0.1l-1,7.9c0,0.3,0.3,0.4,0.5,0.2l5.4-7c0.2-0.2,0.6,0,0.5,0.3
							l-3.4,8.2c-0.1,0.2,0.2,0.5,0.4,0.3l7-5.4c0.3-0.2,0.6,0.1,0.4,0.4l-5.4,7c-0.2,0.2,0,0.5,0.3,0.4l8.2-3.4
							c0.3-0.1,0.6,0.3,0.3,0.5l-7,5.4c-0.2,0.2-0.1,0.5,0.2,0.5l8.8-1.1C260.1,1.8,260.2,2.3,259.9,2.4z"/>
					</g>
					<g>
						<path class="st1" d="M259.9,13.5l-9.2-4h-0.1l-2.8,0.3c-0.2,0-0.3,0.1-0.3,0.2c-0.6,3.4-3.4,6.1-6.8,6.8
							c-0.2,0.1-0.3,0.2-0.2,0.4l3.5,11.1c0.1,0.3,0.5,0.2,0.5-0.1l-1-7.9c0-0.3,0.3-0.4,0.5-0.2l5.4,7c0.2,0.2,0.6,0,0.5-0.3
							l-3.4-8.2c-0.1-0.2,0.2-0.5,0.4-0.3l7,5.4c0.3,0.2,0.6-0.1,0.4-0.4l-5.4-7c-0.2-0.2,0-0.5,0.3-0.4l8.2,3.4
							c0.3,0.1,0.6-0.3,0.3-0.5l-7-5.4c-0.2-0.2-0.1-0.5,0.2-0.5l8.8,1.1C260.1,14,260.2,13.6,259.9,13.5z"/>
					</g>
				</g>
			</g>
		</g>
		<g>
			<g>
				<path class="st1" d="M184.1,21.5c-0.6,0.6-0.6,1.7,0,2.3c0.6,0.6,1.7,0.6,2.3,0c0.6-0.6,0.6-1.7,0-2.3
					C185.8,20.9,184.8,20.9,184.1,21.5"/>
				<path class="st1" d="M174.4,31.4c5.5-5.5,7-6.1,7.7-5.5c0.6,0.6,0,2.2-5.5,7.7c-4.2,4.4-16.2,14.9-20.8,19
					c-0.2,0.1-0.4-0.1-0.3-0.3C159.5,47.6,170,35.7,174.4,31.4z"/>
				<path class="st1" d="M165.5,29.7l-3.2-3.2c0-0.1,0-0.3,0.1-0.3l32.9-13.7c0.1-0.1,0.3,0.1,0.2,0.2l-13.7,32.8
					c-0.1,0.2-0.2,0.2-0.3,0.1l-3.2-3.2c0-0.1,0-0.1,0-0.2l6.1-15.8c0,0,0-0.1,0.1-0.1c1-0.1,2.4-0.8,3.4-1.9
					c1.7-1.7,3.5-6.8,3.8-7.9c0-0.1,0-0.1-0.1-0.1c-1,0.3-6.2,2.2-7.9,3.8c-1.1,1-1.8,2.3-1.9,3.4c0,0,0,0.1-0.1,0.1l-16,6
					C165.7,29.8,165.7,29.8,165.5,29.7z"/>
				<g>
					<g>
						<path class="st1" d="M161.5,54.1l3.6-9.3l0.1-0.1l2.3-1.8c0.1-0.1,0.2-0.1,0.3,0c3,2,6.7,2,9.7,0c0.1-0.1,0.3,0,0.4,0.1
							l5.3,10.4c0.1,0.3-0.3,0.6-0.5,0.3l-4.8-6.3c-0.2-0.2-0.5-0.1-0.5,0.2l1.1,8.8c0.1,0.3-0.4,0.4-0.5,0.1l-3.4-8.2
							c-0.1-0.2-0.5-0.2-0.5,0.1l-1.1,8.8c-0.1,0.3-0.6,0.3-0.6,0l-1.1-8.8c0-0.3-0.4-0.4-0.5-0.1l-3.4,8.2
							c-0.1,0.3-0.5,0.2-0.5-0.1l1.1-8.8c0-0.3-0.3-0.4-0.5-0.2l-5.4,7C161.9,54.7,161.4,54.5,161.5,54.1z"/>
					</g>
					<g>
						<path class="st1" d="M153.8,46.5l9.3-3.6l0.1-0.1l1.8-2.3c0.1-0.1,0.1-0.2,0-0.3c-2-3-2-6.7,0-9.7c0.1-0.1,0-0.3-0.1-0.4
							l-10.4-5.3c-0.3-0.1-0.6,0.3-0.3,0.5l6.3,4.8c0.2,0.2,0.1,0.5-0.2,0.5l-8.8-1.1c-0.3-0.1-0.4,0.4-0.1,0.5l8.2,3.4
							c0.2,0.1,0.2,0.5-0.1,0.5l-8.8,1.1c-0.3,0.1-0.3,0.6,0,0.6l8.8,1.1c0.3,0,0.4,0.4,0.1,0.5l-8.2,3.4c-0.3,0.1-0.2,0.5,0.1,0.5
							l8.8-1.1c0.3,0,0.4,0.3,0.2,0.5l-7,5.4C153.1,46.1,153.5,46.6,153.8,46.5z"/>
					</g>
				</g>
			</g>
		</g>
		<g>
			<g>
				<path class="st1" d="M215.8-5.6c0.7-0.6,0.7-1.7,0-2.3c-0.6-0.6-1.7-0.6-2.3,0c-0.6,0.6-0.6,1.7,0,2.3S215.1-5,215.8-5.6"/>
				<path class="st1" d="M225.6-15.5c-5.5,5.5-7,6.1-7.7,5.5c-0.6-0.6,0-2.2,5.5-7.7c4.2-4.4,16.2-14.9,20.8-19
					c0.2-0.1,0.4,0.1,0.3,0.3C240.5-31.7,230-19.8,225.6-15.5z"/>
				<path class="st1" d="M234.4-13.9l3.2,3.2c0,0.1,0,0.3-0.1,0.3L204.7,3.3c-0.1,0.1-0.3-0.1-0.2-0.2l13.7-32.9
					c0.1-0.2,0.2-0.2,0.3-0.1l3.2,3.2c0,0.1,0,0.1,0,0.2l-6,16c0,0,0,0.1-0.1,0.1c-1,0.1-2.4,0.8-3.4,1.9c-1.7,1.7-3.5,6.8-3.8,7.9
					c0,0.1,0,0.1,0.1,0.1c1-0.3,6.2-2.2,7.9-3.8c1.1-1,1.8-2.3,1.9-3.4c0,0,0-0.1,0.1-0.1l16-6C234.3-13.9,234.3-13.9,234.4-13.9z"
					/>
				<g>
					<g>
						<path class="st1" d="M238.5-38.3l-3.6,9.3l-0.1,0.1l-2.3,1.8c-0.1,0.1-0.2,0.1-0.3,0c-3-2-6.7-2-9.7,0c-0.1,0.1-0.3,0-0.4-0.1
							l-5.3-10.4c-0.1-0.3,0.3-0.6,0.5-0.3l4.8,6.3c0.2,0.2,0.5,0.1,0.5-0.2l-1.1-8.8c-0.1-0.3,0.4-0.4,0.5-0.1l3.4,8.2
							c0.1,0.2,0.5,0.2,0.5-0.1l1.1-8.8c0.1-0.3,0.6-0.3,0.6,0l1.1,8.8c0,0.3,0.4,0.4,0.5,0.1l3.4-8.2c0.1-0.3,0.5-0.2,0.5,0.1
							l-1.1,8.8c0,0.3,0.3,0.4,0.5,0.2l5.4-7C238.1-38.9,238.6-38.6,238.5-38.3z"/>
					</g>
					<g>
						<path class="st1" d="M246.2-30.6l-9.3,3.6l-0.1,0.1l-1.8,2.3c-0.1,0.1-0.1,0.2,0,0.3c2,3,2,6.7,0,9.7c-0.1,0.1,0,0.3,0.1,0.4
							l10.4,5.3c0.3,0.1,0.6-0.3,0.3-0.5l-6.3-4.8c-0.2-0.2-0.1-0.5,0.2-0.5l8.8,1.1c0.3,0.1,0.4-0.4,0.1-0.5l-8.2-3.4
							c-0.2-0.1-0.2-0.5,0.1-0.5l8.8-1.1c0.3-0.1,0.3-0.6,0-0.6l-8.8-1.1c-0.3,0-0.4-0.4-0.1-0.5l8.2-3.4c0.3-0.1,0.2-0.5-0.1-0.5
							l-8.8,1.1c-0.3,0-0.4-0.3-0.2-0.5l7-5.4C246.9-30.2,246.5-30.7,246.2-30.6z"/>
					</g>
				</g>
			</g>
		</g>
		<g>
			<g>
				<path class="st1" d="M213.5,23.8c0.7,0.6,1.7,0.6,2.3,0c0.6-0.6,0.6-1.7,0-2.3c-0.6-0.6-1.7-0.6-2.3,0
					C212.9,22.1,212.9,23.1,213.5,23.8"/>
				<path class="st1" d="M223.5,33.6c-5.5-5.5-6.1-7-5.5-7.7c0.6-0.6,2.2,0,7.7,5.5c4.4,4.2,14.9,16.2,19,20.8
					c0.1,0.2-0.1,0.4-0.3,0.3C239.7,48.4,227.8,37.9,223.5,33.6z"/>
				<path class="st1" d="M221.8,42.3l-3.2,3.2c-0.1,0-0.3,0-0.3-0.1l-13.7-32.9c-0.1-0.1,0.1-0.3,0.2-0.2L237.6,26
					c0.2,0.1,0.2,0.2,0.1,0.3l-3.2,3.2c-0.1,0-0.1,0-0.2,0l-16-6c0,0-0.1,0-0.1-0.1c-0.1-1-0.8-2.4-1.9-3.4
					c-1.7-1.7-6.8-3.5-7.9-3.8c-0.1,0-0.1,0-0.1,0.1c0.3,1,2.2,6.2,3.8,7.9c1,1.1,2.3,1.8,3.4,1.9c0,0,0.1,0,0.1,0.1l6,16
					C221.9,42.2,221.8,42.3,221.8,42.3z"/>
				<g>
					<g>
						<path class="st1" d="M246.2,46.5l-9.3-3.6l-0.1-0.1l-1.8-2.3c-0.1-0.1-0.1-0.2,0-0.3c2-3,2-6.7,0-9.7c-0.1-0.1,0-0.3,0.1-0.4
							l10.4-5.3c0.3-0.1,0.6,0.3,0.3,0.5l-6.3,4.8c-0.2,0.2-0.1,0.5,0.2,0.5l8.8-1.1c0.3-0.1,0.4,0.4,0.1,0.5l-8.2,3.4
							c-0.2,0.1-0.2,0.5,0.1,0.5l8.8,1.1c0.3,0.1,0.3,0.6,0,0.6l-8.8,1.1c-0.3,0-0.4,0.4-0.1,0.5l8.2,3.4c0.3,0.1,0.2,0.5-0.1,0.5
							l-8.8-1.1c-0.3,0-0.4,0.3-0.2,0.5l7,5.4C246.9,46.1,246.5,46.6,246.2,46.5z"/>
					</g>
					<g>
						<path class="st1" d="M238.5,54.1l-3.6-9.3l-0.1-0.1l-2.3-1.8c-0.1-0.1-0.2-0.1-0.3,0c-3,2-6.7,2-9.7,0c-0.1-0.1-0.3,0-0.4,0.1
							l-5.3,10.4c-0.1,0.3,0.3,0.6,0.5,0.3l4.8-6.3c0.2-0.2,0.5-0.1,0.5,0.2l-1.1,8.8c-0.1,0.3,0.4,0.4,0.5,0.1l3.4-8.2
							c0.1-0.2,0.5-0.2,0.5,0.1l1.1,8.8c0.1,0.3,0.6,0.3,0.6,0l1.1-8.8c0-0.3,0.4-0.4,0.5-0.1l3.4,8.2c0.1,0.3,0.5,0.2,0.5-0.1
							l-1.1-8.8c0-0.3,0.3-0.4,0.5-0.2l5.4,7C238.1,54.7,238.6,54.5,238.5,54.1z"/>
					</g>
				</g>
			</g>
		</g>
		<g>
			<g>
				<path class="st1" d="M186.4-7.9c-0.6-0.6-1.6-0.6-2.3,0c-0.6,0.6-0.6,1.7,0,2.3s1.7,0.6,2.3,0C187-6.2,187-7.2,186.4-7.9"/>
				<path class="st1" d="M176.5-17.7c5.5,5.5,6.1,7,5.5,7.7c-0.6,0.6-2.2,0-7.7-5.5c-4.4-4.2-14.9-16.2-19-20.8
					c-0.1-0.2,0.1-0.4,0.3-0.3C160.3-32.5,172.2-22,176.5-17.7z"/>
				<path class="st1" d="M178.2-26.5l3.2-3.2c0.1,0,0.3,0,0.3,0.1l13.7,32.9c0.1,0.1-0.1,0.3-0.2,0.2l-32.9-13.7
					c-0.2-0.1-0.2-0.2-0.1-0.3l3.2-3.2c0.1,0,0.1,0,0.2,0l16,6c0,0,0.1,0,0.1,0.1c0.1,1,0.8,2.4,1.9,3.4c1.7,1.7,6.8,3.5,7.9,3.8
					c0.1,0,0.1,0,0.1-0.1c-0.3-1-2.2-6.2-3.8-7.9c-1-1.1-2.3-1.8-3.4-1.9c0,0-0.1,0-0.1-0.1l-6-16C178.1-26.3,178.1-26.4,178.2-26.5
					z"/>
				<g>
					<g>
						<path class="st1" d="M153.8-30.6l9.3,3.6l0.1,0.1l1.8,2.3c0.1,0.1,0.1,0.2,0,0.3c-2,3-2,6.7,0,9.7c0.1,0.1,0,0.3-0.1,0.4
							l-10.4,5.3c-0.3,0.1-0.6-0.3-0.3-0.5l6.3-4.8c0.2-0.2,0.1-0.5-0.2-0.5l-8.8,1.1c-0.3,0.1-0.4-0.4-0.1-0.5l8.2-3.4
							c0.2-0.1,0.2-0.5-0.1-0.5l-8.8-1.1c-0.3-0.1-0.3-0.6,0-0.6l8.8-1.1c0.3,0,0.4-0.4,0.1-0.5l-8.2-3.4c-0.3-0.1-0.2-0.5,0.1-0.5
							l8.8,1.1c0.3,0,0.4-0.3,0.2-0.5l-7-5.4C153.1-30.2,153.5-30.7,153.8-30.6z"/>
					</g>
					<g>
						<path class="st1" d="M161.5-38.3l3.6,9.3l0.1,0.1l2.3,1.8c0.1,0.1,0.2,0.1,0.3,0c3-2,6.7-2,9.7,0c0.1,0.1,0.3,0,0.4-0.1
							l5.3-10.4c0.1-0.3-0.3-0.6-0.5-0.3l-4.8,6.3c-0.2,0.2-0.5,0.1-0.5-0.2l1.1-8.8c0.1-0.3-0.4-0.4-0.5-0.1l-3.4,8.2
							c-0.1,0.2-0.5,0.2-0.5-0.1l-1.1-8.8c-0.1-0.3-0.6-0.3-0.6,0l-1.1,8.8c0,0.3-0.4,0.4-0.5,0.1l-3.4-8.2
							c-0.1-0.3-0.5-0.2-0.5,0.1l1.1,8.8c0,0.3-0.3,0.4-0.5,0.2l-5.4-7C161.9-38.9,161.4-38.6,161.5-38.3z"/>
					</g>
				</g>
			</g>
		</g>
	</g>
</g>
</svg>
