<?xml version="1.0" encoding="utf-8"?>
<!-- Generator: Adobe Illustrator 20.1.0, SVG Export Plug-In . SVG Version: 6.00 Build 0)  -->
<svg version="1.1" id="Layer_1" xmlns="http://www.w3.org/2000/svg" xmlns:xlink="http://www.w3.org/1999/xlink" x="0px" y="0px"
	 viewBox="0 0 400 108" style="enable-background:new 0 0 400 108;" xml:space="preserve">
<style type="text/css">
	.st0{opacity:0.2;}
	.st1{fill:#FFFFFF;}
</style>
<g class="st0">
	<g>
		<g>
			<g>
				<path class="st1" d="M141.9,30.7c-0.4,0-0.8,0.3-0.8,0.8c0,0.4,0.3,0.8,0.8,0.8c0.4,0,0.8-0.3,0.8-0.8
					C142.7,31.1,142.3,30.7,141.9,30.7"/>
				<path class="st1" d="M162.9,31.4c0.1,0,0.1,0.2,0,0.2c-3.1,0.2-11,0.7-14.1,0.7c-3.9,0-4.7-0.3-4.7-0.7c0-0.4,0.7-0.7,4.7-0.7
					C151.9,30.8,159.9,31.2,162.9,31.4z"/>
				<path class="st1" d="M151.3,27.1l-7.8,3.5h-0.1c-0.4-0.3-1.1-0.5-1.9-0.5c-1.1,0-3.6,1.1-4.1,1.5v0.1c0.5,0.2,2.9,1.5,4.1,1.5
					c0.7,0,1.5-0.2,1.9-0.5h0.1l7.8,3.5c0,0,0.1,0,0.1,0.1v2.3c0,0.1-0.1,0.1-0.1,0.1l-16.5-6.7c-0.1,0-0.1-0.1,0-0.2l16.5-6.7
					c0.1,0,0.1,0,0.1,0.1L151.3,27.1C151.4,27,151.3,27.1,151.3,27.1z"/>
				<g>
					<g>
						<path class="st1" d="M161.3,34.5l-4.5-0.6c-0.1,0-0.2,0.2-0.1,0.3l3.5,2.7c0.1,0.1,0,0.3-0.1,0.2l-4.1-1.8
							c-0.1-0.1-0.3,0.1-0.2,0.2l2.7,3.5c0.1,0.1-0.1,0.3-0.2,0.2l-3.5-2.7c-0.1-0.1-0.3,0-0.2,0.2l1.8,4.1c0.1,0.2-0.1,0.3-0.2,0.1
							l-2.7-3.5c-0.1-0.1-0.3,0-0.3,0.1l0.5,3.9c0,0.2-0.2,0.2-0.3,0.1l-1.8-5.5c0-0.1,0-0.2,0.1-0.2c1.8-0.4,3.1-1.7,3.4-3.4
							c0-0.1,0.1-0.1,0.1-0.1l1.5-0.2c0,0,0,0,0.1,0l4.6,2C161.6,34.3,161.5,34.6,161.3,34.5z"/>
					</g>
					<g>
						<path class="st1" d="M161.3,28.5l-4.5,0.6c-0.1,0-0.2-0.2-0.1-0.3l3.5-2.7c0.1-0.1,0-0.3-0.1-0.2l-4.1,1.8
							c-0.1,0.1-0.3-0.1-0.2-0.2l2.7-3.5c0.1-0.1-0.1-0.3-0.2-0.2l-3.5,2.7c-0.1,0.1-0.3,0-0.2-0.2l1.8-4.1c0.1-0.2-0.1-0.3-0.2-0.1
							l-2.7,3.5c-0.1,0.1-0.3,0-0.3-0.1l0.5-3.9c0-0.2-0.2-0.2-0.3-0.1l-1.8,5.5c0,0.1,0,0.2,0.1,0.2c1.8,0.4,3.1,1.7,3.4,3.4
							c0,0.1,0.1,0.1,0.1,0.1l1.5,0.2c0,0,0,0,0.1,0l4.6-2C161.6,28.7,161.5,28.5,161.3,28.5z"/>
					</g>
				</g>
			</g>
		</g>
		<g>
			<g>
				<path class="st1" d="M121.1,32.3c0.4,0,0.8-0.3,0.8-0.8c0-0.4-0.3-0.8-0.8-0.8c-0.4,0-0.8,0.3-0.8,0.8
					C120.3,31.9,120.7,32.3,121.1,32.3"/>
				<path class="st1" d="M100.1,31.6c-0.1,0-0.1-0.2,0-0.2c3.1-0.2,11-0.7,14.1-0.7c3.9,0,4.7,0.3,4.7,0.7s-0.7,0.7-4.7,0.7
					C111.1,32.3,103.2,31.8,100.1,31.6z"/>
				<path class="st1" d="M111.7,35.8l7.8-3.5h0.1c0.4,0.3,1.1,0.5,1.9,0.5c1.1,0,3.6-1.1,4.1-1.5v-0.1c-0.5-0.2-2.9-1.5-4.1-1.5
					c-0.7,0-1.5,0.2-1.9,0.5h-0.1l-7.8-3.5c0,0-0.1,0-0.1-0.1v-2.3c0-0.1,0.1-0.1,0.1-0.1l16.5,6.7c0.1,0,0.1,0.1,0,0.2l-16.4,7
					c-0.1,0-0.1,0-0.1-0.1V35.8C111.7,35.9,111.7,35.9,111.7,35.8z"/>
				<g>
					<g>
						<path class="st1" d="M101.6,28.5l4.5,0.6c0.1,0,0.2-0.2,0.1-0.3l-3.6-2.7c-0.1-0.1,0-0.3,0.1-0.2l4.1,1.8
							c0.1,0.1,0.3-0.1,0.2-0.2l-2.7-3.6c-0.1-0.1,0.1-0.3,0.2-0.2l3.5,2.7c0.1,0.1,0.3,0,0.2-0.2l-1.8-4.1
							c-0.1-0.2,0.1-0.3,0.2-0.1l2.7,3.5c0.1,0.1,0.3,0,0.3-0.1l-0.5-3.9c0-0.2,0.2-0.2,0.3-0.1l1.8,5.5c0,0.1,0,0.2-0.1,0.2
							c-1.8,0.4-3.1,1.7-3.4,3.4c0,0.1-0.1,0.1-0.1,0.1l-1.5,0.2c0,0,0,0-0.1,0l-4.6-1.9C101.4,28.7,101.4,28.5,101.6,28.5z"/>
					</g>
					<g>
						<path class="st1" d="M101.6,34.5l4.5-0.6c0.1,0,0.2,0.2,0.1,0.3l-3.6,2.7c-0.1,0.1,0,0.3,0.1,0.2l4.1-1.8
							c0.1-0.1,0.3,0.1,0.2,0.2l-2.7,3.5c-0.1,0.1,0.1,0.3,0.2,0.2l3.5-2.7c0.1-0.1,0.3,0,0.2,0.2l-1.8,4.1
							c-0.1,0.2,0.1,0.3,0.2,0.1l2.7-3.5c0.1-0.1,0.3,0,0.3,0.1l-0.5,3.9c0,0.2,0.2,0.2,0.3,0.1l1.8-5.5c0-0.1,0-0.2-0.1-0.2
							c-1.8-0.4-3.1-1.7-3.4-3.4c0-0.1-0.1-0.1-0.1-0.1l-1.5-0.2c0,0,0,0-0.1,0l-4.6,2.1C101.4,34.3,101.4,34.6,101.6,34.5z"/>
					</g>
				</g>
			</g>
		</g>
		<g>
			<g>
				<path class="st1" d="M132.3,41.9c0-0.4-0.3-0.8-0.8-0.8c-0.4,0-0.8,0.3-0.8,0.8c0,0.4,0.3,0.8,0.8,0.8
					C131.9,42.7,132.3,42.3,132.3,41.9"/>
				<path class="st1" d="M131.6,62.9c0,0.1-0.2,0.1-0.2,0c-0.2-3.1-0.7-11-0.7-14.1c0-3.9,0.3-4.7,0.7-4.7s0.7,0.7,0.7,4.7
					C132.2,51.9,131.8,59.9,131.6,62.9z"/>
				<path class="st1" d="M135.8,51.3l-3.5-7.8v-0.1c0.3-0.4,0.5-1.1,0.5-1.9c0-1.1-1.1-3.6-1.5-4.1h-0.1c-0.2,0.5-1.5,2.9-1.5,4.1
					c0,0.7,0.2,1.5,0.5,1.9v0.1l-3.5,7.8c0,0,0,0.1-0.1,0.1h-2.3c-0.1,0-0.1-0.1-0.1-0.1l6.7-16.5c0-0.1,0.1-0.1,0.2,0l6.7,16.5
					c0,0.1,0,0.1-0.1,0.1L135.8,51.3C135.9,51.4,135.9,51.4,135.8,51.3z"/>
				<g>
					<g>
						<path class="st1" d="M128.5,61.3l0.6-4.5c0-0.1-0.2-0.2-0.3-0.1l-2.7,3.5c-0.1,0.1-0.3,0-0.2-0.1l1.8-4.1
							c0.1-0.1-0.1-0.3-0.2-0.2l-3.5,2.7c-0.1,0.1-0.3-0.1-0.2-0.2l2.7-3.5c0.1-0.1,0-0.3-0.2-0.2l-4.1,1.8
							c-0.2,0.1-0.3-0.1-0.1-0.2l3.5-2.7c0.1-0.1,0-0.3-0.1-0.3l-3.9,0.5c-0.2,0-0.2-0.2-0.1-0.3l5.5-1.8c0.1,0,0.2,0,0.2,0.1
							c0.4,1.8,1.7,3.1,3.4,3.4c0.1,0,0.1,0.1,0.1,0.1l0.2,1.5c0,0,0,0,0,0.1l-2,4.6C128.7,61.6,128.5,61.5,128.5,61.3z"/>
					</g>
					<g>
						<path class="st1" d="M134.5,61.3l-0.6-4.5c0-0.1,0.2-0.2,0.3-0.1l2.7,3.5c0.1,0.1,0.3,0,0.2-0.1l-1.8-4.1
							c-0.1-0.1,0.1-0.3,0.2-0.2l3.5,2.7c0.1,0.1,0.3-0.1,0.2-0.2l-2.7-3.5c-0.1-0.1,0-0.3,0.2-0.2l4.1,1.8c0.2,0.1,0.3-0.1,0.1-0.2
							l-3.5-2.7c-0.1-0.1,0-0.3,0.1-0.3l3.9,0.5c0.2,0,0.2-0.2,0.1-0.3l-5.5-1.8c-0.1,0-0.2,0-0.2,0.1c-0.4,1.8-1.7,3.1-3.4,3.4
							c-0.1,0-0.1,0.1-0.1,0.1l-0.2,1.5c0,0,0,0,0,0.1l2,4.6C134.3,61.6,134.6,61.5,134.5,61.3z"/>
					</g>
				</g>
			</g>
		</g>
		<g>
			<g>
				<path class="st1" d="M130.7,21.1c0,0.4,0.3,0.8,0.8,0.8c0.4,0,0.8-0.3,0.8-0.8c0-0.4-0.3-0.8-0.8-0.8
					C131.1,20.3,130.7,20.7,130.7,21.1"/>
				<path class="st1" d="M131.4,0.1c0-0.1,0.2-0.1,0.2,0c0.2,3.1,0.7,11,0.7,14.1c0,3.9-0.3,4.7-0.7,4.7c-0.4,0-0.7-0.7-0.7-4.7
					C130.8,11.1,131.2,3.2,131.4,0.1z"/>
				<path class="st1" d="M127.1,11.7l3.5,7.8v0.1c-0.3,0.4-0.5,1.1-0.5,1.9c0,1.1,1.1,3.6,1.5,4.1h0.1c0.2-0.5,1.5-2.9,1.5-4.1
					c0-0.7-0.2-1.5-0.5-1.9v-0.1l3.5-7.8c0,0,0-0.1,0.1-0.1h2.3c0.1,0,0.1,0.1,0.1,0.1l-7,16.5c0,0.1-0.1,0.1-0.2,0l-6.7-16.5
					c0-0.1,0-0.1,0.1-0.1L127.1,11.7C127,11.7,127.1,11.7,127.1,11.7z"/>
				<g>
					<g>
						<path class="st1" d="M134.5,1.6l-0.6,4.5c0,0.1,0.2,0.2,0.3,0.1l2.7-3.5c0.1-0.1,0.3,0,0.2,0.1l-1.8,4.1
							c-0.1,0.1,0.1,0.3,0.2,0.2l3.5-2.7c0.1-0.1,0.3,0.1,0.2,0.2l-2.7,3.5c-0.1,0.1,0,0.3,0.2,0.2l4.1-1.8c0.2-0.1,0.3,0.1,0.1,0.2
							l-3.5,2.7c-0.1,0.1,0,0.3,0.1,0.3l3.9-0.5c0.2,0,0.2,0.2,0.1,0.3l-5.5,1.8c-0.1,0-0.2,0-0.2-0.1c-0.4-1.8-1.7-3.1-3.4-3.4
							c-0.1,0-0.1-0.1-0.1-0.1l-0.2-1.6c0,0,0,0,0-0.1l2-4.6C134.3,1.4,134.6,1.4,134.5,1.6z"/>
					</g>
					<g>
						<path class="st1" d="M128.5,1.6l0.6,4.5c0,0.1-0.2,0.2-0.3,0.1l-2.7-3.5c-0.1-0.1-0.3,0-0.2,0.1l1.8,4.1
							c0.1,0.1-0.1,0.3-0.2,0.2l-3.5-2.7c-0.1-0.1-0.3,0.1-0.2,0.2l2.7,3.5c0.1,0.1,0,0.3-0.2,0.2l-4.1-1.8
							c-0.2-0.1-0.3,0.1-0.1,0.2l3.5,2.7c0.1,0.1,0,0.3-0.1,0.3l-3.9-0.5c-0.2,0-0.2,0.2-0.1,0.3l5.5,1.8c0.1,0,0.2,0,0.2-0.1
							c0.4-1.8,1.7-3.1,3.4-3.4c0.1,0,0.1-0.1,0.1-0.1l0.2-1.5c0,0,0,0,0-0.1l-2-4.6C128.7,1.4,128.5,1.4,128.5,1.6z"/>
					</g>
				</g>
			</g>
		</g>
		<g>
			<g>
				<path class="st1" d="M124.7,39.4c0.3-0.3,0.3-0.8,0-1.1c-0.3-0.3-0.8-0.3-1.1,0c-0.3,0.3-0.3,0.8,0,1.1
					C123.9,39.7,124.4,39.7,124.7,39.4"/>
				<path class="st1" d="M109.3,53.8c-0.1,0.1-0.2,0-0.1-0.1c2.1-2.3,7.4-8.3,9.5-10.5c2.8-2.8,3.5-3,3.8-2.8c0.3,0.3,0,1-2.8,3.8
					C117.6,46.4,111.7,51.8,109.3,53.8z"/>
				<path class="st1" d="M120.6,48.6l3-8c0,0,0-0.1,0.1-0.1c0.5-0.1,1.1-0.4,1.8-0.9c0.8-0.8,1.8-3.4,2-3.9c0,0,0-0.1-0.1-0.1
					c-0.5,0.2-3.1,1.1-3.9,2c-0.5,0.5-0.8,1.1-0.9,1.8c0,0,0,0.1-0.1,0.1l-8,3h-0.1l-1.7-1.7v-0.1l16.4-6.8c0.1,0,0.1,0,0.1,0.1
					l-6.8,16.4c0,0.1-0.1,0.1-0.1,0L120.6,48.6C120.6,48.7,120.6,48.6,120.6,48.6z"/>
				<g>
					<g>
						<path class="st1" d="M108.3,50.5l3.5-2.7c0.1-0.1,0-0.3-0.1-0.3l-4.5,0.6c-0.2,0-0.2-0.2-0.1-0.3l4.1-1.7
							c0.1-0.1,0.1-0.3,0-0.3l-4.5-0.6c-0.2,0-0.2-0.3,0-0.3l4.5-0.6c0.1,0,0.2-0.2,0-0.3l-4.1-1.7c-0.2-0.1-0.1-0.3,0.1-0.3
							l4.5,0.6c0.1,0,0.2-0.2,0.1-0.3l-3.1-2.4c-0.1-0.1,0-0.3,0.1-0.2l5.2,2.7c0.1,0,0.1,0.1,0.1,0.2c-0.9,1.5-1,3.4,0,4.9
							c0,0.1,0,0.1,0,0.2l-0.8,1.1c0,0,0,0-0.1,0l-4.8,2C108.2,50.8,108.1,50.6,108.3,50.5z"/>
					</g>
					<g>
						<path class="st1" d="M112.5,54.8l2.7-3.5c0.1-0.1,0.3,0,0.3,0.1l-0.6,4.5c0,0.2,0.2,0.2,0.3,0.1l1.7-4.1
							c0.1-0.1,0.3-0.1,0.3,0l0.6,4.5c0,0.2,0.3,0.2,0.3,0l0.6-4.5c0-0.1,0.2-0.2,0.3,0l1.7,4.1c0.1,0.2,0.3,0.1,0.3-0.1l-0.6-4.5
							c0-0.1,0.2-0.2,0.3-0.1l2.4,3.1c0.1,0.1,0.3,0,0.2-0.1l-2.7-5.2c0-0.1-0.1-0.1-0.2-0.1c-1.5,0.9-3.4,1-4.9,0
							c-0.1,0-0.1,0-0.2,0l-1.1,0.8c0,0,0,0,0,0.1l-1.9,4.7C112.2,54.8,112.4,54.9,112.5,54.8z"/>
					</g>
				</g>
			</g>
		</g>
		<g>
			<g>
				<path class="st1" d="M138.2,23.6c-0.3,0.3-0.3,0.8,0,1.1c0.3,0.3,0.8,0.3,1.1,0s0.3-0.8,0-1.1C139.1,23.3,138.5,23.3,138.2,23.6
					"/>
				<path class="st1" d="M153.7,9.2c0.1-0.1,0.2,0,0.1,0.1c-2.1,2.3-7.4,8.3-9.5,10.5c-2.8,2.8-3.5,3-3.8,2.8c-0.3-0.3,0-1,2.8-3.8
					C145.4,16.6,151.3,11.3,153.7,9.2z"/>
				<path class="st1" d="M142.4,14.4l-3,8c0,0,0,0.1-0.1,0.1c-0.5,0.1-1.1,0.4-1.8,0.9c-0.8,0.8-1.8,3.4-2,3.9c0,0,0,0.1,0.1,0.1
					c0.5-0.2,3.1-1.1,3.9-2c0.5-0.5,0.8-1.1,0.9-1.8c0,0,0-0.1,0.1-0.1l8-3h0.1l1.7,1.7v0.1L134,29.2c-0.1,0-0.1,0-0.1-0.1l6.8-16.4
					c0-0.1,0.1-0.1,0.1,0L142.4,14.4C142.4,14.3,142.4,14.4,142.4,14.4z"/>
				<g>
					<g>
						<path class="st1" d="M154.8,12.5l-3.5,2.7c-0.1,0.1,0,0.3,0.1,0.3l4.5-0.6c0.2,0,0.2,0.2,0.1,0.3l-4.1,1.7
							c-0.1,0.1-0.1,0.3,0,0.3l4.5,0.6c0.2,0,0.2,0.3,0,0.3l-4.5,0.6c-0.1,0-0.2,0.2,0,0.3l4.1,1.7c0.2,0.1,0.1,0.3-0.1,0.3
							l-4.5-0.6c-0.1,0-0.2,0.2-0.1,0.3l3.1,2.4c0.1,0.1,0,0.3-0.1,0.2l-5.2-2.7c-0.1,0-0.1-0.1-0.1-0.2c0.9-1.5,1-3.4,0-4.9
							c0-0.1,0-0.1,0-0.2l0.8-1.1c0,0,0,0,0.1,0l4.7-1.9C154.8,12.2,154.9,12.4,154.8,12.5z"/>
					</g>
					<g>
						<path class="st1" d="M150.5,8.3l-2.7,3.5c-0.1,0.1-0.3,0-0.3-0.1l0.6-4.5c0-0.2-0.2-0.2-0.3-0.1l-1.7,4.1
							c-0.1,0.1-0.3,0.1-0.3,0l-0.6-4.5c0-0.2-0.3-0.2-0.3,0l-0.6,4.5c0,0.1-0.2,0.2-0.3,0l-1.7-4.1C142.2,6.9,142,7,142,7.2
							l0.6,4.5c0,0.1-0.2,0.2-0.3,0.1l-2.4-3.1c-0.1-0.1-0.3,0-0.2,0.1l2.7,5.2c0,0.1,0.1,0.1,0.2,0.1c1.5-0.9,3.4-1,4.9,0
							c0.1,0,0.1,0,0.2,0l1.1-0.8c0,0,0,0,0-0.1l1.9-4.7C150.8,8.3,150.6,8.1,150.5,8.3z"/>
					</g>
				</g>
			</g>
		</g>
		<g>
			<g>
				<path class="st1" d="M123.6,24.7c0.3,0.3,0.8,0.3,1.1,0c0.3-0.3,0.3-0.8,0-1.1c-0.3-0.3-0.8-0.3-1.1,0
					C123.3,23.9,123.3,24.4,123.6,24.7"/>
				<path class="st1" d="M109.2,9.3c-0.1-0.1,0-0.2,0.1-0.1c2.3,2.1,8.3,7.4,10.5,9.5c2.8,2.8,3,3.5,2.8,3.8c-0.3,0.3-1,0-3.8-2.8
					C116.6,17.6,111.3,11.7,109.2,9.3z"/>
				<path class="st1" d="M114.4,20.6l8,3c0,0,0.1,0,0.1,0.1c0.1,0.5,0.4,1.1,0.9,1.8c0.8,0.8,3.4,1.8,3.9,2c0,0,0.1,0,0.1-0.1
					c-0.2-0.5-1.1-3.1-2-3.9c-0.5-0.5-1.1-0.8-1.8-0.9c0,0-0.1,0-0.1-0.1l-3-8v-0.1l1.7-1.7h0.1l6.8,16.4c0,0.1,0,0.1-0.1,0.1
					l-16.4-6.8c-0.1,0-0.1-0.1,0-0.1L114.4,20.6C114.3,20.6,114.4,20.6,114.4,20.6z"/>
				<g>
					<g>
						<path class="st1" d="M112.5,8.3l2.7,3.5c0.1,0.1,0.3,0,0.3-0.1l-0.6-4.5c0-0.2,0.2-0.2,0.3-0.1l1.7,4.1c0.1,0.1,0.3,0.1,0.3,0
							l0.6-4.5c0-0.2,0.3-0.2,0.3,0l0.6,4.5c0,0.1,0.2,0.2,0.3,0l1.7-4.1c0.1-0.2,0.3-0.1,0.3,0.1l-0.6,4.5c0,0.1,0.2,0.2,0.3,0.1
							l2.4-3.1c0.1-0.1,0.3,0,0.2,0.1l-2.7,5.2c0,0.1-0.1,0.1-0.2,0.1c-1.5-0.9-3.4-1-4.9,0c-0.1,0-0.1,0-0.2,0l-1.1-0.8
							c0,0,0,0,0-0.1l-1.9-4.7C112.2,8.3,112.4,8.1,112.5,8.3z"/>
					</g>
					<g>
						<path class="st1" d="M108.3,12.5l3.5,2.7c0.1,0.1,0,0.3-0.1,0.3l-4.5-0.6c-0.2,0-0.2,0.2-0.1,0.3l4.1,1.7
							c0.1,0.1,0.1,0.3,0,0.3l-4.5,0.6c-0.2,0-0.2,0.3,0,0.3l4.5,0.6c0.1,0,0.2,0.2,0,0.3l-4.1,1.7c-0.2,0.1-0.1,0.3,0.1,0.3
							l4.5-0.6c0.1,0,0.2,0.2,0.1,0.3l-3.1,2.4c-0.1,0.1,0,0.3,0.1,0.2l5.2-2.7c0.1,0,0.1-0.1,0.1-0.2c-0.9-1.5-1-3.4,0-4.9
							c0-0.1,0-0.1,0-0.2l-0.8-1.1c0,0,0,0-0.1,0l-4.7-1.9C108.2,12.2,108.1,12.4,108.3,12.5z"/>
					</g>
				</g>
			</g>
		</g>
		<g>
			<g>
				<path class="st1" d="M139.4,38.2c-0.3-0.3-0.8-0.3-1.1,0c-0.3,0.3-0.3,0.8,0,1.1c0.3,0.3,0.8,0.3,1.1,0
					C139.7,39.1,139.7,38.5,139.4,38.2"/>
				<path class="st1" d="M153.8,53.7c0.1,0.1,0,0.2-0.1,0.1c-2.3-2.1-8.3-7.4-10.5-9.5c-2.8-2.8-3-3.5-2.8-3.8c0.3-0.3,1,0,3.8,2.8
					C146.4,45.4,151.7,51.3,153.8,53.7z"/>
				<path class="st1" d="M148.6,42.4l-8-3c0,0-0.1,0-0.1-0.1c-0.1-0.5-0.4-1.1-0.9-1.8c-0.8-0.8-3.4-1.8-3.9-2c0,0-0.1,0-0.1,0.1
					c0.2,0.5,1.1,3.1,2,3.9c0.5,0.5,1.1,0.8,1.8,0.9c0,0,0.1,0,0.1,0.1l3,8v0.1l-1.7,1.7h-0.1L133.8,34c0-0.1,0-0.1,0.1-0.1
					l16.4,6.8c0.1,0,0.1,0.1,0,0.1L148.6,42.4C148.7,42.4,148.6,42.4,148.6,42.4z"/>
				<g>
					<g>
						<path class="st1" d="M150.5,54.8l-2.7-3.5c-0.1-0.1-0.3,0-0.3,0.1l0.6,4.5c0,0.2-0.2,0.2-0.3,0.1l-1.7-4.1
							c-0.1-0.1-0.3-0.1-0.3,0l-0.6,4.5c0,0.2-0.3,0.2-0.3,0l-0.6-4.5c0-0.1-0.2-0.2-0.3,0l-1.7,4.1c-0.1,0.2-0.3,0.1-0.3-0.1
							l0.6-4.5c0-0.1-0.2-0.2-0.3-0.1l-2.4,3.1c-0.1,0.1-0.3,0-0.2-0.1l2.7-5.2c0-0.1,0.1-0.1,0.2-0.1c1.5,0.9,3.4,1,4.9,0
							c0.1,0,0.1,0,0.2,0l1.1,0.8c0,0,0,0,0,0.1l1.9,4.7C150.8,54.8,150.6,54.9,150.5,54.8z"/>
					</g>
					<g>
						<path class="st1" d="M154.8,50.5l-3.5-2.7c-0.1-0.1,0-0.3,0.1-0.3l4.5,0.6c0.2,0,0.2-0.2,0.1-0.3l-4.1-1.7
							c-0.1-0.1-0.1-0.3,0-0.3l4.5-0.6c0.2,0,0.2-0.3,0-0.3l-4.5-0.6c-0.1,0-0.2-0.2,0-0.3l4.1-1.7c0.2-0.1,0.1-0.3-0.1-0.3
							l-4.5,0.6c-0.1,0-0.2-0.2-0.1-0.3l3.1-2.4c0.1-0.1,0-0.3-0.1-0.2l-5.2,2.7c-0.1,0-0.1,0.1-0.1,0.2c0.9,1.5,1,3.4,0,4.9
							c0,0.1,0,0.1,0,0.2l0.8,1.1c0,0,0,0,0.1,0l4.7,1.9C154.8,50.8,154.9,50.6,154.8,50.5z"/>
					</g>
				</g>
			</g>
		</g>
	</g>
	<g>
		<g>
			<g>
				<path class="st1" d="M64.6,120.8c0-0.9-0.7-1.7-1.7-1.7c-0.9,0-1.7,0.7-1.7,1.7s0.7,1.7,1.7,1.7
					C63.9,122.4,64.6,121.7,64.6,120.8"/>
				<path class="st1" d="M63.2,162.9c0,0.2-0.3,0.2-0.4,0c-0.4-6.2-1.3-22.1-1.3-28.2c0-7.8,0.7-9.3,1.6-9.3s1.6,1.6,1.6,9.3
					C64.5,140.8,63.6,156.8,63.2,162.9z"/>
				<path class="st1" d="M71.8,139.7l-7-15.5c0-0.1,0-0.1,0-0.2c0.7-0.8,1.1-2.2,1.1-3.7c0-2.4-2.4-7.3-2.8-8.3c0-0.1-0.1-0.1-0.2,0
					c-0.5,0.9-2.8,5.9-2.8,8.3c0,1.6,0.4,2.9,1.1,3.7c0,0.1,0,0.1,0,0.2l-7,15.5c0,0.1-0.1,0.1-0.2,0.1h-4.6c-0.1,0-0.2-0.1-0.2-0.2
					l13.6-33c0.1-0.1,0.3-0.1,0.3,0l13.6,32.9c0,0.1,0,0.2-0.2,0.2h-4.6C71.9,139.8,71.8,139.7,71.8,139.7z"/>
				<g>
					<g>
						<path class="st1" d="M57,159.8l1.1-8.8c0-0.3-0.3-0.4-0.5-0.2l-5.4,7c-0.2,0.3-0.6,0-0.5-0.3l3.4-8.2c0.1-0.3-0.2-0.5-0.4-0.3
							l-7,5.4c-0.3,0.2-0.6-0.1-0.4-0.4l5.4-7c0.2-0.2-0.1-0.5-0.3-0.4l-8.2,3.4c-0.3,0.1-0.5-0.3-0.3-0.5l7-5.4
							c0.2-0.2,0.1-0.5-0.2-0.5l-7.9,1c-0.3,0-0.4-0.4-0.1-0.5l11.1-3.5c0.2-0.1,0.3,0,0.4,0.2c0.7,3.4,3.4,6.2,6.8,6.8
							c0.1,0,0.2,0.1,0.2,0.3l0.3,2.8v0.1l-4,9.2C57.4,160.3,56.9,160.1,57,159.8z"/>
					</g>
					<g>
						<path class="st1" d="M69.1,159.8l-1.1-8.8c0-0.3,0.3-0.4,0.5-0.2l5.4,7c0.2,0.3,0.6,0,0.5-0.3l-3.4-8.2
							c-0.1-0.3,0.2-0.5,0.4-0.3l7,5.4c0.3,0.2,0.6-0.1,0.4-0.4l-5.4-7c-0.2-0.2,0.1-0.5,0.3-0.4l8.2,3.4c0.3,0.1,0.5-0.3,0.3-0.5
							l-7-5.4c-0.2-0.2-0.1-0.5,0.2-0.5l7.9,1c0.3,0,0.4-0.4,0.1-0.5l-11.1-3.5c-0.2-0.1-0.3,0-0.4,0.2c-0.7,3.4-3.4,6.2-6.8,6.8
							c-0.1,0-0.2,0.1-0.2,0.3l-0.3,2.8v0.1l4,9.2C68.7,160.3,69.1,160.1,69.1,159.8z"/>
					</g>
				</g>
			</g>
		</g>
		<g>
			<g>
				<path class="st1" d="M61.4,79.4c0,0.9,0.7,1.7,1.7,1.7s1.7-0.7,1.7-1.7s-0.7-1.7-1.7-1.7S61.4,78.4,61.4,79.4"/>
				<path class="st1" d="M62.8,37.2c0-0.2,0.3-0.2,0.4,0c0.4,6.2,1.3,22.1,1.3,28.2c0,7.8-0.7,9.3-1.6,9.3s-1.6-1.6-1.6-9.3
					C61.4,59.3,62.3,43.4,62.8,37.2z"/>
				<path class="st1" d="M54.3,60.4l7,15.5c0,0.1,0,0.1,0,0.2c-0.7,0.8-1.1,2.2-1.1,3.7c0,2.4,2.4,7.3,2.8,8.3c0,0.1,0.1,0.1,0.2,0
					c0.5-0.9,2.8-5.9,2.8-8.3c0-1.6-0.4-2.9-1.1-3.7c0-0.1,0-0.1,0-0.2l7-15.5c0-0.1,0.1-0.1,0.2-0.1h4.6c0.1,0,0.2,0.1,0.2,0.2
					l-13.7,33c-0.1,0.1-0.3,0.1-0.3,0L49.3,60.6c0-0.1,0-0.2,0.2-0.2h4.6C54.2,60.3,54.2,60.4,54.3,60.4z"/>
				<g>
					<g>
						<path class="st1" d="M69.1,40.3l-1.1,8.8c0,0.3,0.3,0.4,0.5,0.2l5.4-7c0.2-0.3,0.6,0,0.5,0.3l-3.5,8.2
							c-0.1,0.3,0.2,0.5,0.4,0.3l7-5.4c0.3-0.2,0.6,0.1,0.4,0.4l-5.4,7c-0.2,0.2,0.1,0.5,0.3,0.4l8.2-3.4c0.3-0.1,0.5,0.3,0.3,0.5
							l-7,5.4c-0.2,0.2-0.1,0.5,0.2,0.5l7.9-1c0.3,0,0.4,0.4,0.1,0.5l-11.1,3.5c-0.2,0.1-0.3,0-0.4-0.2c-0.7-3.4-3.4-6.2-6.8-6.8
							c-0.1,0-0.2-0.1-0.2-0.3l-0.3-2.8v-0.1l4-9.2C68.7,39.9,69.1,40,69.1,40.3z"/>
					</g>
					<g>
						<path class="st1" d="M57,40.3l1.1,8.8c0,0.3-0.3,0.4-0.5,0.2l-5.4-7c-0.2-0.3-0.6,0-0.5,0.3l3.4,8.2c0.1,0.3-0.2,0.5-0.4,0.3
							l-7-5.4c-0.3-0.2-0.6,0.1-0.4,0.4l5.4,7c0.2,0.2-0.1,0.5-0.3,0.4l-8.2-3.4c-0.3-0.1-0.5,0.3-0.3,0.5l7,5.4
							c0.2,0.2,0.1,0.5-0.2,0.5l-7.9-1c-0.3,0-0.4,0.4-0.1,0.5l11.1,3.5c0.2,0.1,0.3,0,0.4-0.2c0.7-3.4,3.4-6.2,6.8-6.8
							c0.1,0,0.2-0.1,0.2-0.3l0.3-2.8v-0.1l-4-9.2C57.4,39.9,56.9,40,57,40.3z"/>
					</g>
				</g>
			</g>
		</g>
		<g>
			<g>
				<path class="st1" d="M42.2,101.7c0.9,0,1.7-0.7,1.7-1.7s-0.7-1.7-1.7-1.7s-1.7,0.7-1.7,1.7C40.7,100.9,41.4,101.7,42.2,101.7"/>
				<path class="st1" d="M0.2,100.2c-0.2,0-0.2-0.3,0-0.4c6.2-0.4,22.1-1.3,28.2-1.3c7.8,0,9.3,0.7,9.3,1.6s-1.6,1.6-9.3,1.6
					C22.2,101.6,6.3,100.6,0.2,100.2z"/>
				<path class="st1" d="M23.4,108.8l15.5-7c0.1,0,0.1,0,0.2,0c0.8,0.7,2.2,1.1,3.7,1.1c2.4,0,7.3-2.4,8.3-2.8c0.1,0,0.1-0.1,0-0.2
					c-0.9-0.5-5.9-2.8-8.3-2.8c-1.6,0-2.9,0.4-3.7,1.1c-0.1,0-0.1,0-0.2,0l-15.5-7c-0.1,0-0.1-0.1-0.1-0.2v-4.6
					c0-0.1,0.1-0.2,0.2-0.2l33,13.6c0.1,0.1,0.1,0.3,0,0.3l-33,13.7c-0.1,0-0.2,0-0.2-0.2V109C23.3,108.9,23.3,108.8,23.4,108.8z"/>
				<g>
					<g>
						<path class="st1" d="M3.3,94l8.8,1.1c0.3,0,0.4-0.3,0.2-0.5l-7-5.4c-0.3-0.2,0-0.6,0.3-0.5l8.2,3.5c0.3,0.1,0.5-0.2,0.3-0.4
							l-5.4-7c-0.2-0.3,0.1-0.6,0.4-0.4l7,5.4c0.2,0.2,0.5-0.1,0.4-0.3l-3.4-8.2c-0.1-0.4,0.3-0.6,0.5-0.4l5.4,7
							c0.2,0.2,0.5,0.1,0.5-0.2l-1-7.9c0-0.3,0.4-0.4,0.5-0.1l3.5,11.1c0.1,0.2,0,0.3-0.2,0.4c-3.4,0.7-6.2,3.4-6.8,6.8
							c0,0.1-0.1,0.2-0.3,0.2l-2.8,0.4h-0.1l-9.2-4C2.7,94.4,3,94,3.3,94z"/>
					</g>
					<g>
						<path class="st1" d="M3.3,106.1l8.8-1.1c0.3,0,0.4,0.3,0.2,0.5l-7,5.4c-0.3,0.2,0,0.6,0.3,0.5l8.2-3.4
							c0.3-0.1,0.5,0.2,0.3,0.4l-5.4,7c-0.2,0.3,0.1,0.6,0.4,0.4l7-5.4c0.2-0.2,0.5,0.1,0.4,0.3l-3.4,8.2c-0.1,0.3,0.3,0.5,0.5,0.3
							l5.4-7c0.2-0.2,0.5-0.1,0.5,0.2l-1,7.9c0,0.3,0.4,0.4,0.5,0.1l3.5-11.1c0.1-0.2,0-0.3-0.2-0.4c-3.4-0.7-6.2-3.4-6.8-6.8
							c0-0.1-0.1-0.2-0.3-0.2l-2.8-0.3h-0.1l-9.2,4C2.7,105.7,3,106.2,3.3,106.1z"/>
					</g>
				</g>
			</g>
		</g>
		<g>
			<g>
				<path class="st1" d="M83.7,98.4c-0.9,0-1.7,0.7-1.7,1.7s0.7,1.7,1.7,1.7c0.9,0,1.7-0.7,1.7-1.7S84.6,98.4,83.7,98.4"/>
				<path class="st1" d="M125.9,99.9c0.2,0,0.2,0.3,0,0.4c-6.2,0.4-22.1,1.3-28.2,1.3c-7.8,0-9.3-0.7-9.3-1.6s1.6-1.6,9.3-1.6
					C103.8,98.5,119.7,99.5,125.9,99.9z"/>
				<path class="st1" d="M102.6,91.3l-15.5,7c-0.1,0-0.1,0-0.2,0c-0.8-0.7-2.2-1.1-3.7-1.1c-2.4,0-7.3,2.4-8.3,2.8
					c-0.1,0-0.1,0.1,0,0.2c0.9,0.5,5.9,2.8,8.3,2.8c1.6,0,2.9-0.4,3.7-1.1c0.1,0,0.1,0,0.2,0l15.5,7c0.1,0,0.1,0.1,0.1,0.2v4.6
					c0,0.1-0.1,0.2-0.2,0.2l-32.9-13.7c-0.1-0.1-0.1-0.3,0-0.3l33-13.6c0.1,0,0.2,0,0.2,0.2v4.6C102.7,91.2,102.7,91.3,102.6,91.3z"
					/>
				<g>
					<g>
						<path class="st1" d="M122.8,106.1L114,105c-0.3,0-0.4,0.3-0.2,0.5l7,5.4c0.3,0.2,0,0.6-0.3,0.5l-8.2-3.4
							c-0.3-0.1-0.5,0.2-0.3,0.4l5.4,7c0.2,0.3-0.1,0.6-0.4,0.4l-7-5.4c-0.2-0.2-0.5,0.1-0.4,0.3l3.4,8.2c0.1,0.3-0.3,0.5-0.5,0.3
							l-5.4-7c-0.2-0.2-0.5-0.1-0.5,0.2l1,7.9c0,0.3-0.4,0.4-0.5,0.1l-3.5-11.1c-0.1-0.2,0-0.3,0.2-0.4c3.4-0.7,6.2-3.4,6.8-6.8
							c0-0.1,0.1-0.2,0.3-0.2l2.8-0.3h0.1l9.2,4C123.2,105.7,123.1,106.2,122.8,106.1z"/>
					</g>
					<g>
						<path class="st1" d="M122.8,94l-8.8,1.2c-0.3,0-0.4-0.3-0.2-0.5l7-5.4c0.3-0.2,0-0.6-0.3-0.5l-8.2,3.4
							c-0.3,0.1-0.5-0.2-0.3-0.4l5.4-7c0.2-0.3-0.1-0.6-0.4-0.4l-7,5.4c-0.2,0.2-0.5-0.1-0.4-0.3l3.4-8.2c0.1-0.3-0.3-0.5-0.5-0.3
							l-5.4,7c-0.2,0.2-0.5,0.1-0.5-0.2l1-7.9c0-0.3-0.4-0.4-0.5-0.1l-3.5,11.1c-0.1,0.2,0,0.3,0.2,0.4c3.4,0.7,6.2,3.4,6.8,6.8
							c0,0.1,0.1,0.2,0.3,0.2l2.8,0.3h0.1l9.2-4C123.2,94.4,123.1,94,122.8,94z"/>
					</g>
				</g>
			</g>
		</g>
		<g>
			<g>
				<path class="st1" d="M47.2,86.5c0.6,0.6,1.7,0.6,2.3,0c0.6-0.6,0.6-1.7,0-2.3c-0.6-0.6-1.7-0.6-2.3,0
					C46.6,84.9,46.6,85.9,47.2,86.5"/>
				<path class="st1" d="M18.4,55.7c-0.1-0.2,0.1-0.4,0.3-0.3c4.7,4,16.6,14.6,20.8,19c5.5,5.5,6.1,7,5.5,7.7
					c-0.6,0.6-2.2,0-7.7-5.5C33,72.3,22.4,60.4,18.4,55.7z"/>
				<path class="st1" d="M28.8,78.2l16,6c0.1,0,0.1,0.1,0.1,0.1c0.1,1.1,0.7,2.4,1.9,3.4c1.7,1.7,6.8,3.5,7.9,3.8
					c0.1,0,0.1,0,0.1-0.1c-0.3-1-2.2-6.2-3.8-7.9c-1-1-2.4-1.8-3.4-1.9c-0.1,0-0.1-0.1-0.1-0.1l-6-16c0-0.1,0-0.1,0-0.2l3.2-3.2
					c0.1-0.1,0.2-0.1,0.3,0.1l13.7,33c0.1,0.1-0.1,0.3-0.2,0.2l-33-13.7c-0.1,0-0.1-0.2-0.1-0.3l3.2-3.2
					C28.7,78.2,28.8,78.2,28.8,78.2z"/>
				<g>
					<g>
						<path class="st1" d="M25,53.6l5.4,7c0.2,0.2,0.5,0.1,0.5-0.2l-1.1-8.8c0-0.3,0.4-0.4,0.5-0.1l3.4,8.2c0.1,0.3,0.5,0.2,0.5-0.1
							l1.1-8.8c0-0.3,0.5-0.3,0.6,0l1.1,8.8c0,0.3,0.4,0.3,0.5,0.1l3.4-8.2c0.1-0.3,0.6-0.2,0.5,0.1l-1.1,8.8c0,0.3,0.3,0.4,0.5,0.2
							l4.8-6.3c0.2-0.3,0.6,0,0.5,0.3L41,65c-0.1,0.1-0.3,0.2-0.4,0.1c-3-2-6.7-2-9.7,0c-0.1,0.1-0.2,0.1-0.3,0l-2.3-1.8l-0.1-0.1
							l-3.6-9.3C24.4,53.5,24.8,53.3,25,53.6z"/>
					</g>
					<g>
						<path class="st1" d="M16.4,62.1l7,5.4c0.2,0.2,0.1,0.5-0.2,0.5l-8.8-1.1c-0.3,0-0.4,0.4-0.1,0.5l8.2,3.4
							c0.3,0.1,0.2,0.5-0.1,0.5l-8.8,1.2c-0.3,0-0.3,0.5,0,0.6l8.8,1.1c0.3,0,0.3,0.4,0.1,0.5l-8.2,3.4c-0.3,0-0.2,0.5,0.1,0.5
							l8.8-1.1c0.3,0,0.4,0.3,0.2,0.5l-6.2,4.8c-0.3,0.2,0,0.6,0.3,0.5l10.4-5.3c0.1-0.1,0.2-0.3,0.1-0.4c-2-3-2-6.7,0-9.7
							c0.1-0.1,0.1-0.2,0-0.3l-1.9-2.4l-0.1-0.1l-9.3-3.6C16.4,61.4,16.2,61.9,16.4,62.1z"/>
					</g>
				</g>
			</g>
		</g>
		<g>
			<g>
				<path class="st1" d="M78.8,113.6c-0.6-0.6-1.7-0.6-2.3,0c-0.6,0.6-0.6,1.7,0,2.3c0.6,0.6,1.7,0.6,2.3,0
					C79.5,115.2,79.5,114.2,78.8,113.6"/>
				<path class="st1" d="M107.5,144.4c0.1,0.2-0.1,0.4-0.3,0.3c-4.7-4-16.6-14.6-20.8-19c-5.5-5.5-6.1-7-5.5-7.7
					c0.6-0.6,2.2,0,7.7,5.5C92.9,127.8,103.5,139.7,107.5,144.4z"/>
				<path class="st1" d="M97.2,121.9l-16-6c-0.1,0-0.1-0.1-0.1-0.1c-0.1-1.1-0.7-2.4-1.9-3.4c-1.7-1.7-6.8-3.5-7.9-3.8
					c-0.1,0-0.1,0-0.1,0.1c0.3,1,2.2,6.2,3.8,7.9c1,1,2.4,1.8,3.4,1.9c0.1,0,0.1,0.1,0.1,0.1l6,16c0,0.1,0,0.1,0,0.2l-3.2,3.2
					c-0.1,0.1-0.2,0.1-0.3-0.1l-13.7-32.9c-0.1-0.1,0.1-0.3,0.2-0.2l32.9,13.7c0.1,0,0.1,0.2,0.1,0.3l-3.2,3.2
					C97.4,121.9,97.3,121.9,97.2,121.9z"/>
				<g>
					<g>
						<path class="st1" d="M100.9,146.6l-5.4-7c-0.2-0.2-0.5-0.1-0.5,0.2l1.1,8.8c0,0.3-0.4,0.4-0.5,0.1l-3.4-8.2
							c-0.1-0.3-0.5-0.2-0.5,0.1l-1.1,8.8c0,0.3-0.5,0.3-0.6,0l-1.1-8.8c0-0.3-0.4-0.3-0.5-0.1l-3.4,8.2c-0.1,0.3-0.6,0.2-0.5-0.1
							l1.1-8.8c0-0.3-0.3-0.4-0.5-0.2l-4.8,6.3c-0.2,0.3-0.6,0-0.5-0.3l5.3-10.4c0.1-0.1,0.3-0.2,0.4-0.1c3,2,6.7,2,9.7,0
							c0.1-0.1,0.2-0.1,0.3,0l2.3,1.8l0.1,0.1l3.6,9.3C101.6,146.6,101.1,146.9,100.9,146.6z"/>
					</g>
					<g>
						<path class="st1" d="M109.5,138l-7-5.4c-0.2-0.2-0.1-0.5,0.2-0.5l8.8,1.1c0.3,0,0.4-0.4,0.1-0.5l-8.2-3.4
							c-0.3-0.1-0.2-0.5,0.1-0.5l8.8-1.1c0.3,0,0.3-0.5,0-0.6l-8.8-1.1c-0.3,0-0.3-0.4-0.1-0.5l8.2-3.4c0.3-0.1,0.2-0.6-0.1-0.5
							l-8.8,1.1c-0.3,0-0.4-0.3-0.2-0.5l6.3-4.8c0.3-0.2,0-0.6-0.3-0.5l-10.4,5.3c-0.1,0.1-0.2,0.3-0.1,0.4c2,3,2,6.7,0,9.7
							c-0.1,0.1-0.1,0.2,0,0.3l1.8,2.3l0.1,0.1l9.3,3.6C109.5,138.7,109.8,138.2,109.5,138z"/>
					</g>
				</g>
			</g>
		</g>
		<g>
			<g>
				<path class="st1" d="M76.5,84.2c-0.6,0.6-0.6,1.7,0,2.3c0.6,0.6,1.7,0.6,2.3,0c0.6-0.6,0.6-1.7,0-2.3
					C78.2,83.6,77.2,83.6,76.5,84.2"/>
				<path class="st1" d="M107.3,55.4c0.2-0.1,0.4,0.1,0.3,0.3c-4,4.7-14.6,16.6-19,20.8c-5.5,5.5-7,6.1-7.7,5.5
					c-0.6-0.6,0-2.2,5.5-7.7C90.7,70.1,102.7,59.6,107.3,55.4z"/>
				<path class="st1" d="M84.8,65.9l-6.1,15.9c0,0.1-0.1,0.1-0.1,0.1c-1.1,0.1-2.4,0.7-3.4,1.9c-1.7,1.7-3.5,6.8-3.8,7.9
					c0,0.1,0,0.1,0.1,0.1c1-0.3,6.2-2.2,7.9-3.8c1-1,1.8-2.4,1.9-3.4c0-0.1,0.1-0.1,0.1-0.1l16-6c0.1,0,0.1,0,0.2,0l3.2,3.2
					c0.1,0.1,0.1,0.2-0.1,0.3L67.7,95.5c-0.1,0.1-0.3-0.1-0.2-0.2l13.7-32.9c0-0.1,0.2-0.1,0.3-0.1l3.2,3.2
					C84.8,65.7,84.8,65.8,84.8,65.9z"/>
				<g>
					<g>
						<path class="st1" d="M109.5,62.1l-7,5.4c-0.2,0.2-0.1,0.5,0.2,0.5l8.8-1.1c0.3,0,0.4,0.4,0.1,0.5l-8.2,3.4
							c-0.3,0.1-0.2,0.5,0.1,0.5l8.8,1.1c0.3,0,0.3,0.5,0,0.6l-8.8,1.1c-0.3,0-0.3,0.4-0.1,0.5l8.2,3.4c0.3,0.1,0.2,0.6-0.1,0.5
							l-8.8-1.1c-0.3,0-0.4,0.3-0.2,0.5l6.3,4.9c0.3,0.2,0,0.6-0.3,0.5l-10.4-5.3C98,78,97.9,77.8,98,77.7c2-3,2-6.7,0-9.7
							c-0.1-0.1-0.1-0.2,0-0.3l1.8-2.3l0.1-0.1l9.3-3.6C109.5,61.4,109.8,61.9,109.5,62.1z"/>
					</g>
					<g>
						<path class="st1" d="M100.9,53.6l-5.4,7c-0.2,0.2-0.5,0.1-0.5-0.2l1.1-8.8c0-0.3-0.4-0.4-0.5-0.1l-3.4,8.2
							c-0.1,0.3-0.5,0.2-0.5-0.1l-1.1-8.8c0-0.3-0.5-0.3-0.6,0l-1.1,8.8c0,0.3-0.4,0.3-0.5,0.1l-3.3-8.3c-0.1-0.3-0.6-0.2-0.5,0.1
							l1.1,8.8c0,0.3-0.3,0.4-0.5,0.2l-4.8-6.3c-0.2-0.3-0.6,0-0.5,0.3L85,64.9c0.1,0.1,0.3,0.2,0.4,0.1c3-2,6.7-2,9.7,0
							c0.1,0.1,0.2,0.1,0.3,0l2.3-1.8l0.1-0.1l3.6-9.3C101.6,53.5,101.1,53.3,100.9,53.6z"/>
					</g>
				</g>
			</g>
		</g>
		<g>
			<g>
				<path class="st1" d="M49.5,115.9c0.6-0.6,0.6-1.7,0-2.3c-0.6-0.6-1.7-0.6-2.3,0c-0.6,0.6-0.6,1.7,0,2.3
					C47.8,116.5,48.9,116.5,49.5,115.9"/>
				<path class="st1" d="M18.7,144.7c-0.2,0.1-0.4-0.1-0.3-0.3c4-4.7,14.6-16.6,19-20.8c5.5-5.5,7-6.1,7.7-5.5
					c0.6,0.6,0,2.2-5.5,7.7C35.2,130,23.4,140.5,18.7,144.7z"/>
				<path class="st1" d="M41.2,134.3l6-16c0-0.1,0.1-0.1,0.1-0.1c1.1-0.1,2.4-0.7,3.4-1.9c1.7-1.7,3.5-6.8,3.8-7.9
					c0-0.1,0-0.1-0.1-0.1c-1,0.3-6.2,2.2-7.9,3.8c-1,1-1.8,2.4-1.9,3.4c0,0.1-0.1,0.1-0.1,0.1l-16,6c-0.1,0-0.1,0-0.2,0l-3.2-3.2
					c-0.1-0.1-0.1-0.2,0.1-0.3l32.9-13.7c0.1-0.1,0.3,0.1,0.2,0.2l-13.7,32.9c0,0.1-0.2,0.1-0.3,0.1l-3.2-3.2
					C41.2,134.4,41.2,134.3,41.2,134.3z"/>
				<g>
					<g>
						<path class="st1" d="M16.4,138l7-5.4c0.2-0.2,0.1-0.5-0.2-0.5l-8.8,1.1c-0.3,0-0.4-0.4-0.1-0.5l8.2-3.4
							c0.3-0.1,0.2-0.5-0.1-0.5l-8.8-1.1c-0.3,0-0.3-0.5,0-0.6l8.8-1.1c0.3,0,0.3-0.4,0.1-0.5l-8.2-3.4c-0.3-0.1-0.2-0.6,0.1-0.5
							l8.8,1.1c0.3,0,0.4-0.3,0.2-0.5l-6.3-4.8c-0.3-0.2,0-0.6,0.3-0.5l10.4,5.3c0.1,0.1,0.2,0.3,0.1,0.4c-2,3-2,6.7,0,9.7
							c0.1,0.1,0.1,0.2,0,0.3l-1.8,2.3l-0.1,0.1l-9.3,3.6C16.4,138.7,16.2,138.2,16.4,138z"/>
					</g>
					<g>
						<path class="st1" d="M25,146.6l5.4-7c0.2-0.2,0.5-0.1,0.5,0.2l-1.1,8.8c0,0.3,0.4,0.4,0.5,0.1l3.4-8.2
							c0.1-0.3,0.5-0.2,0.5,0.1l1.1,8.8c0,0.3,0.5,0.3,0.6,0l1.1-8.8c0-0.3,0.4-0.3,0.5-0.1l3.4,8.2c0.1,0.3,0.6,0.2,0.5-0.1
							l-1.1-8.8c0-0.3,0.3-0.4,0.5-0.2l4.8,6.3c0.2,0.3,0.6,0,0.5-0.3L41,135.2c-0.1-0.1-0.3-0.2-0.4-0.1c-3,2-6.7,2-9.7,0
							c-0.1-0.1-0.2-0.1-0.3,0l-2.3,1.8l-0.1,0.1l-3.6,9.3C24.4,146.6,24.8,146.9,25,146.6z"/>
					</g>
				</g>
			</g>
		</g>
	</g>
	<g>
		<g>
			<g>
				<path class="st1" d="M278.9,30.7c-0.4,0-0.8,0.3-0.8,0.8c0,0.4,0.3,0.8,0.8,0.8c0.4,0,0.8-0.3,0.8-0.8
					C279.7,31.1,279.3,30.7,278.9,30.7"/>
				<path class="st1" d="M299.9,31.4c0.1,0,0.1,0.2,0,0.2c-3.1,0.2-11,0.7-14.1,0.7c-3.9,0-4.7-0.3-4.7-0.7c0-0.4,0.7-0.7,4.7-0.7
					C288.9,30.8,296.8,31.2,299.9,31.4z"/>
				<path class="st1" d="M288.3,27.1l-7.8,3.5h-0.1c-0.4-0.3-1.1-0.5-1.9-0.5c-1.1,0-3.6,1.1-4.1,1.5v0.1c0.5,0.2,2.9,1.5,4.1,1.5
					c0.7,0,1.5-0.2,1.9-0.5h0.1l7.8,3.5c0,0,0.1,0,0.1,0.1v2.3c0,0.1-0.1,0.1-0.1,0.1l-16.5-6.7c-0.1,0-0.1-0.1,0-0.2l16.5-6.7
					c0.1,0,0.1,0,0.1,0.1L288.3,27.1C288.3,27,288.3,27.1,288.3,27.1z"/>
				<g>
					<g>
						<path class="st1" d="M298.4,34.5l-4.5-0.6c-0.1,0-0.2,0.2-0.1,0.3l3.5,2.7c0.1,0.1,0,0.3-0.1,0.2l-4.1-1.8
							c-0.1-0.1-0.3,0.1-0.2,0.2l2.7,3.5c0.1,0.1-0.1,0.3-0.2,0.2l-3.5-2.7c-0.1-0.1-0.3,0-0.2,0.2l1.8,4.1c0.1,0.2-0.1,0.3-0.2,0.1
							l-2.7-3.5c-0.1-0.1-0.3,0-0.3,0.1l0.5,3.9c0,0.2-0.2,0.2-0.3,0.1l-1.8-5.5c0-0.1,0-0.2,0.1-0.2c1.8-0.4,3.1-1.7,3.4-3.4
							c0-0.1,0.1-0.1,0.1-0.1l1.5-0.2c0,0,0,0,0.1,0l4.6,2C298.6,34.3,298.6,34.6,298.4,34.5z"/>
					</g>
					<g>
						<path class="st1" d="M298.4,28.5l-4.5,0.6c-0.1,0-0.2-0.2-0.1-0.3l3.5-2.7c0.1-0.1,0-0.3-0.1-0.2l-4.1,1.8
							c-0.1,0.1-0.3-0.1-0.2-0.2l2.7-3.5c0.1-0.1-0.1-0.3-0.2-0.2l-3.5,2.7c-0.1,0.1-0.3,0-0.2-0.2l1.8-4.1c0.1-0.2-0.1-0.3-0.2-0.1
							l-2.7,3.5c-0.1,0.1-0.3,0-0.3-0.1l0.5-3.9c0-0.2-0.2-0.2-0.3-0.1l-1.8,5.5c0,0.1,0,0.2,0.1,0.2c1.8,0.4,3.1,1.7,3.4,3.4
							c0,0.1,0.1,0.1,0.1,0.1l1.5,0.2c0,0,0,0,0.1,0l4.6-2C298.6,28.7,298.6,28.5,298.4,28.5z"/>
					</g>
				</g>
			</g>
		</g>
		<g>
			<g>
				<path class="st1" d="M258.1,32.3c0.4,0,0.8-0.3,0.8-0.8c0-0.4-0.3-0.8-0.8-0.8c-0.4,0-0.8,0.3-0.8,0.8
					C257.3,31.9,257.7,32.3,258.1,32.3"/>
				<path class="st1" d="M237.1,31.6c-0.1,0-0.1-0.2,0-0.2c3.1-0.2,11-0.7,14.1-0.7c3.9,0,4.7,0.3,4.7,0.7s-0.7,0.7-4.7,0.7
					C248.1,32.3,240.1,31.8,237.1,31.6z"/>
				<path class="st1" d="M248.7,35.8l7.8-3.5h0.1c0.4,0.3,1.1,0.5,1.9,0.5c1.1,0,3.6-1.1,4.1-1.5v-0.1c-0.5-0.2-2.9-1.5-4.1-1.5
					c-0.7,0-1.5,0.2-1.9,0.5h-0.1l-7.8-3.5c0,0-0.1,0-0.1-0.1v-2.3c0-0.1,0.1-0.1,0.1-0.1l16.5,6.7c0.1,0,0.1,0.1,0,0.2l-16.5,7
					c-0.1,0-0.1,0-0.1-0.1L248.7,35.8C248.6,35.9,248.6,35.9,248.7,35.8z"/>
				<g>
					<g>
						<path class="st1" d="M238.7,28.5l4.5,0.6c0.1,0,0.2-0.2,0.1-0.3l-3.5-2.7c-0.1-0.1,0-0.3,0.1-0.2l4.1,1.8
							c0.1,0.1,0.3-0.1,0.2-0.2l-2.7-3.5c-0.1-0.1,0.1-0.3,0.2-0.2l3.5,2.7c0.1,0.1,0.3,0,0.2-0.2l-1.8-4.1
							c-0.1-0.2,0.1-0.3,0.2-0.1l2.7,3.5c0.1,0.1,0.3,0,0.3-0.1l-0.5-3.9c0-0.2,0.2-0.2,0.3-0.1l1.8,5.5c0,0.1,0,0.2-0.1,0.2
							c-1.8,0.4-3.1,1.7-3.4,3.4c0,0.1-0.1,0.1-0.1,0.1l-1.5,0.2c0,0,0,0-0.1,0l-4.6-2C238.4,28.7,238.5,28.5,238.7,28.5z"/>
					</g>
					<g>
						<path class="st1" d="M238.7,34.5l4.5-0.6c0.1,0,0.2,0.2,0.1,0.3l-3.5,2.7c-0.1,0.1,0,0.3,0.1,0.2l4.1-1.8
							c0.1-0.1,0.3,0.1,0.2,0.2l-2.7,3.5c-0.1,0.1,0.1,0.3,0.2,0.2l3.5-2.7c0.1-0.1,0.3,0,0.2,0.2l-1.8,4.1
							c-0.1,0.2,0.1,0.3,0.2,0.1l2.7-3.5c0.1-0.1,0.3,0,0.3,0.1l-0.5,3.9c0,0.2,0.2,0.2,0.3,0.1l1.8-5.5c0-0.1,0-0.2-0.1-0.2
							c-1.8-0.4-3.1-1.7-3.4-3.4c0-0.1-0.1-0.1-0.1-0.1l-1.5-0.2c0,0,0,0-0.1,0l-4.6,2C238.4,34.3,238.5,34.6,238.7,34.5z"/>
					</g>
				</g>
			</g>
		</g>
		<g>
			<g>
				<path class="st1" d="M269.3,41.9c0-0.4-0.3-0.8-0.8-0.8c-0.4,0-0.8,0.3-0.8,0.8c0,0.4,0.3,0.8,0.8,0.8
					C268.9,42.7,269.3,42.3,269.3,41.9"/>
				<path class="st1" d="M268.6,62.9c0,0.1-0.2,0.1-0.2,0c-0.2-3.1-0.7-11-0.7-14.1c0-3.9,0.3-4.7,0.7-4.7s0.7,0.7,0.7,4.7
					C269.2,51.9,268.8,59.9,268.6,62.9z"/>
				<path class="st1" d="M272.9,51.3l-3.5-7.8v-0.1c0.3-0.4,0.5-1.1,0.5-1.9c0-1.1-1.1-3.6-1.5-4.1h-0.1c-0.2,0.5-1.5,2.9-1.5,4.1
					c0,0.7,0.2,1.5,0.5,1.9v0.1l-3.5,7.8c0,0,0,0.1-0.1,0.1h-2.3c-0.1,0-0.1-0.1-0.1-0.1l6.7-16.5c0-0.1,0.1-0.1,0.2,0l6.7,16.5
					c0,0.1,0,0.1-0.1,0.1L272.9,51.3C273,51.4,272.9,51.4,272.9,51.3z"/>
				<g>
					<g>
						<path class="st1" d="M265.5,61.3l0.6-4.5c0-0.1-0.2-0.2-0.3-0.1l-2.7,3.5c-0.1,0.1-0.3,0-0.2-0.1l1.8-4.1
							c0.1-0.1-0.1-0.3-0.2-0.2l-3.5,2.7c-0.1,0.1-0.3-0.1-0.2-0.2l2.7-3.5c0.1-0.1,0-0.3-0.2-0.2l-4.1,1.8
							c-0.2,0.1-0.3-0.1-0.1-0.2l3.5-2.7c0.1-0.1,0-0.3-0.1-0.3l-3.9,0.5c-0.2,0-0.2-0.2-0.1-0.3l5.5-1.8c0.1,0,0.2,0,0.2,0.1
							c0.4,1.8,1.7,3.1,3.4,3.4c0.1,0,0.1,0.1,0.1,0.1l0.2,1.5c0,0,0,0,0,0.1l-2,4.6C265.7,61.6,265.4,61.5,265.5,61.3z"/>
					</g>
					<g>
						<path class="st1" d="M271.5,61.3l-0.6-4.5c0-0.1,0.2-0.2,0.3-0.1l2.7,3.5c0.1,0.1,0.3,0,0.2-0.1l-1.8-4.1
							c-0.1-0.1,0.1-0.3,0.2-0.2l3.5,2.7c0.1,0.1,0.3-0.1,0.2-0.2l-2.7-3.5c-0.1-0.1,0-0.3,0.2-0.2l4.1,1.8c0.2,0.1,0.3-0.1,0.1-0.2
							l-3.5-2.7c-0.1-0.1,0-0.3,0.1-0.3l3.9,0.5c0.2,0,0.2-0.2,0.1-0.3l-5.5-1.8c-0.1,0-0.2,0-0.2,0.1c-0.4,1.8-1.7,3.1-3.4,3.4
							c-0.1,0-0.1,0.1-0.1,0.1l-0.2,1.5c0,0,0,0,0,0.1l2,4.6C271.3,61.6,271.5,61.5,271.5,61.3z"/>
					</g>
				</g>
			</g>
		</g>
		<g>
			<g>
				<path class="st1" d="M267.7,21.1c0,0.4,0.3,0.8,0.8,0.8c0.4,0,0.8-0.3,0.8-0.8c0-0.4-0.3-0.8-0.8-0.8
					C268.1,20.3,267.7,20.7,267.7,21.1"/>
				<path class="st1" d="M268.4,0.1c0-0.1,0.2-0.1,0.2,0c0.2,3.1,0.7,11,0.7,14.1c0,3.9-0.3,4.7-0.7,4.7s-0.7-0.7-0.7-4.7
					C267.7,11.1,268.2,3.2,268.4,0.1z"/>
				<path class="st1" d="M264.2,11.7l3.5,7.8v0.1c-0.3,0.4-0.5,1.1-0.5,1.9c0,1.1,1.1,3.6,1.5,4.1h0.1c0.2-0.5,1.5-2.9,1.5-4.1
					c0-0.7-0.2-1.5-0.5-1.9v-0.1l3.5-7.8c0,0,0-0.1,0.1-0.1h2.3c0.1,0,0.1,0.1,0.1,0.1l-6.7,16.5c0,0.1-0.1,0.1-0.2,0L262,11.7
					c0-0.1,0-0.1,0.1-0.1L264.2,11.7C264.1,11.7,264.1,11.7,264.2,11.7z"/>
				<g>
					<g>
						<path class="st1" d="M271.5,1.6l-0.6,4.5c0,0.1,0.2,0.2,0.3,0.1l2.7-3.5c0.1-0.1,0.3,0,0.2,0.1l-1.8,4.1
							c-0.1,0.1,0.1,0.3,0.2,0.2l3.5-2.7c0.1-0.1,0.3,0.1,0.2,0.2l-2.7,3.5c-0.1,0.1,0,0.3,0.2,0.2l4.1-1.8c0.2-0.1,0.3,0.1,0.1,0.2
							l-3.5,2.7c-0.1,0.1,0,0.3,0.1,0.3l3.9-0.5c0.2,0,0.2,0.2,0.1,0.3l-5.5,1.8c-0.1,0-0.2,0-0.2-0.1c-0.4-1.8-1.7-3.1-3.4-3.4
							c-0.1,0-0.1-0.1-0.1-0.1l-0.2-1.6c0,0,0,0,0-0.1l2-4.6C271.3,1.4,271.5,1.4,271.5,1.6z"/>
					</g>
					<g>
						<path class="st1" d="M265.5,1.6l0.6,4.5c0,0.1-0.2,0.2-0.3,0.1l-2.7-3.5c-0.1-0.1-0.3,0-0.2,0.1l1.8,4.1
							c0.1,0.1-0.1,0.3-0.2,0.2l-3.5-2.7c-0.1-0.1-0.3,0.1-0.2,0.2l2.7,3.5c0.1,0.1,0,0.3-0.2,0.2l-4.1-1.8
							c-0.2-0.1-0.3,0.1-0.1,0.2l3.5,2.7c0.1,0.1,0,0.3-0.1,0.3l-3.9-0.5c-0.2,0-0.2,0.2-0.1,0.3l5.5,1.8c0.1,0,0.2,0,0.2-0.1
							c0.4-1.8,1.7-3.1,3.4-3.4c0.1,0,0.1-0.1,0.1-0.1l0.2-1.5c0,0,0,0,0-0.1l-2-4.6C265.7,1.4,265.4,1.4,265.5,1.6z"/>
					</g>
				</g>
			</g>
		</g>
		<g>
			<g>
				<path class="st1" d="M261.8,39.4c0.3-0.3,0.3-0.8,0-1.1c-0.3-0.3-0.8-0.3-1.1,0c-0.3,0.3-0.3,0.8,0,1.1
					C260.9,39.7,261.5,39.7,261.8,39.4"/>
				<path class="st1" d="M246.3,53.8c-0.1,0.1-0.2,0-0.1-0.1c2.1-2.3,7.4-8.3,9.5-10.5c2.8-2.8,3.5-3,3.8-2.8c0.3,0.3,0,1-2.8,3.8
					C254.6,46.4,248.6,51.8,246.3,53.8z"/>
				<path class="st1" d="M257.6,48.6l3-8c0,0,0-0.1,0.1-0.1c0.5-0.1,1.1-0.4,1.8-0.9c0.8-0.8,1.8-3.4,2-3.9c0,0,0-0.1-0.1-0.1
					c-0.5,0.2-3.1,1.1-3.9,2c-0.5,0.5-0.8,1.1-0.9,1.8c0,0,0,0.1-0.1,0.1l-8,3h-0.1l-1.7-1.7v-0.1l16.4-6.8c0.1,0,0.1,0,0.1,0.1
					l-6.8,16.4c0,0.1-0.1,0.1-0.1,0L257.6,48.6C257.6,48.7,257.6,48.6,257.6,48.6z"/>
				<g>
					<g>
						<path class="st1" d="M245.2,50.5l3.5-2.7c0.1-0.1,0-0.3-0.1-0.3l-4.5,0.6c-0.2,0-0.2-0.2-0.1-0.3l4.1-1.7
							c0.1-0.1,0.1-0.3,0-0.3l-4.5-0.6c-0.2,0-0.2-0.3,0-0.3l4.5-0.6c0.1,0,0.2-0.2,0-0.3l-4.1-1.7c-0.2-0.1-0.1-0.3,0.1-0.3
							l4.5,0.6c0.1,0,0.2-0.2,0.1-0.3l-3.1-2.4c-0.1-0.1,0-0.3,0.1-0.2l5.2,2.7c0.1,0,0.1,0.1,0.1,0.2c-0.9,1.5-1,3.4,0,4.9
							c0,0.1,0,0.1,0,0.2l-0.8,1.1c0,0,0,0-0.1,0l-4.7,1.9C245.2,50.8,245.1,50.6,245.2,50.5z"/>
					</g>
					<g>
						<path class="st1" d="M249.5,54.8l2.7-3.5c0.1-0.1,0.3,0,0.3,0.1l-0.6,4.5c0,0.2,0.2,0.2,0.3,0.1l1.7-4.1
							c0.1-0.1,0.3-0.1,0.3,0l0.6,4.5c0,0.2,0.3,0.2,0.3,0l0.6-4.5c0-0.1,0.2-0.2,0.3,0l1.7,4.1c0.1,0.2,0.3,0.1,0.3-0.1l-0.6-4.5
							c0-0.1,0.2-0.2,0.3-0.1l2.4,3.1c0.1,0.1,0.3,0,0.2-0.1l-2.7-5.2c0-0.1-0.1-0.1-0.2-0.1c-1.5,0.9-3.4,1-4.9,0
							c-0.1,0-0.1,0-0.2,0l-1.1,0.8c0,0,0,0,0,0.1l-1.9,4.7C249.2,54.8,249.4,54.9,249.5,54.8z"/>
					</g>
				</g>
			</g>
		</g>
		<g>
			<g>
				<path class="st1" d="M275.3,23.6c-0.3,0.3-0.3,0.8,0,1.1c0.3,0.3,0.8,0.3,1.1,0c0.3-0.3,0.3-0.8,0-1.1
					C276.1,23.3,275.6,23.3,275.3,23.6"/>
				<path class="st1" d="M290.7,9.2c0.1-0.1,0.2,0,0.1,0.1c-2.1,2.3-7.4,8.3-9.5,10.5c-2.8,2.8-3.5,3-3.8,2.8c-0.3-0.3,0-1,2.8-3.8
					C282.4,16.6,288.3,11.3,290.7,9.2z"/>
				<path class="st1" d="M279.4,14.4l-3,8c0,0,0,0.1-0.1,0.1c-0.5,0.1-1.1,0.4-1.8,0.9c-0.8,0.8-1.8,3.4-2,3.9c0,0,0,0.1,0.1,0.1
					c0.5-0.2,3.1-1.1,3.9-2c0.5-0.5,0.8-1.1,0.9-1.8c0,0,0-0.1,0.1-0.1l8-3h0.1l1.7,1.7v0.1L271,29.2c-0.1,0-0.1,0-0.1-0.1l6.8-16.4
					c0-0.1,0.1-0.1,0.1,0L279.4,14.4C279.4,14.3,279.4,14.4,279.4,14.4z"/>
				<g>
					<g>
						<path class="st1" d="M291.7,12.5l-3.5,2.7c-0.1,0.1,0,0.3,0.1,0.3l4.5-0.6c0.2,0,0.2,0.2,0.1,0.3l-4.1,1.7
							c-0.1,0.1-0.1,0.3,0,0.3l4.5,0.6c0.2,0,0.2,0.3,0,0.3l-4.5,0.6c-0.1,0-0.2,0.2,0,0.3l4.1,1.7c0.2,0.1,0.1,0.3-0.1,0.3
							l-4.5-0.6c-0.1,0-0.2,0.2-0.1,0.3l3.1,2.4c0.1,0.1,0,0.3-0.1,0.2l-5.2-2.7c-0.1,0-0.1-0.1-0.1-0.2c0.9-1.5,1-3.4,0-4.9
							c0-0.1,0-0.1,0-0.2l0.8-1.1c0,0,0,0,0.1,0l4.7-1.9C291.7,12.2,291.9,12.4,291.7,12.5z"/>
					</g>
					<g>
						<path class="st1" d="M287.5,8.3l-2.7,3.5c-0.1,0.1-0.3,0-0.3-0.1l0.6-4.5c0-0.2-0.2-0.2-0.3-0.1l-1.7,4.1
							c-0.1,0.1-0.3,0.1-0.3,0l-0.6-4.5c0-0.2-0.3-0.2-0.3,0l-0.6,4.5c0,0.1-0.2,0.2-0.3,0l-1.7-4.1C279.2,6.9,279,7,279,7.2
							l0.6,4.5c0,0.1-0.2,0.2-0.3,0.1l-2.4-3.1c-0.1-0.1-0.3,0-0.2,0.1l2.7,5.2c0,0.1,0.1,0.1,0.2,0.1c1.5-0.9,3.4-1,4.9,0
							c0.1,0,0.1,0,0.2,0l1.1-0.8c0,0,0,0,0-0.1l1.9-4.7C287.8,8.3,287.6,8.1,287.5,8.3z"/>
					</g>
				</g>
			</g>
		</g>
		<g>
			<g>
				<path class="st1" d="M260.6,24.7c0.3,0.3,0.8,0.3,1.1,0c0.3-0.3,0.3-0.8,0-1.1c-0.3-0.3-0.8-0.3-1.1,0
					C260.3,23.9,260.3,24.4,260.6,24.7"/>
				<path class="st1" d="M246.2,9.3c-0.1-0.1,0-0.2,0.1-0.1c2.3,2.1,8.3,7.4,10.5,9.5c2.8,2.8,3,3.5,2.8,3.8c-0.3,0.3-1,0-3.8-2.8
					C253.5,17.6,248.2,11.7,246.2,9.3z"/>
				<path class="st1" d="M251.4,20.6l8,3c0,0,0.1,0,0.1,0.1c0.1,0.5,0.4,1.1,0.9,1.8c0.8,0.8,3.4,1.8,3.9,2c0,0,0.1,0,0.1-0.1
					c-0.2-0.5-1.1-3.1-2-3.9c-0.5-0.5-1.1-0.8-1.8-0.9c0,0-0.1,0-0.1-0.1l-3-8v-0.1l1.7-1.7h0.1l6.8,16.4c0,0.1,0,0.1-0.1,0.1
					l-16.4-6.8c-0.1,0-0.1-0.1,0-0.1L251.4,20.6C251.3,20.6,251.4,20.6,251.4,20.6z"/>
				<g>
					<g>
						<path class="st1" d="M249.5,8.3l2.7,3.5c0.1,0.1,0.3,0,0.3-0.1l-0.6-4.5c0-0.2,0.2-0.2,0.3-0.1l1.7,4.1c0.1,0.1,0.3,0.1,0.3,0
							l0.6-4.5c0-0.2,0.3-0.2,0.3,0l0.6,4.5c0,0.1,0.2,0.2,0.3,0l1.7-4.1c0.1-0.2,0.3-0.1,0.3,0.1l-0.6,4.5c0,0.1,0.2,0.2,0.3,0.1
							l2.4-3.1c0.1-0.1,0.3,0,0.2,0.1l-2.7,5.2c0,0.1-0.1,0.1-0.2,0.1c-1.5-0.9-3.4-1-4.9,0c-0.1,0-0.1,0-0.2,0l-1.1-0.8
							c0,0,0,0,0-0.1l-1.9-4.7C249.2,8.3,249.4,8.1,249.5,8.3z"/>
					</g>
					<g>
						<path class="st1" d="M245.2,12.5l3.5,2.7c0.1,0.1,0,0.3-0.1,0.3l-4.5-0.6c-0.2,0-0.2,0.2-0.1,0.3l4.1,1.7
							c0.1,0.1,0.1,0.3,0,0.3l-4.5,0.6c-0.2,0-0.2,0.3,0,0.3l4.5,0.6c0.1,0,0.2,0.2,0,0.3l-4.1,1.7c-0.2,0.1-0.1,0.3,0.1,0.3
							l4.5-0.6c0.1,0,0.2,0.2,0.1,0.3l-3.1,2.4c-0.1,0.1,0,0.3,0.1,0.2l5.2-2.7c0.1,0,0.1-0.1,0.1-0.2c-0.9-1.5-1-3.4,0-4.9
							c0-0.1,0-0.1,0-0.2l-0.8-1.1c0,0,0,0-0.1,0l-4.7-1.9C245.2,12.2,245.1,12.4,245.2,12.5z"/>
					</g>
				</g>
			</g>
		</g>
		<g>
			<g>
				<path class="st1" d="M276.4,38.2c-0.3-0.3-0.8-0.3-1.1,0c-0.3,0.3-0.3,0.8,0,1.1c0.3,0.3,0.8,0.3,1.1,0
					C276.7,39.1,276.7,38.5,276.4,38.2"/>
				<path class="st1" d="M290.8,53.7c0.1,0.1,0,0.2-0.1,0.1c-2.3-2.1-8.3-7.4-10.5-9.5c-2.8-2.8-3-3.5-2.8-3.8c0.3-0.3,1,0,3.8,2.8
					C283.4,45.4,288.7,51.3,290.8,53.7z"/>
				<path class="st1" d="M285.6,42.4l-8-3c0,0-0.1,0-0.1-0.1c-0.1-0.5-0.4-1.1-0.9-1.8c-0.8-0.8-3.4-1.8-3.9-2c0,0-0.1,0-0.1,0.1
					c0.2,0.5,1.1,3.1,2,3.9c0.5,0.5,1.1,0.8,1.8,0.9c0,0,0.1,0,0.1,0.1l3,8v0.1l-1.7,1.7h-0.1L270.8,34c0-0.1,0-0.1,0.1-0.1
					l16.4,6.8c0.1,0,0.1,0.1,0,0.1L285.6,42.4C285.7,42.4,285.6,42.4,285.6,42.4z"/>
				<g>
					<g>
						<path class="st1" d="M287.5,54.8l-2.7-3.5c-0.1-0.1-0.3,0-0.3,0.1l0.6,4.5c0,0.2-0.2,0.2-0.3,0.1l-1.7-4.1
							c-0.1-0.1-0.3-0.1-0.3,0l-0.6,4.5c0,0.2-0.3,0.2-0.3,0l-0.6-4.5c0-0.1-0.2-0.2-0.3,0l-1.7,4.1c-0.1,0.2-0.3,0.1-0.3-0.1
							l0.6-4.5c0-0.1-0.2-0.2-0.3-0.1l-2.4,3.1c-0.1,0.1-0.3,0-0.2-0.1l2.7-5.2c0-0.1,0.1-0.1,0.2-0.1c1.5,0.9,3.4,1,4.9,0
							c0.1,0,0.1,0,0.2,0l1.1,0.8c0,0,0,0,0,0.1l1.9,4.7C287.8,54.8,287.6,54.9,287.5,54.8z"/>
					</g>
					<g>
						<path class="st1" d="M291.7,50.5l-3.5-2.7c-0.1-0.1,0-0.3,0.1-0.3l4.5,0.6c0.2,0,0.2-0.2,0.1-0.3l-4.1-1.7
							c-0.1-0.1-0.1-0.3,0-0.3l4.5-0.6c0.2,0,0.2-0.3,0-0.3l-4.5-0.6c-0.1,0-0.2-0.2,0-0.3l4.1-1.7c0.2-0.1,0.1-0.3-0.1-0.3
							l-4.5,0.6c-0.1,0-0.2-0.2-0.1-0.3l3.1-2.4c0.1-0.1,0-0.3-0.1-0.2l-5.2,2.7c-0.1,0-0.1,0.1-0.1,0.2c0.9,1.5,1,3.4,0,4.9
							c0,0.1,0,0.1,0,0.2l0.8,1.1c0,0,0,0,0.1,0l4.7,1.9C291.7,50.8,291.9,50.6,291.7,50.5z"/>
					</g>
				</g>
			</g>
		</g>
	</g>
	<g>
		<g>
			<g>
				<path class="st1" d="M357.8,98.4c-0.9,0-1.7,0.7-1.7,1.7s0.7,1.7,1.7,1.7c0.9,0,1.7-0.7,1.7-1.7
					C359.3,99.2,358.6,98.4,357.8,98.4"/>
				<path class="st1" d="M399.8,99.9c0.2,0,0.2,0.3,0,0.4c-6.2,0.4-22.1,1.3-28.2,1.3c-7.8,0-9.3-0.7-9.3-1.6s1.6-1.6,9.3-1.6
					C377.8,98.5,393.7,99.5,399.8,99.9z"/>
				<path class="st1" d="M376.6,91.3l-15.5,7c-0.1,0-0.1,0-0.2,0c-0.8-0.7-2.2-1.1-3.7-1.1c-2.4,0-7.3,2.4-8.3,2.8
					c-0.1,0-0.1,0.1,0,0.2c0.9,0.5,5.9,2.8,8.3,2.8c1.6,0,2.9-0.4,3.7-1.1c0.1,0,0.1,0,0.2,0l15.5,7c0.1,0,0.1,0.1,0.1,0.2v4.6
					c0,0.1-0.1,0.2-0.2,0.2l-33-13.6c-0.1-0.1-0.1-0.3,0-0.3l33-13.6c0.1,0,0.2,0,0.2,0.2v4.6C376.7,91.2,376.7,91.3,376.6,91.3z"/>
				<g>
					<g>
						<path class="st1" d="M396.7,106.1l-8.8-1.1c-0.3,0-0.4,0.3-0.2,0.5l7,5.4c0.3,0.2,0,0.6-0.3,0.5l-8.2-3.4
							c-0.3-0.1-0.5,0.2-0.3,0.4l5.4,7c0.2,0.3-0.1,0.6-0.4,0.4l-7-5.4c-0.2-0.2-0.5,0.1-0.4,0.3l3.4,8.2c0.1,0.3-0.3,0.5-0.5,0.3
							l-5.4-7c-0.2-0.2-0.5-0.1-0.5,0.2l1,7.9c0,0.3-0.4,0.4-0.5,0.1l-3.5-11.1c-0.1-0.2,0-0.3,0.2-0.4c3.4-0.7,6.2-3.4,6.8-6.8
							c0-0.1,0.1-0.2,0.3-0.2l2.8-0.3h0.1l9.2,4C397.3,105.7,397,106.2,396.7,106.1z"/>
					</g>
					<g>
						<path class="st1" d="M396.7,94l-8.8,1.1c-0.3,0-0.4-0.3-0.2-0.5l7-5.4c0.3-0.2,0-0.6-0.3-0.5l-8.2,3.4
							c-0.3,0.1-0.5-0.2-0.3-0.4l5.4-7c0.2-0.3-0.1-0.6-0.4-0.4l-7,5.4c-0.2,0.2-0.5-0.1-0.4-0.3l3.4-8.2c0.1-0.3-0.3-0.5-0.5-0.3
							l-5.4,7c-0.2,0.2-0.5,0.1-0.5-0.2l1-7.9c0-0.3-0.4-0.4-0.5-0.1l-3.5,11.1c-0.1,0.2,0,0.3,0.2,0.4c3.4,0.7,6.2,3.4,6.8,6.8
							c0,0.1,0.1,0.2,0.3,0.2l2.8,0.3h0.1l9.2-4C397.3,94.4,397,94,396.7,94z"/>
					</g>
				</g>
			</g>
		</g>
		<g>
			<g>
				<path class="st1" d="M316.3,101.7c0.9,0,1.7-0.7,1.7-1.7s-0.7-1.7-1.7-1.7c-0.9,0-1.7,0.7-1.7,1.7S315.4,101.7,316.3,101.7"/>
				<path class="st1" d="M274.1,100.2c-0.2,0-0.2-0.3,0-0.4c6.2-0.4,22.1-1.3,28.2-1.3c7.8,0,9.3,0.7,9.3,1.6s-1.6,1.6-9.3,1.6
					C296.2,101.6,280.3,100.6,274.1,100.2z"/>
				<path class="st1" d="M297.4,108.8l15.5-7c0.1,0,0.1,0,0.2,0c0.8,0.7,2.2,1.1,3.7,1.1c2.4,0,7.3-2.4,8.3-2.8c0.1,0,0.1-0.1,0-0.2
					c-0.9-0.5-5.9-2.8-8.3-2.8c-1.6,0-2.9,0.4-3.7,1.1c-0.1,0-0.1,0-0.2,0l-15.5-7c-0.1,0-0.1-0.1-0.1-0.2v-4.6
					c0-0.1,0.1-0.2,0.2-0.2l33,13.6c0.1,0.1,0.1,0.3,0,0.3l-33,13.6c-0.1,0-0.2,0-0.2-0.2v-4.6C297.3,108.9,297.3,108.8,297.4,108.8
					z"/>
				<g>
					<g>
						<path class="st1" d="M277.2,94l8.8,1.1c0.3,0,0.4-0.3,0.2-0.5l-7-5.4c-0.3-0.2,0-0.6,0.3-0.5l8.2,3.4c0.3,0.1,0.5-0.2,0.3-0.4
							l-5.4-7c-0.2-0.3,0.1-0.6,0.4-0.4l7,5.4c0.2,0.2,0.5-0.1,0.4-0.3l-3.4-8.2c-0.1-0.3,0.3-0.5,0.5-0.3l5.4,7
							c0.2,0.2,0.5,0.1,0.5-0.2l-1-7.9c0-0.3,0.4-0.4,0.5-0.1l3.5,11.1c0.1,0.2,0,0.3-0.2,0.4c-3.4,0.7-6.2,3.4-6.8,6.8
							c0,0.1-0.1,0.2-0.3,0.2l-2.8,0.3h-0.1l-9.2-4C276.8,94.4,276.9,94,277.2,94z"/>
					</g>
					<g>
						<path class="st1" d="M277.2,106.1l8.8-1.1c0.3,0,0.4,0.3,0.2,0.5l-7,5.4c-0.3,0.2,0,0.6,0.3,0.5l8.2-3.4
							c0.3-0.1,0.5,0.2,0.3,0.4l-5.4,7c-0.2,0.3,0.1,0.6,0.4,0.4l7-5.4c0.2-0.2,0.5,0.1,0.4,0.3l-3.4,8.2c-0.1,0.3,0.3,0.5,0.5,0.3
							l5.4-7c0.2-0.2,0.5-0.1,0.5,0.2l-1,7.9c0,0.3,0.4,0.4,0.5,0.1l3.5-11.1c0.1-0.2,0-0.3-0.2-0.4c-3.4-0.7-6.2-3.4-6.8-6.8
							c0-0.1-0.1-0.2-0.3-0.2l-2.8-0.3h-0.1l-9.2,4C276.8,105.7,276.9,106.2,277.2,106.1z"/>
					</g>
				</g>
			</g>
		</g>
		<g>
			<g>
				<path class="st1" d="M338.6,120.8c0-0.9-0.7-1.7-1.7-1.7c-0.9,0-1.7,0.7-1.7,1.7s0.7,1.7,1.7,1.7
					C337.9,122.4,338.6,121.7,338.6,120.8"/>
				<path class="st1" d="M337.2,162.9c0,0.2-0.3,0.2-0.4,0c-0.4-6.2-1.3-22.1-1.3-28.2c0-7.8,0.7-9.3,1.6-9.3s1.6,1.6,1.6,9.3
					C338.6,140.8,337.7,156.8,337.2,162.9z"/>
				<path class="st1" d="M345.7,139.7l-7-15.5c0-0.1,0-0.1,0-0.2c0.7-0.8,1.1-2.2,1.1-3.7c0-2.4-2.4-7.3-2.8-8.3
					c0-0.1-0.1-0.1-0.2,0c-0.5,0.9-2.8,5.9-2.8,8.3c0,1.6,0.4,2.9,1.1,3.7c0,0.1,0,0.1,0,0.2l-7,15.5c0,0.1-0.1,0.1-0.2,0.1h-4.6
					c-0.1,0-0.2-0.1-0.2-0.2l13.6-33c0.1-0.1,0.3-0.1,0.3,0l13.6,33c0,0.1,0,0.2-0.2,0.2h-4.6C345.8,139.8,345.8,139.7,345.7,139.7z
					"/>
				<g>
					<g>
						<path class="st1" d="M330.9,159.8l1.1-8.8c0-0.3-0.3-0.4-0.5-0.2l-5.4,7c-0.2,0.3-0.6,0-0.5-0.3l3.4-8.2
							c0.1-0.3-0.2-0.5-0.4-0.3l-7,5.4c-0.3,0.2-0.6-0.1-0.4-0.4l5.4-7c0.2-0.2-0.1-0.5-0.3-0.4l-8.2,3.4c-0.3,0.1-0.5-0.3-0.3-0.5
							l7-5.4c0.2-0.2,0.1-0.5-0.2-0.5l-7.9,1c-0.3,0-0.4-0.4-0.1-0.5l11.1-3.5c0.2-0.1,0.3,0,0.4,0.2c0.7,3.4,3.4,6.2,6.8,6.8
							c0.1,0,0.2,0.1,0.2,0.3l0.3,2.8v0.1l-4,9.2C331.3,160.3,330.9,160.1,330.9,159.8z"/>
					</g>
					<g>
						<path class="st1" d="M343,159.8l-1.1-8.8c0-0.3,0.3-0.4,0.5-0.2l5.4,7c0.2,0.3,0.6,0,0.5-0.3l-3.4-8.2
							c-0.1-0.3,0.2-0.5,0.4-0.3l7,5.4c0.3,0.2,0.6-0.1,0.4-0.4l-5.4-7c-0.2-0.2,0.1-0.5,0.3-0.4l8.2,3.4c0.3,0.1,0.5-0.3,0.3-0.5
							l-7-5.4c-0.2-0.2-0.1-0.5,0.2-0.5l7.9,1c0.3,0,0.4-0.4,0.1-0.5l-11.1-3.5c-0.2-0.1-0.3,0-0.4,0.2c-0.7,3.4-3.4,6.2-6.8,6.8
							c-0.1,0-0.2,0.1-0.2,0.3l-0.3,2.8v0.1l4,9.2C342.6,160.3,343.1,160.1,343,159.8z"/>
					</g>
				</g>
			</g>
		</g>
		<g>
			<g>
				<path class="st1" d="M335.4,79.4c0,0.9,0.7,1.7,1.7,1.7s1.7-0.7,1.7-1.7s-0.7-1.7-1.7-1.7C336.1,77.7,335.4,78.4,335.4,79.4"/>
				<path class="st1" d="M336.8,37.2c0-0.2,0.3-0.2,0.4,0c0.4,6.2,1.3,22.1,1.3,28.2c0,7.8-0.7,9.3-1.6,9.3s-1.6-1.6-1.6-9.3
					C335.5,59.3,336.4,43.4,336.8,37.2z"/>
				<path class="st1" d="M328.2,60.4l7,15.5c0,0.1,0,0.1,0,0.2c-0.7,0.8-1.1,2.2-1.1,3.7c0,2.4,2.4,7.3,2.8,8.3c0,0.1,0.1,0.1,0.2,0
					c0.5-0.9,2.8-5.9,2.8-8.3c0-1.6-0.4-2.9-1.1-3.7c0-0.1,0-0.1,0-0.2l7-15.5c0-0.1,0.1-0.1,0.2-0.1h4.6c0.1,0,0.2,0.1,0.2,0.2
					l-13.6,33c-0.1,0.1-0.3,0.1-0.3,0l-13.6-32.9c0-0.1,0-0.2,0.2-0.2h4.6C328.1,60.3,328.2,60.4,328.2,60.4z"/>
				<g>
					<g>
						<path class="st1" d="M343,40.3l-1.1,8.8c0,0.3,0.3,0.4,0.5,0.2l5.4-7c0.2-0.3,0.6,0,0.5,0.3l-3.4,8.2
							c-0.1,0.3,0.2,0.5,0.4,0.3l7-5.4c0.3-0.2,0.6,0.1,0.4,0.4l-5.4,7c-0.2,0.2,0.1,0.5,0.3,0.4l8.2-3.4c0.3-0.1,0.5,0.3,0.3,0.5
							l-7,5.4c-0.2,0.2-0.1,0.5,0.2,0.5l7.9-1c0.3,0,0.4,0.4,0.1,0.5l-11.1,3.5c-0.2,0.1-0.3,0-0.4-0.2c-0.7-3.4-3.4-6.2-6.8-6.8
							c-0.1,0-0.2-0.1-0.2-0.3l-0.3-2.8v-0.1l4-9.2C342.6,39.9,343.1,40,343,40.3z"/>
					</g>
					<g>
						<path class="st1" d="M330.9,40.3l1.1,8.8c0,0.3-0.3,0.4-0.5,0.2l-5.4-7c-0.2-0.3-0.6,0-0.5,0.3l3.4,8.2
							c0.1,0.3-0.2,0.5-0.4,0.3l-7-5.4c-0.3-0.2-0.6,0.1-0.4,0.4l5.4,7c0.2,0.2-0.1,0.5-0.3,0.4l-8.2-3.4c-0.3-0.1-0.5,0.3-0.3,0.5
							l7,5.4c0.2,0.2,0.1,0.5-0.2,0.5l-7.9-1c-0.3,0-0.4,0.4-0.1,0.5l11.1,3.5c0.2,0.1,0.3,0,0.4-0.2c0.7-3.4,3.4-6.2,6.8-6.8
							c0.1,0,0.2-0.1,0.2-0.3l0.3-2.8v-0.1l-4-9.2C331.3,39.9,330.9,40,330.9,40.3z"/>
					</g>
				</g>
			</g>
		</g>
		<g>
			<g>
				<path class="st1" d="M323.5,115.9c0.6-0.6,0.6-1.7,0-2.3c-0.6-0.6-1.7-0.6-2.3,0c-0.6,0.6-0.6,1.7,0,2.3
					C321.8,116.5,322.8,116.5,323.5,115.9"/>
				<path class="st1" d="M292.7,144.7c-0.2,0.1-0.4-0.1-0.3-0.3c4-4.7,14.6-16.6,19-20.8c5.5-5.5,7-6.1,7.7-5.5
					c0.6,0.6,0,2.2-5.5,7.7C309.3,130,297.3,140.5,292.7,144.7z"/>
				<path class="st1" d="M315.2,134.3l6-16c0-0.1,0.1-0.1,0.1-0.1c1.1-0.1,2.4-0.7,3.4-1.9c1.7-1.7,3.5-6.8,3.8-7.9
					c0-0.1,0-0.1-0.1-0.1c-1,0.3-6.2,2.2-7.9,3.8c-1,1-1.8,2.4-1.9,3.4c0,0.1-0.1,0.1-0.1,0.1l-16,6c-0.1,0-0.1,0-0.2,0l-3.2-3.2
					c-0.1-0.1-0.1-0.2,0.1-0.3l32.9-13.7c0.1-0.1,0.3,0.1,0.2,0.2l-13.7,32.9c0,0.1-0.2,0.1-0.3,0.1l-3.2-3.2
					C315.2,134.4,315.2,134.3,315.2,134.3z"/>
				<g>
					<g>
						<path class="st1" d="M290.5,138l7-5.4c0.2-0.2,0.1-0.5-0.2-0.5l-8.8,1.1c-0.3,0-0.4-0.4-0.1-0.5l8.2-3.4
							c0.3-0.1,0.2-0.5-0.1-0.5l-8.8-1.1c-0.3,0-0.3-0.5,0-0.6l8.8-1.1c0.3,0,0.3-0.4,0.1-0.5l-8.2-3.4c-0.3-0.1-0.2-0.6,0.1-0.5
							l8.8,1.1c0.3,0,0.4-0.3,0.2-0.5l-6.3-4.8c-0.3-0.2,0-0.6,0.3-0.5l10.4,5.3c0.1,0.1,0.2,0.3,0.1,0.4c-2,3-2,6.7,0,9.7
							c0.1,0.1,0.1,0.2,0,0.3l-1.8,2.3l-0.1,0.1l-9.3,3.6C290.5,138.7,290.2,138.2,290.5,138z"/>
					</g>
					<g>
						<path class="st1" d="M299.1,146.6l5.4-7c0.2-0.2,0.5-0.1,0.5,0.2l-1.1,8.8c0,0.3,0.4,0.4,0.5,0.1l3.4-8.2
							c0.1-0.3,0.5-0.2,0.5,0.1l1.1,8.8c0,0.3,0.5,0.3,0.6,0l1.1-8.8c0-0.3,0.4-0.3,0.5-0.1l3.4,8.2c0.1,0.3,0.6,0.2,0.5-0.1
							l-1.1-8.8c0-0.3,0.3-0.4,0.5-0.2l4.8,6.3c0.2,0.3,0.6,0,0.5-0.3l-5.3-10.4c-0.1-0.1-0.3-0.2-0.4-0.1c-3,2-6.7,2-9.7,0
							c-0.1-0.1-0.2-0.1-0.3,0l-2.3,1.8l-0.1,0.1l-3.6,9.3C298.4,146.6,298.9,146.9,299.1,146.6z"/>
					</g>
				</g>
			</g>
		</g>
		<g>
			<g>
				<path class="st1" d="M350.5,84.2c-0.6,0.6-0.6,1.7,0,2.3c0.6,0.6,1.7,0.6,2.3,0c0.6-0.6,0.6-1.7,0-2.3
					C352.2,83.6,351.1,83.6,350.5,84.2"/>
				<path class="st1" d="M381.3,55.4c0.2-0.1,0.4,0.1,0.3,0.3c-4,4.7-14.6,16.6-19,20.8c-5.5,5.5-7,6.1-7.7,5.5
					c-0.6-0.6,0-2.2,5.5-7.7C364.8,70.1,376.6,59.6,381.3,55.4z"/>
				<path class="st1" d="M358.8,65.9l-6,16c0,0.1-0.1,0.1-0.1,0.1c-1.1,0.1-2.4,0.7-3.4,1.9c-1.7,1.7-3.5,6.8-3.8,7.9
					c0,0.1,0,0.1,0.1,0.1c1-0.3,6.2-2.2,7.9-3.8c1-1,1.8-2.4,1.9-3.4c0-0.1,0.1-0.1,0.1-0.1l16-6c0.1,0,0.1,0,0.2,0l3.2,3.2
					c0.1,0.1,0.1,0.2-0.1,0.3l-32.9,13.7c-0.1,0.1-0.3-0.1-0.2-0.2l13.7-32.9c0-0.1,0.2-0.1,0.3-0.1l3.2,3.2
					C358.8,65.7,358.8,65.8,358.8,65.9z"/>
				<g>
					<g>
						<path class="st1" d="M383.6,62.1l-7,5.4c-0.2,0.2-0.1,0.5,0.2,0.5l8.8-1.1c0.3,0,0.4,0.4,0.1,0.5l-8.2,3.4
							c-0.3,0.1-0.2,0.5,0.1,0.5l8.8,1.1c0.3,0,0.3,0.5,0,0.6l-8.8,1.1c-0.3,0-0.3,0.4-0.1,0.5l8.2,3.4c0.3,0.1,0.2,0.6-0.1,0.5
							l-8.8-1.1c-0.3,0-0.4,0.3-0.2,0.5l6.3,4.8c0.3,0.2,0,0.6-0.3,0.5L372.2,78c-0.1-0.1-0.2-0.3-0.1-0.4c2-3,2-6.7,0-9.7
							c-0.1-0.1-0.1-0.2,0-0.3l1.8-2.3l0.1-0.1l9.3-3.6C383.6,61.4,383.8,61.9,383.6,62.1z"/>
					</g>
					<g>
						<path class="st1" d="M375,53.6l-5.4,7c-0.2,0.2-0.5,0.1-0.5-0.2l1.1-8.8c0-0.3-0.4-0.4-0.5-0.1l-3.4,8.2
							c-0.1,0.3-0.5,0.2-0.5-0.1l-1.1-8.8c0-0.3-0.5-0.3-0.6,0l-1.1,8.8c0,0.3-0.4,0.3-0.5,0.1l-3.4-8.2c-0.1-0.3-0.6-0.2-0.5,0.1
							l1.1,8.8c0,0.3-0.3,0.4-0.5,0.2l-4.8-6.3c-0.2-0.3-0.6,0-0.5,0.3L359,65c0.1,0.1,0.3,0.2,0.4,0.1c3-2,6.7-2,9.7,0
							c0.1,0.1,0.2,0.1,0.3,0l2.3-1.8l0.1-0.1l3.6-9.3C375.6,53.5,375.2,53.3,375,53.6z"/>
					</g>
				</g>
			</g>
		</g>
		<g>
			<g>
				<path class="st1" d="M321.2,86.5c0.6,0.6,1.7,0.6,2.3,0c0.6-0.6,0.6-1.7,0-2.3c-0.6-0.6-1.7-0.6-2.3,0
					C320.5,84.9,320.5,85.9,321.2,86.5"/>
				<path class="st1" d="M292.5,55.7c-0.1-0.2,0.1-0.4,0.3-0.3c4.7,4,16.6,14.6,20.8,19c5.5,5.5,6.1,7,5.5,7.7
					c-0.6,0.6-2.2,0-7.7-5.5C307.1,72.3,296.5,60.4,292.5,55.7z"/>
				<path class="st1" d="M302.8,78.2l16,6c0.1,0,0.1,0.1,0.1,0.1c0.1,1.1,0.7,2.4,1.9,3.4c1.7,1.7,6.8,3.5,7.9,3.8
					c0.1,0,0.1,0,0.1-0.1c-0.3-1-2.2-6.2-3.8-7.9c-1-1-2.4-1.8-3.4-1.9c-0.1,0-0.1-0.1-0.1-0.1l-6-16c0-0.1,0-0.1,0-0.2l3.2-3.2
					c0.1-0.1,0.2-0.1,0.3,0.1l13.6,33c0.1,0.1-0.1,0.3-0.2,0.2l-32.9-13.7c-0.1,0-0.1-0.2-0.1-0.3l3.2-3.2
					C302.6,78.2,302.7,78.2,302.8,78.2z"/>
				<g>
					<g>
						<path class="st1" d="M299.1,53.6l5.4,7c0.2,0.2,0.5,0.1,0.5-0.2l-1.1-8.8c0-0.3,0.4-0.4,0.5-0.1l3.4,8.2
							c0.1,0.3,0.5,0.2,0.5-0.1l1.1-8.8c0-0.3,0.5-0.3,0.6,0l1.1,8.8c0,0.3,0.4,0.3,0.5,0.1l3.4-8.2c0.1-0.3,0.6-0.2,0.5,0.1
							l-1.1,8.8c0,0.3,0.3,0.4,0.5,0.2l4.8-6.3c0.2-0.3,0.6,0,0.5,0.3L315.1,65c-0.1,0.1-0.3,0.2-0.4,0.1c-3-2-6.7-2-9.7,0
							c-0.1,0.1-0.2,0.1-0.3,0l-2.3-1.8l-0.1-0.1l-3.6-9.3C298.4,53.5,298.9,53.3,299.1,53.6z"/>
					</g>
					<g>
						<path class="st1" d="M290.5,62.1l7,5.4c0.2,0.2,0.1,0.5-0.2,0.5l-8.8-1.1c-0.3,0-0.4,0.4-0.1,0.5l8.2,3.4
							c0.3,0.1,0.2,0.5-0.1,0.5l-8.8,1.1c-0.3,0-0.3,0.5,0,0.6l8.8,1.1c0.3,0,0.3,0.4,0.1,0.5l-8.2,3.4c-0.3,0.1-0.2,0.6,0.1,0.5
							l8.8-1.1c0.3,0,0.4,0.3,0.2,0.5l-6.3,4.9c-0.3,0.2,0,0.6,0.3,0.5l10.4-5.3c0.1-0.1,0.2-0.3,0.1-0.4c-2-3-2-6.7,0-9.7
							c0.1-0.1,0.1-0.2,0-0.3l-1.8-2.3l-0.1-0.1l-9.3-3.6C290.5,61.4,290.2,61.9,290.5,62.1z"/>
					</g>
				</g>
			</g>
		</g>
		<g>
			<g>
				<path class="st1" d="M352.8,113.6c-0.6-0.6-1.7-0.6-2.3,0c-0.6,0.6-0.6,1.7,0,2.3c0.6,0.6,1.7,0.6,2.3,0
					C353.4,115.2,353.4,114.2,352.8,113.6"/>
				<path class="st1" d="M381.6,144.4c0.1,0.2-0.1,0.4-0.3,0.3c-4.7-4-16.6-14.6-20.8-19c-5.5-5.5-6.1-7-5.5-7.7
					c0.6-0.6,2.2,0,7.7,5.5C367,127.8,377.6,139.7,381.6,144.4z"/>
				<path class="st1" d="M371.2,121.9l-16-6c-0.1,0-0.1-0.1-0.1-0.1c-0.1-1.1-0.7-2.4-1.9-3.4c-1.7-1.7-6.8-3.5-7.9-3.8
					c-0.1,0-0.1,0-0.1,0.1c0.3,1,2.2,6.2,3.8,7.9c1,1,2.4,1.8,3.4,1.9c0.1,0,0.1,0.1,0.1,0.1l6,16c0,0.1,0,0.1,0,0.2l-3.2,3.2
					c-0.1,0.1-0.2,0.1-0.3-0.1l-13.7-32.9c-0.1-0.1,0.1-0.3,0.2-0.2l32.9,13.7c0.1,0,0.1,0.2,0.1,0.3l-3.2,3.2
					C371.3,121.9,371.2,121.9,371.2,121.9z"/>
				<g>
					<g>
						<path class="st1" d="M375,146.6l-5.4-7c-0.2-0.2-0.5-0.1-0.5,0.2l1.1,8.8c0,0.3-0.4,0.4-0.5,0.1l-3.4-8.2
							c-0.1-0.3-0.5-0.2-0.5,0.1l-1.1,8.8c0,0.3-0.5,0.3-0.6,0l-1.1-8.8c0-0.3-0.4-0.3-0.5-0.1l-3.4,8.2c-0.1,0.3-0.6,0.2-0.5-0.1
							l1.1-8.8c0-0.3-0.3-0.4-0.5-0.2l-4.8,6.3c-0.2,0.3-0.6,0-0.5-0.3l5.3-10.4c0.1-0.1,0.3-0.2,0.4-0.1c3,2,6.7,2,9.7,0
							c0.1-0.1,0.2-0.1,0.3,0l2.3,1.8l0.1,0.1l3.6,9.3C375.6,146.6,375.2,146.9,375,146.6z"/>
					</g>
					<g>
						<path class="st1" d="M383.6,138l-7-5.4c-0.2-0.2-0.1-0.5,0.2-0.5l8.8,1.1c0.3,0,0.4-0.4,0.1-0.5l-8.2-3.4
							c-0.3-0.1-0.2-0.5,0.1-0.5l8.8-1.1c0.3,0,0.3-0.5,0-0.6l-8.8-1.1c-0.3,0-0.3-0.4-0.1-0.5l8.2-3.4c0.3-0.1,0.2-0.6-0.1-0.5
							l-8.8,1.1c-0.3,0-0.4-0.3-0.2-0.5l6.3-4.8c0.3-0.2,0-0.6-0.3-0.5l-10.4,5.3c-0.1,0.1-0.2,0.3-0.1,0.4c2,3,2,6.7,0,9.7
							c-0.1,0.1-0.1,0.2,0,0.3l1.8,2.3l0.1,0.1l9.3,3.6C383.6,138.7,383.8,138.2,383.6,138z"/>
					</g>
				</g>
			</g>
		</g>
	</g>
	<g>
		<g>
			<g>
				<path class="st1" d="M201.7,120.8c0-0.9-0.7-1.7-1.7-1.7c-0.9,0-1.7,0.7-1.7,1.7s0.7,1.7,1.7,1.7
					C200.9,122.4,201.7,121.7,201.7,120.8"/>
				<path class="st1" d="M200.2,162.9c0,0.2-0.3,0.2-0.4,0c-0.4-6.2-1.3-22.1-1.3-28.2c0-7.8,0.7-9.3,1.6-9.3s1.6,1.6,1.6,9.3
					C201.6,140.8,200.6,156.8,200.2,162.9z"/>
				<path class="st1" d="M208.8,139.7l-7-15.5c0-0.1,0-0.1,0-0.2c0.7-0.8,1.1-2.2,1.1-3.7c0-2.4-2.4-7.3-2.8-8.3
					c0-0.1-0.1-0.1-0.2,0c-0.5,0.9-2.8,5.9-2.8,8.3c0,1.6,0.4,2.9,1.1,3.7c0,0.1,0,0.1,0,0.2l-7,15.5c0,0.1-0.1,0.1-0.2,0.1h-4.6
					c-0.1,0-0.2-0.1-0.2-0.2l13.6-33c0.1-0.1,0.3-0.1,0.3,0l13.6,33c0,0.1,0,0.2-0.2,0.2h-4.6C208.8,139.8,208.8,139.7,208.8,139.7z
					"/>
				<g>
					<g>
						<path class="st1" d="M193.9,159.8l1.1-8.8c0-0.3-0.3-0.4-0.5-0.2l-5.4,7c-0.2,0.3-0.6,0-0.5-0.3l3.4-8.2
							c0.1-0.3-0.2-0.5-0.4-0.3l-7,5.4c-0.3,0.2-0.6-0.1-0.4-0.4l5.4-7c0.2-0.2-0.1-0.5-0.3-0.4L181,150c-0.3,0.1-0.5-0.3-0.3-0.5
							l7-5.4c0.2-0.2,0.1-0.5-0.2-0.5l-7.9,1c-0.3,0-0.4-0.4-0.1-0.5l11.1-3.5c0.2-0.1,0.3,0,0.4,0.2c0.7,3.4,3.4,6.2,6.8,6.8
							c0.1,0,0.2,0.1,0.2,0.3l0.3,2.8v0.1l-4,9.2C194.4,160.3,193.9,160.1,193.9,159.8z"/>
					</g>
					<g>
						<path class="st1" d="M206,159.8l-1.1-8.8c0-0.3,0.3-0.4,0.5-0.2l5.4,7c0.2,0.3,0.6,0,0.5-0.3l-3.4-8.2
							c-0.1-0.3,0.2-0.5,0.4-0.3l7,5.4c0.3,0.2,0.6-0.1,0.4-0.4l-5.4-7c-0.2-0.2,0.1-0.5,0.3-0.4l8.2,3.4c0.3,0.1,0.5-0.3,0.3-0.5
							l-7-5.4c-0.2-0.2-0.1-0.5,0.2-0.5l7.9,1c0.3,0,0.4-0.4,0.1-0.5l-11.1-3.5c-0.2-0.1-0.3,0-0.4,0.2c-0.7,3.4-3.4,6.2-6.8,6.8
							c-0.1,0-0.2,0.1-0.2,0.3l-0.3,2.8v0.1l4,9.2C205.6,160.3,206.1,160.1,206,159.8z"/>
					</g>
				</g>
			</g>
		</g>
		<g>
			<g>
				<path class="st1" d="M198.3,79.4c0,0.9,0.7,1.7,1.7,1.7c0.9,0,1.7-0.7,1.7-1.7s-0.7-1.7-1.7-1.7
					C199.1,77.7,198.3,78.4,198.3,79.4"/>
				<path class="st1" d="M199.8,37.2c0-0.2,0.3-0.2,0.4,0c0.4,6.2,1.3,22.1,1.3,28.2c0,7.8-0.7,9.3-1.6,9.3s-1.6-1.6-1.6-9.3
					C198.4,59.3,199.4,43.4,199.8,37.2z"/>
				<path class="st1" d="M191.2,60.4l7,15.5c0,0.1,0,0.1,0,0.2c-0.7,0.8-1.1,2.2-1.1,3.7c0,2.4,2.4,7.3,2.8,8.3c0,0.1,0.1,0.1,0.2,0
					c0.5-0.9,2.8-5.9,2.8-8.3c0-1.6-0.4-2.9-1.1-3.7c0-0.1,0-0.1,0-0.2l7-15.5c0-0.1,0.1-0.1,0.2-0.1h4.6c0.1,0,0.2,0.1,0.2,0.2
					l-13.6,33c-0.1,0.1-0.3,0.1-0.3,0l-13.6-33c0-0.1,0-0.2,0.2-0.2h4.6C191.2,60.3,191.2,60.4,191.2,60.4z"/>
				<g>
					<g>
						<path class="st1" d="M206,40.3l-1.1,8.8c0,0.3,0.3,0.4,0.5,0.2l5.4-7c0.2-0.3,0.6,0,0.5,0.3l-3.4,8.2
							c-0.1,0.3,0.2,0.5,0.4,0.3l7-5.4c0.3-0.2,0.6,0.1,0.4,0.4l-5.4,7c-0.2,0.2,0.1,0.5,0.3,0.4l8.2-3.4c0.3-0.1,0.5,0.3,0.3,0.5
							l-7,5.4c-0.2,0.2-0.1,0.5,0.2,0.5l7.9-1c0.3,0,0.4,0.4,0.1,0.5l-11.1,3.5c-0.2,0.1-0.3,0-0.4-0.2c-0.7-3.4-3.4-6.2-6.8-6.8
							c-0.1,0-0.2-0.1-0.2-0.3l-0.3-2.8v-0.1l4-9.2C205.6,39.9,206.1,40,206,40.3z"/>
					</g>
					<g>
						<path class="st1" d="M193.9,40.3l1.1,8.8c0,0.3-0.3,0.4-0.5,0.2l-5.4-7c-0.2-0.3-0.6,0-0.5,0.3l3.4,8.2
							c0.1,0.3-0.2,0.5-0.4,0.3l-7-5.4c-0.3-0.2-0.6,0.1-0.4,0.4l5.4,7c0.2,0.2-0.1,0.5-0.3,0.4l-8.2-3.4c-0.3-0.1-0.5,0.3-0.3,0.5
							l7,5.4c0.2,0.2,0.1,0.5-0.2,0.5l-7.9-1c-0.3,0-0.4,0.4-0.1,0.5l11.1,3.5c0.2,0.1,0.3,0,0.4-0.2c0.7-3.4,3.4-6.2,6.8-6.8
							c0.1,0,0.2-0.1,0.2-0.3l0.3-2.8v-0.1l-4-9.2C194.4,39.9,193.9,40,193.9,40.3z"/>
					</g>
				</g>
			</g>
		</g>
		<g>
			<g>
				<path class="st1" d="M179.3,101.7c0.9,0,1.7-0.7,1.7-1.7s-0.7-1.7-1.7-1.7c-0.9,0-1.7,0.7-1.7,1.7S178.3,101.7,179.3,101.7"/>
				<path class="st1" d="M137.1,100.2c-0.2,0-0.2-0.3,0-0.4c6.2-0.4,22.1-1.3,28.2-1.3c7.8,0,9.3,0.7,9.3,1.6s-1.6,1.6-9.3,1.6
					C159.2,101.6,143.3,100.6,137.1,100.2z"/>
				<path class="st1" d="M160.4,108.8l15.5-7c0.1,0,0.1,0,0.2,0c0.8,0.7,2.2,1.1,3.7,1.1c2.4,0,7.3-2.4,8.3-2.8c0.1,0,0.1-0.1,0-0.2
					c-0.9-0.5-5.9-2.8-8.3-2.8c-1.6,0-2.9,0.4-3.7,1.1c-0.1,0-0.1,0-0.2,0l-15.5-7c-0.1,0-0.1-0.1-0.1-0.2v-4.6
					c0-0.1,0.1-0.2,0.2-0.2l33,13.6c0.1,0.1,0.1,0.3,0,0.3l-33,13.6c-0.1,0-0.2,0-0.2-0.2v-4.6C160.3,108.9,160.3,108.8,160.4,108.8
					z"/>
				<g>
					<g>
						<path class="st1" d="M140.3,94l8.8,1.1c0.3,0,0.4-0.3,0.2-0.5l-7-5.4c-0.3-0.2,0-0.6,0.3-0.5l8.2,3.4c0.3,0.1,0.5-0.2,0.3-0.4
							l-5.4-7c-0.2-0.3,0.1-0.6,0.4-0.4l7,5.4c0.2,0.2,0.5-0.1,0.4-0.3l-3.4-8.2c-0.1-0.3,0.3-0.5,0.5-0.3l5.4,7
							c0.2,0.2,0.5,0.1,0.5-0.2l-1-7.9c0-0.3,0.4-0.4,0.5-0.1l3.5,11.1c0.1,0.2,0,0.3-0.2,0.4c-3.4,0.7-6.2,3.4-6.8,6.8
							c0,0.1-0.1,0.2-0.3,0.2l-2.8,0.3h-0.1l-9.2-4C139.8,94.4,139.9,94,140.3,94z"/>
					</g>
					<g>
						<path class="st1" d="M140.3,106.1l8.8-1.1c0.3,0,0.4,0.3,0.2,0.5l-7,5.4c-0.3,0.2,0,0.6,0.3,0.5l8.2-3.4
							c0.3-0.1,0.5,0.2,0.3,0.4l-5.4,7c-0.2,0.3,0.1,0.6,0.4,0.4l7-5.4c0.2-0.2,0.5,0.1,0.4,0.3l-3.4,8.2c-0.1,0.3,0.3,0.5,0.5,0.3
							l5.4-7c0.2-0.2,0.5-0.1,0.5,0.2l-1,7.9c0,0.3,0.4,0.4,0.5,0.1l3.5-11.1c0.1-0.2,0-0.3-0.2-0.4c-3.4-0.7-6.2-3.4-6.8-6.8
							c0-0.1-0.1-0.2-0.3-0.2l-2.8-0.3h-0.1l-9.2,4C139.8,105.7,139.9,106.2,140.3,106.1z"/>
					</g>
				</g>
			</g>
		</g>
		<g>
			<g>
				<path class="st1" d="M220.7,98.4c-0.9,0-1.7,0.7-1.7,1.7s0.7,1.7,1.7,1.7c0.9,0,1.7-0.7,1.7-1.7S221.7,98.4,220.7,98.4"/>
				<path class="st1" d="M262.9,99.9c0.2,0,0.2,0.3,0,0.4c-6.2,0.4-22.1,1.3-28.2,1.3c-7.8,0-9.3-0.7-9.3-1.6s1.6-1.6,9.3-1.6
					C240.8,98.5,256.7,99.5,262.9,99.9z"/>
				<path class="st1" d="M239.6,91.3l-15.5,7c-0.1,0-0.1,0-0.2,0c-0.8-0.7-2.2-1.1-3.7-1.1c-2.4,0-7.3,2.4-8.3,2.8
					c-0.1,0-0.1,0.1,0,0.2c0.9,0.5,5.9,2.8,8.3,2.8c1.6,0,2.9-0.4,3.7-1.1c0.1,0,0.1,0,0.2,0l15.5,7c0.1,0,0.1,0.1,0.1,0.2v4.6
					c0,0.1-0.1,0.2-0.2,0.2l-33-13.6c-0.1-0.1-0.1-0.3,0-0.3l33-13.6c0.1,0,0.2,0,0.2,0.2v4.6C239.7,91.2,239.7,91.3,239.6,91.3z"/>
				<g>
					<g>
						<path class="st1" d="M259.7,106.1l-8.8-1.1c-0.3,0-0.4,0.3-0.2,0.5l7,5.4c0.3,0.2,0,0.6-0.3,0.5l-8.2-3.4
							c-0.3-0.1-0.5,0.2-0.3,0.4l5.4,7c0.2,0.3-0.1,0.6-0.4,0.4l-7-5.4c-0.2-0.2-0.5,0.1-0.4,0.3l3.4,8.2c0.1,0.3-0.3,0.5-0.5,0.3
							l-5.4-7c-0.2-0.2-0.5-0.1-0.5,0.2l1,7.9c0,0.3-0.4,0.4-0.5,0.1l-3.5-11.1c-0.1-0.2,0-0.3,0.2-0.4c3.4-0.7,6.2-3.4,6.8-6.8
							c0-0.1,0.1-0.2,0.3-0.2l2.8-0.3h0.1l9.2,4C260.2,105.7,260.1,106.2,259.7,106.1z"/>
					</g>
					<g>
						<path class="st1" d="M259.7,94l-8.8,1.1c-0.3,0-0.4-0.3-0.2-0.5l7-5.4c0.3-0.2,0-0.6-0.3-0.5l-8.2,3.4
							c-0.3,0.1-0.5-0.2-0.3-0.4l5.4-7c0.2-0.3-0.1-0.6-0.4-0.4l-7,5.4c-0.2,0.2-0.5-0.1-0.4-0.3l3.4-8.2c0.1-0.3-0.3-0.5-0.5-0.3
							l-5.4,7c-0.2,0.2-0.5,0.1-0.5-0.2l1-7.9c0-0.3-0.4-0.4-0.5-0.1l-3.5,11.1c-0.1,0.2,0,0.3,0.2,0.4c3.4,0.7,6.2,3.4,6.8,6.8
							c0,0.1,0.1,0.2,0.3,0.2l2.8,0.3h0.1l9.2-4C260.2,94.4,260.1,94,259.7,94z"/>
					</g>
				</g>
			</g>
		</g>
		<g>
			<g>
				<path class="st1" d="M184.1,86.5c0.6,0.6,1.7,0.6,2.3,0c0.6-0.6,0.6-1.7,0-2.3c-0.6-0.6-1.7-0.6-2.3,0
					C183.5,84.9,183.5,85.9,184.1,86.5"/>
				<path class="st1" d="M155.4,55.7c-0.1-0.2,0.1-0.4,0.3-0.3c4.7,4,16.6,14.6,20.8,19c5.5,5.5,6.1,7,5.5,7.7
					c-0.6,0.6-2.2,0-7.7-5.5C170,72.3,159.5,60.4,155.4,55.7z"/>
				<path class="st1" d="M165.8,78.2l16,6c0.1,0,0.1,0.1,0.1,0.1c0.1,1.1,0.7,2.4,1.9,3.4c1.7,1.7,6.8,3.5,7.9,3.8
					c0.1,0,0.1,0,0.1-0.1c-0.3-1-2.2-6.2-3.8-7.9c-1-1-2.4-1.8-3.4-1.9c-0.1,0-0.1-0.1-0.1-0.1l-6.1-15.8c0-0.1,0-0.1,0-0.2l3.2-3.2
					c0.1-0.1,0.2-0.1,0.3,0.1l13.7,32.8c0.1,0.1-0.1,0.3-0.2,0.2l-32.9-13.7c-0.1,0-0.1-0.2-0.1-0.3l3.2-3.2
					C165.7,78.2,165.7,78.2,165.8,78.2z"/>
				<g>
					<g>
						<path class="st1" d="M162.1,53.6l5.4,7c0.2,0.2,0.5,0.1,0.5-0.2l-1.1-8.8c0-0.3,0.4-0.4,0.5-0.1l3.4,8.2
							c0.1,0.3,0.5,0.2,0.5-0.1l1.1-8.8c0-0.3,0.5-0.3,0.6,0l1.1,8.8c0,0.3,0.4,0.3,0.5,0.1l3.4-8.2c0.1-0.3,0.6-0.2,0.5,0.1
							l-1.1,8.8c0,0.3,0.3,0.4,0.5,0.2l4.8-6.3c0.2-0.3,0.6,0,0.5,0.3L178,65c-0.1,0.1-0.3,0.2-0.4,0.1c-3-2-6.7-2-9.7,0
							c-0.1,0.1-0.2,0.1-0.3,0l-2.3-1.8l-0.1-0.1l-3.6-9.3C161.4,53.5,161.9,53.3,162.1,53.6z"/>
					</g>
					<g>
						<path class="st1" d="M153.5,62.1l7,5.4c0.2,0.2,0.1,0.5-0.2,0.5l-8.8-1.1c-0.3,0-0.4,0.4-0.1,0.5l8.2,3.4
							c0.3,0.1,0.2,0.5-0.1,0.5l-8.8,1.1c-0.3,0-0.3,0.5,0,0.6l8.8,1.1c0.3,0,0.3,0.4,0.1,0.5l-8.2,3.4c-0.3,0.1-0.2,0.6,0.1,0.5
							l8.8-1.1c0.3,0,0.4,0.3,0.2,0.5l-6.3,4.8c-0.3,0.2,0,0.6,0.3,0.5l10.4-5.3c0.1-0.1,0.2-0.3,0.1-0.4c-2-3-2-6.7,0-9.7
							c0.1-0.1,0.1-0.2,0-0.3l-1.8-2.3l-0.1-0.1l-9.3-3.6C153.5,61.4,153.1,61.9,153.5,62.1z"/>
					</g>
				</g>
			</g>
		</g>
		<g>
			<g>
				<path class="st1" d="M215.8,113.6c-0.6-0.6-1.7-0.6-2.3,0c-0.6,0.6-0.6,1.7,0,2.3c0.6,0.6,1.7,0.6,2.3,0
					C216.5,115.2,216.5,114.2,215.8,113.6"/>
				<path class="st1" d="M244.6,144.4c0.1,0.2-0.1,0.4-0.3,0.3c-4.7-4-16.6-14.6-20.8-19c-5.5-5.5-6.1-7-5.5-7.7
					c0.6-0.6,2.2,0,7.7,5.5C230,127.8,240.5,139.7,244.6,144.4z"/>
				<path class="st1" d="M234.2,121.9l-16-6c-0.1,0-0.1-0.1-0.1-0.1c-0.1-1.1-0.7-2.4-1.9-3.4c-1.7-1.7-6.8-3.5-7.9-3.8
					c-0.1,0-0.1,0-0.1,0.1c0.3,1,2.2,6.2,3.8,7.9c1,1,2.4,1.8,3.4,1.9c0.1,0,0.1,0.1,0.1,0.1l6,16c0,0.1,0,0.1,0,0.2l-3.2,3.2
					c-0.1,0.1-0.2,0.1-0.3-0.1l-13.7-32.9c-0.1-0.1,0.1-0.3,0.2-0.2l32.9,13.7c0.1,0,0.1,0.2,0.1,0.3l-3.2,3.2
					C234.3,121.9,234.3,121.9,234.2,121.9z"/>
				<g>
					<g>
						<path class="st1" d="M237.9,146.6l-5.4-7c-0.2-0.2-0.5-0.1-0.5,0.2l1.1,8.8c0,0.3-0.4,0.4-0.5,0.1l-3.4-8.2
							c-0.1-0.3-0.5-0.2-0.5,0.1l-1.1,8.8c0,0.3-0.5,0.3-0.6,0l-1.1-8.8c0-0.3-0.4-0.3-0.5-0.1l-3.4,8.2c-0.1,0.3-0.6,0.2-0.5-0.1
							l1.1-8.8c0-0.3-0.3-0.4-0.5-0.2l-4.8,6.3c-0.2,0.3-0.6,0-0.5-0.3l5.3-10.4c0.1-0.1,0.3-0.2,0.4-0.1c3,2,6.7,2,9.7,0
							c0.1-0.1,0.2-0.1,0.3,0l2.3,1.8l0.1,0.1l3.6,9.3C238.6,146.6,238.1,146.9,237.9,146.6z"/>
					</g>
					<g>
						<path class="st1" d="M246.5,138l-7-5.4c-0.2-0.2-0.1-0.5,0.2-0.5l8.8,1.1c0.3,0,0.4-0.4,0.1-0.5l-8.2-3.4
							c-0.3-0.1-0.2-0.5,0.1-0.5l8.8-1.1c0.3,0,0.3-0.5,0-0.6l-8.8-1.1c-0.3,0-0.3-0.4-0.1-0.5l8.2-3.4c0.3-0.1,0.2-0.6-0.1-0.5
							l-8.8,1.1c-0.3,0-0.4-0.3-0.2-0.5l6.3-4.8c0.3-0.2,0-0.6-0.3-0.5l-10.4,5.3c-0.1,0.1-0.2,0.3-0.1,0.4c2,3,2,6.7,0,9.7
							c-0.1,0.1-0.1,0.2,0,0.3l1.8,2.3l0.1,0.1l9.3,3.6C246.5,138.7,246.9,138.2,246.5,138z"/>
					</g>
				</g>
			</g>
		</g>
		<g>
			<g>
				<path class="st1" d="M213.5,84.2c-0.6,0.6-0.6,1.7,0,2.3c0.6,0.6,1.7,0.6,2.3,0c0.6-0.6,0.6-1.7,0-2.3
					C215.1,83.6,214.2,83.6,213.5,84.2"/>
				<path class="st1" d="M244.4,55.4c0.2-0.1,0.4,0.1,0.3,0.3c-4,4.7-14.6,16.6-19,20.8c-5.5,5.5-7,6.1-7.7,5.5
					c-0.6-0.6,0-2.2,5.5-7.7C227.8,70.1,239.7,59.6,244.4,55.4z"/>
				<path class="st1" d="M221.8,65.9l-6,16c0,0.1-0.1,0.1-0.1,0.1c-1.1,0.1-2.4,0.7-3.4,1.9c-1.7,1.7-3.5,6.8-3.8,7.9
					c0,0.1,0,0.1,0.1,0.1c1-0.3,6.2-2.2,7.9-3.8c1-1,1.8-2.4,1.9-3.4c0-0.1,0.1-0.1,0.1-0.1l16-6c0.1,0,0.1,0,0.2,0l3.2,3.2
					c0.1,0.1,0.1,0.2-0.1,0.3l-32.9,13.7c-0.1,0.1-0.3-0.1-0.2-0.2l13.7-32.9c0-0.1,0.2-0.1,0.3-0.1l3.2,3.2
					C221.8,65.7,221.9,65.8,221.8,65.9z"/>
				<g>
					<g>
						<path class="st1" d="M246.5,62.1l-7,5.4c-0.2,0.2-0.1,0.5,0.2,0.5l8.8-1.1c0.3,0,0.4,0.4,0.1,0.5l-8.2,3.4
							c-0.3,0.1-0.2,0.5,0.1,0.5l8.8,1.1c0.3,0,0.3,0.5,0,0.6l-8.8,1.1c-0.3,0-0.3,0.4-0.1,0.5l8.2,3.4c0.3,0.1,0.2,0.6-0.1,0.5
							l-8.8-1.1c-0.3,0-0.4,0.3-0.2,0.5l6.3,4.8c0.3,0.2,0,0.6-0.3,0.5L235.1,78c-0.1-0.1-0.2-0.3-0.1-0.4c2-3,2-6.7,0-9.7
							c-0.1-0.1-0.1-0.2,0-0.3l1.8-2.3l0.1-0.1l9.3-3.6C246.5,61.4,246.9,61.9,246.5,62.1z"/>
					</g>
					<g>
						<path class="st1" d="M237.9,53.6l-5.4,7c-0.2,0.2-0.5,0.1-0.5-0.2l1.1-8.8c0-0.3-0.4-0.4-0.5-0.1l-3.4,8.2
							c-0.1,0.3-0.5,0.2-0.5-0.1l-1.1-8.8c0-0.3-0.5-0.3-0.6,0l-1.1,8.8c0,0.3-0.4,0.3-0.5,0.1l-3.4-8.2c-0.1-0.3-0.6-0.2-0.5,0.1
							l1.1,8.8c0,0.3-0.3,0.4-0.5,0.2l-4.8-6.3c-0.2-0.3-0.6,0-0.5,0.3L222,65c0.1,0.1,0.3,0.2,0.4,0.1c3-2,6.7-2,9.7,0
							c0.1,0.1,0.2,0.1,0.3,0l2.3-1.8l0.1-0.1l3.6-9.3C238.6,53.5,238.1,53.3,237.9,53.6z"/>
					</g>
				</g>
			</g>
		</g>
		<g>
			<g>
				<path class="st1" d="M186.4,115.9c0.6-0.6,0.6-1.7,0-2.3c-0.6-0.6-1.7-0.6-2.3,0c-0.6,0.6-0.6,1.7,0,2.3
					C184.9,116.5,185.8,116.5,186.4,115.9"/>
				<path class="st1" d="M155.6,144.7c-0.2,0.1-0.4-0.1-0.3-0.3c4-4.7,14.6-16.6,19-20.8c5.5-5.5,7-6.1,7.7-5.5
					c0.6,0.6,0,2.2-5.5,7.7C172.2,130,160.3,140.5,155.6,144.7z"/>
				<path class="st1" d="M178.2,134.3l6-16c0-0.1,0.1-0.1,0.1-0.1c1.1-0.1,2.4-0.7,3.4-1.9c1.7-1.7,3.5-6.8,3.8-7.9
					c0-0.1,0-0.1-0.1-0.1c-1,0.3-6.2,2.2-7.9,3.8c-1,1-1.8,2.4-1.9,3.4c0,0.1-0.1,0.1-0.1,0.1l-16,6c-0.1,0-0.1,0-0.2,0l-3.2-3.2
					c-0.1-0.1-0.1-0.2,0.1-0.3l32.9-13.7c0.1-0.1,0.3,0.1,0.2,0.2l-13.7,32.9c0,0.1-0.2,0.1-0.3,0.1l-3.2-3.2
					C178.1,134.4,178.1,134.3,178.2,134.3z"/>
				<g>
					<g>
						<path class="st1" d="M153.5,138l7-5.4c0.2-0.2,0.1-0.5-0.2-0.5l-8.8,1.1c-0.3,0-0.4-0.4-0.1-0.5l8.2-3.4
							c0.3-0.1,0.2-0.5-0.1-0.5l-8.8-1.1c-0.3,0-0.3-0.5,0-0.6l8.8-1.1c0.3,0,0.3-0.4,0.1-0.5l-8.2-3.4c-0.3-0.1-0.2-0.6,0.1-0.5
							l8.8,1.1c0.3,0,0.4-0.3,0.2-0.5l-6.3-4.8c-0.3-0.2,0-0.6,0.3-0.5l10.4,5.3c0.1,0.1,0.2,0.3,0.1,0.4c-2,3-2,6.7,0,9.7
							c0.1,0.1,0.1,0.2,0,0.3l-1.8,2.3l-0.1,0.1l-9.3,3.6C153.5,138.7,153.1,138.2,153.5,138z"/>
					</g>
					<g>
						<path class="st1" d="M162.1,146.6l5.4-7c0.2-0.2,0.5-0.1,0.5,0.2l-1.1,8.8c0,0.3,0.4,0.4,0.5,0.1l3.4-8.2
							c0.1-0.3,0.5-0.2,0.5,0.1l1.1,8.8c0,0.3,0.5,0.3,0.6,0l1.1-8.8c0-0.3,0.4-0.3,0.5-0.1l3.4,8.2c0.1,0.3,0.6,0.2,0.5-0.1
							l-1.1-8.8c0-0.3,0.3-0.4,0.5-0.2l4.8,6.3c0.2,0.3,0.6,0,0.5-0.3l-5.3-10.4c-0.1-0.1-0.3-0.2-0.4-0.1c-3,2-6.7,2-9.7,0
							c-0.1-0.1-0.2-0.1-0.3,0l-2.3,1.8l-0.1,0.1l-3.6,9.3C161.4,146.6,161.9,146.9,162.1,146.6z"/>
					</g>
				</g>
			</g>
		</g>
	</g>
</g>
</svg>
